<svg width="572" height="181" viewBox="0 0 572 181" fill="none" xmlns="http://www.w3.org/2000/svg">
<path d="M14.298 48.4789C7.66204 45.3201 0 50.1588 0 57.5082V127C0 132.523 4.47715 137 10 137H562C567.523 137 572 132.523 572 127V45.9994C572 40.9636 568.257 36.6714 563.233 36.3259C560.141 36.1133 557.03 36 553.898 36C536.019 36 517.307 40.2802 498.266 44.6355C485.878 47.469 473.352 50.3343 460.825 52.0734C442.476 54.8169 423.25 54.758 404.237 54.6997C392.671 54.6643 381.184 54.6291 370.022 55.2251C340.687 56.3887 313.287 61.5801 284.25 67.0814C281.828 67.5402 279.395 68.0011 276.949 68.462C247.438 74.135 215.657 80.1231 183.876 83.2748C154.365 86.1113 122.584 86.1113 93.073 78.5473C65.2344 72.1977 39.1376 60.0444 22.4112 52.2549C20.0425 51.1518 17.8617 50.1362 15.8905 49.2369L14.298 48.4789Z" fill="url(#paint0_linear_1630_1169)" fill-opacity="0.6"/>
<path d="M0 171C0 176.523 4.47715 181 10 181H562C567.523 181 572 176.523 572 171V96.0435C572 91.5942 569.065 87.6634 564.778 86.4717C553.036 83.2072 541.409 80.5549 529.253 80.5549C517.83 80.5549 506.874 82.8971 495.85 85.2537C487.609 87.0155 479.33 88.7853 470.79 89.5906C452.253 91.4731 432.29 87.7082 413.753 82.4374C393.79 77.1665 373.827 70.0133 355.29 59.4717C350.859 57.1317 346.498 54.6248 342.176 52.1404C327.028 43.4322 312.359 35 296.827 35C285.597 35 273.843 40.113 261.883 45.3157C254.101 48.7005 246.233 52.1233 238.364 54.2008C226.839 57.4781 214.762 57.4077 202.819 57.3381C195.554 57.2958 188.339 57.2537 181.327 57.9657C162.901 59.3557 145.689 65.5572 127.45 72.1289C125.929 72.677 124.401 73.2276 122.864 73.7782C104.327 80.5549 84.3643 87.7082 64.4013 91.473C45.8643 94.8614 25.9013 94.8614 7.3643 85.8257V85.8257C3.9715 84.3541 0 86.7201 0 90.4183V171Z" fill="url(#paint1_linear_1630_1169)"/>
<path d="M568.28 83.6513C570.375 83.8791 572 85.6226 572 87.7303V171C572 176.523 567.523 181 562 181H10C4.47715 181 0 176.523 0 171V10.11C0 5.31877 3.393 1.13906 8.15307 0.593568C16.0229 -0.308296 23.9613 -0.247456 32.0784 1.22741C43.9076 3.79929 56.1769 9.72966 68.6735 15.7699C82.015 22.2185 95.6156 28.7923 109.216 31.5381C122.403 34.1184 136.136 32.3707 149.826 30.6285C161.529 29.1392 173.201 27.6539 184.473 28.8793C208.852 31.3403 231.62 44.2794 255.76 57.9983C257.701 59.1012 259.65 60.2091 261.61 61.3171C263.913 62.6186 266.2 63.9201 268.477 65.2148C292.24 78.7323 314.71 91.5144 338.748 95.882C363.206 101.2 389.546 95.882 414.004 88.4372C420.138 86.7037 426.169 84.826 432.146 82.9652C451.836 76.835 470.935 70.8889 491.142 70.8889C506.214 70.8889 520.67 74.1971 535.215 77.5257C546.088 80.0141 557.012 82.5139 568.28 83.6513V83.6513Z" fill="url(#paint2_linear_1630_1169)"/>
<path d="M15.368 63.3605C8.71075 59.1249 0 63.9071 0 71.7976V171C0 176.523 4.47715 181 10 181H562C567.523 181 572 176.523 572 171V56.0348C572 51.1577 568.485 46.9372 563.63 46.4729C560.407 46.1646 557.164 46 553.898 46C536.019 46 517.307 51.721 498.266 57.5425C485.878 61.3298 473.352 65.1597 460.825 67.4843C442.476 71.1513 423.25 71.0725 404.237 70.9946C392.671 70.9473 381.184 70.9002 370.022 71.6969C340.687 73.2522 313.287 80.1912 284.249 87.5445C281.828 88.1577 279.395 88.7738 276.949 89.3898C247.438 96.9725 215.657 104.976 183.876 109.189C154.365 112.98 122.584 112.98 93.073 102.87C65.2344 94.3831 39.1376 78.1385 22.4112 67.7268C20.0425 66.2523 17.8617 64.8949 15.8905 63.6929L15.368 63.3605Z" fill="url(#paint3_linear_1630_1169)"/>
<path d="M5.17824 100.956C1.9842 102.714 0 106.071 0 109.717V171C0 176.523 4.47715 181 10 181H562C567.523 181 572 176.523 572 171V98.9929C572 93.9146 568.195 89.6043 563.126 89.2902C560.069 89.1008 556.994 89 553.898 89C536.019 89 517.307 92.8988 498.266 96.866C485.878 99.447 472.792 120.87 460.265 122.455C441.916 124.954 415.723 112.949 396.71 112.896C385.144 112.864 376.094 127.213 364.932 127.756C335.597 128.816 313.287 112.301 284.249 117.312C281.828 117.73 279.395 118.15 276.949 118.569C247.438 123.737 215.657 129.191 183.876 132.062C154.365 134.646 122.584 134.646 93.073 127.756C65.6351 122.055 55.8479 108.443 39.5574 101.259C39.0825 101.049 38.6229 100.803 38.1623 100.564C33.1788 97.9752 23.3537 97.5977 17.391 97.313C14.3535 97.1679 11.0589 97.7198 8.39476 99.1861L5.17824 100.956Z" fill="url(#paint4_linear_1630_1169)" fill-opacity="0.9"/>
<path d="M38.008 161H36.136V150.328H43.448V151.976H38.008V154.744H43.336V156.392H38.008V161ZM52.4324 161H45.1204V150.328H52.4324V151.976H46.9924V154.744H52.3204V156.392H46.9924V159.352H52.4324V161ZM59.7468 161H54.3548V150.328H59.6028C60.5521 150.328 61.2934 150.589 61.8268 151.112C62.3708 151.624 62.6428 152.269 62.6428 153.048C62.6428 153.688 62.4614 154.232 62.0988 154.68C61.7468 155.117 61.3094 155.389 60.7868 155.496C61.3628 155.581 61.8481 155.88 62.2428 156.392C62.6481 156.893 62.8508 157.469 62.8508 158.12C62.8508 158.973 62.5734 159.667 62.0188 160.2C61.4748 160.733 60.7174 161 59.7468 161ZM59.2188 154.744C59.6881 154.744 60.0561 154.616 60.3228 154.36C60.5894 154.104 60.7228 153.773 60.7228 153.368C60.7228 152.952 60.5894 152.616 60.3228 152.36C60.0561 152.104 59.6881 151.976 59.2188 151.976H56.2268V154.744H59.2188ZM59.2988 159.352C59.8108 159.352 60.2108 159.224 60.4988 158.968C60.7868 158.701 60.9308 158.333 60.9308 157.864C60.9308 157.448 60.7868 157.101 60.4988 156.824C60.2108 156.536 59.8108 156.392 59.2988 156.392H56.2268V159.352H59.2988ZM72.6471 161H70.7751V152.76L69.0311 154.568L67.9431 153.432L71.0151 150.328H72.6471V161Z" fill="white"/>
<path d="M106.008 161H104.136V150.328H111.448V151.976H106.008V154.744H111.336V156.392H106.008V161ZM120.432 161H113.12V150.328H120.432V151.976H114.992V154.744H120.32V156.392H114.992V159.352H120.432V161ZM127.747 161H122.355V150.328H127.603C128.552 150.328 129.293 150.589 129.827 151.112C130.371 151.624 130.643 152.269 130.643 153.048C130.643 153.688 130.461 154.232 130.099 154.68C129.747 155.117 129.309 155.389 128.787 155.496C129.363 155.581 129.848 155.88 130.243 156.392C130.648 156.893 130.851 157.469 130.851 158.12C130.851 158.973 130.573 159.667 130.019 160.2C129.475 160.733 128.717 161 127.747 161ZM127.219 154.744C127.688 154.744 128.056 154.616 128.323 154.36C128.589 154.104 128.723 153.773 128.723 153.368C128.723 152.952 128.589 152.616 128.323 152.36C128.056 152.104 127.688 151.976 127.219 151.976H124.227V154.744H127.219ZM127.299 159.352C127.811 159.352 128.211 159.224 128.499 158.968C128.787 158.701 128.931 158.333 128.931 157.864C128.931 157.448 128.787 157.101 128.499 156.824C128.211 156.536 127.811 156.392 127.299 156.392H124.227V159.352H127.299ZM139.687 161H137.639L141.671 151.976H136.135V150.328H143.831V151.624L139.687 161Z" fill="white"/>
<path d="M178.008 161H176.136V150.328H183.448V151.976H178.008V154.744H183.336V156.392H178.008V161ZM192.432 161H185.12V150.328H192.432V151.976H186.992V154.744H192.32V156.392H186.992V159.352H192.432V161ZM199.747 161H194.355V150.328H199.603C200.552 150.328 201.293 150.589 201.827 151.112C202.371 151.624 202.643 152.269 202.643 153.048C202.643 153.688 202.461 154.232 202.099 154.68C201.747 155.117 201.309 155.389 200.787 155.496C201.363 155.581 201.848 155.88 202.243 156.392C202.648 156.893 202.851 157.469 202.851 158.12C202.851 158.973 202.573 159.667 202.019 160.2C201.475 160.733 200.717 161 199.747 161ZM199.219 154.744C199.688 154.744 200.056 154.616 200.323 154.36C200.589 154.104 200.723 153.773 200.723 153.368C200.723 152.952 200.589 152.616 200.323 152.36C200.056 152.104 199.688 151.976 199.219 151.976H196.227V154.744H199.219ZM199.299 159.352C199.811 159.352 200.211 159.224 200.499 158.968C200.787 158.701 200.931 158.333 200.931 157.864C200.931 157.448 200.787 157.101 200.499 156.824C200.211 156.536 199.811 156.392 199.299 156.392H196.227V159.352H199.299ZM212.647 161H210.775V152.76L209.031 154.568L207.943 153.432L211.015 150.328H212.647V161ZM221.189 161H219.317V158.584H214.229V157.08L218.613 150.328H221.189V156.936H222.613V158.584H221.189V161ZM219.317 156.936V152.008L216.069 156.936H219.317Z" fill="white"/>
<path d="M254.008 161H252.136V150.328H259.448V151.976H254.008V154.744H259.336V156.392H254.008V161ZM268.432 161H261.12V150.328H268.432V151.976H262.992V154.744H268.32V156.392H262.992V159.352H268.432V161ZM275.747 161H270.355V150.328H275.603C276.552 150.328 277.293 150.589 277.827 151.112C278.371 151.624 278.643 152.269 278.643 153.048C278.643 153.688 278.461 154.232 278.099 154.68C277.747 155.117 277.309 155.389 276.787 155.496C277.363 155.581 277.848 155.88 278.243 156.392C278.648 156.893 278.851 157.469 278.851 158.12C278.851 158.973 278.573 159.667 278.019 160.2C277.475 160.733 276.717 161 275.747 161ZM275.219 154.744C275.688 154.744 276.056 154.616 276.323 154.36C276.589 154.104 276.723 153.773 276.723 153.368C276.723 152.952 276.589 152.616 276.323 152.36C276.056 152.104 275.688 151.976 275.219 151.976H272.227V154.744H275.219ZM275.299 159.352C275.811 159.352 276.211 159.224 276.499 158.968C276.787 158.701 276.931 158.333 276.931 157.864C276.931 157.448 276.787 157.101 276.499 156.824C276.211 156.536 275.811 156.392 275.299 156.392H272.227V159.352H275.299ZM292.231 161H284.503V159.528C286.732 157.843 288.247 156.595 289.047 155.784C289.858 154.963 290.263 154.189 290.263 153.464C290.263 152.941 290.071 152.541 289.687 152.264C289.314 151.976 288.86 151.832 288.327 151.832C287.154 151.832 286.194 152.259 285.447 153.112L284.359 151.88C284.818 151.325 285.394 150.904 286.087 150.616C286.791 150.317 287.527 150.168 288.295 150.168C289.383 150.168 290.3 150.461 291.047 151.048C291.794 151.635 292.167 152.44 292.167 153.464C292.167 154.381 291.783 155.293 291.015 156.2C290.247 157.107 289.074 158.157 287.495 159.352H292.231V161ZM298.163 161H296.291V152.76L294.547 154.568L293.459 153.432L296.531 150.328H298.163V161Z" fill="white"/>
<path d="M333.008 161H331.136V150.328H338.448V151.976H333.008V154.744H338.336V156.392H333.008V161ZM347.432 161H340.12V150.328H347.432V151.976H341.992V154.744H347.32V156.392H341.992V159.352H347.432V161ZM354.747 161H349.355V150.328H354.603C355.552 150.328 356.293 150.589 356.827 151.112C357.371 151.624 357.643 152.269 357.643 153.048C357.643 153.688 357.461 154.232 357.099 154.68C356.747 155.117 356.309 155.389 355.787 155.496C356.363 155.581 356.848 155.88 357.243 156.392C357.648 156.893 357.851 157.469 357.851 158.12C357.851 158.973 357.573 159.667 357.019 160.2C356.475 160.733 355.717 161 354.747 161ZM354.219 154.744C354.688 154.744 355.056 154.616 355.323 154.36C355.589 154.104 355.723 153.773 355.723 153.368C355.723 152.952 355.589 152.616 355.323 152.36C355.056 152.104 354.688 151.976 354.219 151.976H351.227V154.744H354.219ZM354.299 159.352C354.811 159.352 355.211 159.224 355.499 158.968C355.787 158.701 355.931 158.333 355.931 157.864C355.931 157.448 355.787 157.101 355.499 156.824C355.211 156.536 354.811 156.392 354.299 156.392H351.227V159.352H354.299ZM371.231 161H363.503V159.528C365.732 157.843 367.247 156.595 368.047 155.784C368.858 154.963 369.263 154.189 369.263 153.464C369.263 152.941 369.071 152.541 368.687 152.264C368.314 151.976 367.86 151.832 367.327 151.832C366.154 151.832 365.194 152.259 364.447 153.112L363.359 151.88C363.818 151.325 364.394 150.904 365.087 150.616C365.791 150.317 366.527 150.168 367.295 150.168C368.383 150.168 369.3 150.461 370.047 151.048C370.794 151.635 371.167 152.44 371.167 153.464C371.167 154.381 370.783 155.293 370.015 156.2C369.247 157.107 368.074 158.157 366.495 159.352H371.231V161ZM379.883 160.424C379.104 160.936 378.139 161.192 376.987 161.192C375.835 161.192 374.864 160.936 374.075 160.424C373.285 159.901 372.891 159.181 372.891 158.264C372.891 157.613 373.115 157.048 373.563 156.568C374.021 156.088 374.597 155.731 375.291 155.496C374.629 155.283 374.091 154.968 373.675 154.552C373.269 154.136 373.067 153.608 373.067 152.968C373.067 152.499 373.179 152.077 373.403 151.704C373.637 151.331 373.941 151.037 374.315 150.824C374.699 150.611 375.115 150.451 375.563 150.344C376.021 150.227 376.496 150.168 376.987 150.168C377.477 150.168 377.947 150.227 378.395 150.344C378.843 150.451 379.259 150.611 379.643 150.824C380.027 151.037 380.331 151.331 380.555 151.704C380.789 152.077 380.907 152.499 380.907 152.968C380.907 154.173 380.16 155.016 378.667 155.496C379.36 155.731 379.931 156.088 380.379 156.568C380.837 157.048 381.067 157.613 381.067 158.264C381.067 159.181 380.672 159.901 379.883 160.424ZM376.987 154.76C377.275 154.707 377.552 154.637 377.819 154.552C378.085 154.456 378.347 154.296 378.603 154.072C378.869 153.837 379.003 153.565 379.003 153.256C379.003 152.819 378.811 152.472 378.427 152.216C378.053 151.96 377.573 151.832 376.987 151.832C376.389 151.832 375.899 151.96 375.515 152.216C375.141 152.472 374.955 152.819 374.955 153.256C374.955 153.565 375.088 153.837 375.355 154.072C375.621 154.296 375.888 154.456 376.155 154.552C376.421 154.637 376.699 154.707 376.987 154.76ZM376.987 159.528C377.595 159.528 378.112 159.389 378.539 159.112C378.965 158.835 379.179 158.472 379.179 158.024C379.179 157.544 378.928 157.16 378.427 156.872C377.936 156.573 377.456 156.397 376.987 156.344C376.709 156.376 376.416 156.451 376.107 156.568C375.797 156.675 375.499 156.861 375.211 157.128C374.923 157.384 374.779 157.683 374.779 158.024C374.779 158.472 374.987 158.835 375.403 159.112C375.829 159.389 376.357 159.528 376.987 159.528Z" fill="white"/>
<path d="M422.224 161H420.352V153.08L417.072 161H416.272L413.008 153.08V161H411.136V150.328H413.776L416.672 157.352L419.584 150.328H422.224V161ZM434.095 161H431.967L431.183 158.952H426.287L425.503 161H423.375L427.567 150.328H429.903L434.095 161ZM430.655 157.304L428.735 152.216L426.815 157.304H430.655ZM443.517 161H441.357L438.989 157.016H437.133V161H435.261V150.328H439.949C440.994 150.328 441.837 150.637 442.477 151.256C443.117 151.875 443.437 152.68 443.437 153.672C443.437 154.568 443.192 155.288 442.701 155.832C442.21 156.365 441.613 156.691 440.909 156.808L443.517 161ZM439.693 155.368C440.226 155.368 440.664 155.213 441.005 154.904C441.346 154.595 441.517 154.184 441.517 153.672C441.517 153.16 441.346 152.749 441.005 152.44C440.664 152.131 440.226 151.976 439.693 151.976H437.133V155.368H439.693ZM453.145 161.192C451.428 161.192 450.105 160.643 449.177 159.544L450.249 158.264C450.996 159.107 451.956 159.528 453.129 159.528C453.791 159.528 454.319 159.352 454.713 159C455.119 158.637 455.321 158.189 455.321 157.656C455.321 157.08 455.124 156.621 454.729 156.28C454.345 155.928 453.828 155.752 453.177 155.752C452.271 155.752 451.492 156.061 450.841 156.68L449.513 156.296V150.328H456.505V151.976H451.385V155.064C452.004 154.445 452.809 154.136 453.801 154.136C454.74 154.136 455.54 154.451 456.201 155.08C456.873 155.699 457.209 156.531 457.209 157.576C457.209 158.675 456.831 159.555 456.073 160.216C455.327 160.867 454.351 161.192 453.145 161.192Z" fill="white"/>
<path d="M501.224 161H499.352V153.08L496.072 161H495.272L492.008 153.08V161H490.136V150.328H492.776L495.672 157.352L498.584 150.328H501.224V161ZM513.095 161H510.967L510.183 158.952H505.287L504.503 161H502.375L506.567 150.328H508.903L513.095 161ZM509.655 157.304L507.735 152.216L505.815 157.304H509.655ZM522.517 161H520.357L517.989 157.016H516.133V161H514.261V150.328H518.949C519.994 150.328 520.837 150.637 521.477 151.256C522.117 151.875 522.437 152.68 522.437 153.672C522.437 154.568 522.192 155.288 521.701 155.832C521.21 156.365 520.613 156.691 519.909 156.808L522.517 161ZM518.693 155.368C519.226 155.368 519.664 155.213 520.005 154.904C520.346 154.595 520.517 154.184 520.517 153.672C520.517 153.16 520.346 152.749 520.005 152.44C519.664 152.131 519.226 151.976 518.693 151.976H516.133V155.368H518.693ZM532.225 161H530.353V152.76L528.609 154.568L527.521 153.432L530.593 150.328H532.225V161ZM541.887 161H534.159V159.528C536.389 157.843 537.903 156.595 538.703 155.784C539.514 154.963 539.919 154.189 539.919 153.464C539.919 152.941 539.727 152.541 539.343 152.264C538.97 151.976 538.517 151.832 537.983 151.832C536.81 151.832 535.85 152.259 535.103 153.112L534.015 151.88C534.474 151.325 535.05 150.904 535.743 150.616C536.447 150.317 537.183 150.168 537.951 150.168C539.039 150.168 539.957 150.461 540.703 151.048C541.45 151.635 541.823 152.44 541.823 153.464C541.823 154.381 541.439 155.293 540.671 156.2C539.903 157.107 538.73 158.157 537.151 159.352H541.887V161Z" fill="white"/>
<defs>
<linearGradient id="paint0_linear_1630_1169" x1="461.015" y1="-62.1945" x2="307.024" y2="288.661" gradientUnits="userSpaceOnUse">
<stop stop-color="#DB05AC"/>
<stop offset="1" stop-color="#EE11F2" stop-opacity="0.7"/>
</linearGradient>
<linearGradient id="paint1_linear_1630_1169" x1="276.609" y1="-72.4174" x2="207.498" y2="288.505" gradientUnits="userSpaceOnUse">
<stop stop-color="#A21ECD"/>
<stop offset="1" stop-color="white"/>
</linearGradient>
<linearGradient id="paint2_linear_1630_1169" x1="3.1436e-05" y1="-92.995" x2="271.536" y2="453.776" gradientUnits="userSpaceOnUse">
<stop stop-color="#CB5B66"/>
<stop offset="1" stop-color="#FF919D" stop-opacity="0"/>
</linearGradient>
<linearGradient id="paint3_linear_1630_1169" x1="461.015" y1="-85.25" x2="251.575" y2="368.298" gradientUnits="userSpaceOnUse">
<stop stop-color="#FF650F"/>
<stop offset="0.183819" stop-color="#FF7D0C" stop-opacity="0.816181"/>
<stop offset="1" stop-color="#FFE600" stop-opacity="0"/>
</linearGradient>
<linearGradient id="paint4_linear_1630_1169" x1="105.978" y1="139.488" x2="431.004" y2="63.4007" gradientUnits="userSpaceOnUse">
<stop stop-color="#4E9CF7" stop-opacity="0.8"/>
<stop offset="1" stop-color="#4FBBF7" stop-opacity="0.85"/>
</linearGradient>
</defs>
</svg>
