<svg width="11" height="14" viewBox="0 0 11 14" fill="none" xmlns="http://www.w3.org/2000/svg">
<path d="M5.15841 1.3807L4.70182 0.918072L4.70182 0.918072L5.15841 1.3807ZM5.8655 1.38535L5.40287 1.84194L5.40287 1.84194L5.8655 1.38535ZM0.543228 5.02235L4.70182 0.918072L5.615 1.84333L1.4564 5.94761L0.543228 5.02235ZM6.32813 0.928762L10.4324 5.08736L9.50715 6.00053L5.40287 1.84194L6.32813 0.928762ZM4.70182 0.918072C5.15387 0.471931 5.88199 0.476717 6.32813 0.928763L5.40287 1.84194C5.46106 1.9009 5.55604 1.90153 5.615 1.84333L4.70182 0.918072Z" fill="#252531"/>
<path d="M5.16014 12.6247L5.61445 12.1599L5.61445 12.1599L5.16014 12.6247ZM5.86379 12.6201L6.32423 13.079L6.32423 13.079L5.86379 12.6201ZM0.54551 9.02321L4.70584 13.0895L5.61445 12.1599L1.45412 8.09358L0.54551 9.02321ZM6.32423 13.079L10.4302 8.95886L9.50934 8.04114L5.40335 12.1612L6.32423 13.079ZM4.70584 13.0895C5.15695 13.5304 5.879 13.5257 6.32423 13.079L5.40335 12.1612C5.46143 12.103 5.55561 12.1023 5.61445 12.1599L4.70584 13.0895Z" fill="#252531"/>
</svg>
