<svg width="65" height="18" viewBox="0 0 65 18" fill="none" xmlns="http://www.w3.org/2000/svg">
<path d="M7.78 14.26C10.2 14.26 12.1 13.26 13.46 11.74V6.62H7.1V9.1H10.62V10.7C10.08 11.2 8.96 11.72 7.78 11.72C5.36 11.72 3.6 9.86 3.6 7.34C3.6 4.82 5.36 2.96 7.78 2.96C9.2 2.96 10.34 3.76 10.94 4.7L13.3 3.42C12.3 1.84 10.56 0.439999 7.78 0.439999C3.88 0.439999 0.68 3.12 0.68 7.34C0.68 11.54 3.88 14.26 7.78 14.26ZM20.1345 14.24C23.3345 14.24 25.2545 11.92 25.2545 9.16C25.2545 6.42 23.3345 4.1 20.1345 4.1C16.9545 4.1 15.0345 6.42 15.0345 9.16C15.0345 11.92 16.9545 14.24 20.1345 14.24ZM20.1345 11.98C18.5545 11.98 17.6745 10.68 17.6745 9.16C17.6745 7.66 18.5545 6.36 20.1345 6.36C21.7145 6.36 22.6145 7.66 22.6145 9.16C22.6145 10.68 21.7145 11.98 20.1345 11.98ZM31.6189 14.24C34.8189 14.24 36.7389 11.92 36.7389 9.16C36.7389 6.42 34.8189 4.1 31.6189 4.1C28.4389 4.1 26.5189 6.42 26.5189 9.16C26.5189 11.92 28.4389 14.24 31.6189 14.24ZM31.6189 11.98C30.0389 11.98 29.1589 10.68 29.1589 9.16C29.1589 7.66 30.0389 6.36 31.6189 6.36C33.1989 6.36 34.0989 7.66 34.0989 9.16C34.0989 10.68 33.1989 11.98 31.6189 11.98ZM42.5833 17.92C44.9633 17.92 47.8033 17.02 47.8033 13.34V4.34H45.2433V5.58C44.4633 4.6 43.4233 4.1 42.2633 4.1C39.8233 4.1 38.0033 5.86 38.0033 9.02C38.0033 12.24 39.8433 13.94 42.2633 13.94C43.4433 13.94 44.4833 13.38 45.2433 12.42V13.4C45.2433 15.3 43.8033 15.84 42.5833 15.84C41.3633 15.84 40.3433 15.5 39.5633 14.64L38.4233 16.48C39.6433 17.54 40.9233 17.92 42.5833 17.92ZM43.0633 11.68C41.6233 11.68 40.6233 10.68 40.6233 9.02C40.6233 7.36 41.6233 6.36 43.0633 6.36C43.9033 6.36 44.8233 6.82 45.2433 7.46V10.58C44.8233 11.2 43.9033 11.68 43.0633 11.68ZM52.8625 14V0.659999H50.3225V14H52.8625ZM59.9211 14.24C61.4211 14.24 62.9411 13.78 63.9011 12.9L62.7811 11.26C62.1611 11.86 61.0211 12.22 60.2011 12.22C58.5611 12.22 57.5811 11.2 57.4211 9.98H64.6011V9.42C64.6011 6.26 62.6411 4.1 59.7611 4.1C56.8211 4.1 54.7611 6.36 54.7611 9.16C54.7611 12.26 56.9811 14.24 59.9211 14.24ZM62.1411 8.26H57.3811C57.5011 7.3 58.1811 6.12 59.7611 6.12C61.4411 6.12 62.0811 7.34 62.1411 8.26Z" fill="#6C94BC"/>
</svg>
