<svg width="193" height="182" viewBox="0 0 193 182" fill="none" xmlns="http://www.w3.org/2000/svg">
<g filter="url(#filter0_d_1912_9893)">
<rect x="18" y="15" width="152.89" height="98.4877" rx="20" fill="#F8F8FA"/>
<rect x="18" y="15" width="152.89" height="98.4877" rx="20" fill="#F8F8FA"/>
<rect x="18" y="15" width="152.89" height="98.4877" rx="20" fill="#F8F8FA"/>
<rect x="18" y="15" width="152.89" height="98.4877" rx="20" fill="#EFEFEF"/>
</g>
<rect x="18" y="65.1816" width="152.89" height="48.3059" fill="#F8F8FA"/>
<rect x="18" y="65.1816" width="152.89" height="48.3059" fill="#F8F8FA"/>
<rect x="18" y="65.1816" width="152.89" height="48.3059" fill="#F8F8FA"/>
<rect x="18" y="65.1816" width="152.89" height="48.3059" fill="#EFEFEF"/>
<g filter="url(#filter1_d_1912_9893)">
<rect x="18" y="113.488" width="152.89" height="42.678" rx="20" fill="#F8F8FA"/>
<rect x="18" y="113.488" width="152.89" height="42.678" rx="20" fill="#F8F8FA"/>
<rect x="18" y="113.488" width="152.89" height="42.678" rx="20" fill="#F8F8FA"/>
<rect x="18" y="113.488" width="152.89" height="42.678" rx="20" fill="white"/>
</g>
<rect x="18" y="110.52" width="153" height="24.5138" fill="#F8F8FA"/>
<rect x="18" y="110.52" width="153" height="24.5138" fill="#F8F8FA"/>
<rect x="18" y="110.52" width="153" height="24.5138" fill="#F8F8FA"/>
<rect x="18" y="110.52" width="153" height="24.5138" fill="white"/>
<defs>
<filter id="filter0_d_1912_9893" x="0" y="0" width="192.891" height="138.488" filterUnits="userSpaceOnUse" color-interpolation-filters="sRGB">
<feFlood flood-opacity="0" result="BackgroundImageFix"/>
<feColorMatrix in="SourceAlpha" type="matrix" values="0 0 0 0 0 0 0 0 0 0 0 0 0 0 0 0 0 0 127 0" result="hardAlpha"/>
<feOffset dx="2" dy="5"/>
<feGaussianBlur stdDeviation="10"/>
<feComposite in2="hardAlpha" operator="out"/>
<feColorMatrix type="matrix" values="0 0 0 0 0.945833 0 0 0 0 0.945833 0 0 0 0 0.945833 0 0 0 1 0"/>
<feBlend mode="normal" in2="BackgroundImageFix" result="effect1_dropShadow_1912_9893"/>
<feBlend mode="normal" in="SourceGraphic" in2="effect1_dropShadow_1912_9893" result="shape"/>
</filter>
<filter id="filter1_d_1912_9893" x="0" y="98.4878" width="192.891" height="82.6782" filterUnits="userSpaceOnUse" color-interpolation-filters="sRGB">
<feFlood flood-opacity="0" result="BackgroundImageFix"/>
<feColorMatrix in="SourceAlpha" type="matrix" values="0 0 0 0 0 0 0 0 0 0 0 0 0 0 0 0 0 0 127 0" result="hardAlpha"/>
<feOffset dx="2" dy="5"/>
<feGaussianBlur stdDeviation="10"/>
<feComposite in2="hardAlpha" operator="out"/>
<feColorMatrix type="matrix" values="0 0 0 0 0.945833 0 0 0 0 0.945833 0 0 0 0 0.945833 0 0 0 1 0"/>
<feBlend mode="normal" in2="BackgroundImageFix" result="effect1_dropShadow_1912_9893"/>
<feBlend mode="normal" in="SourceGraphic" in2="effect1_dropShadow_1912_9893" result="shape"/>
</filter>
</defs>
</svg>
