<svg width="66" height="37" viewBox="0 0 66 37" fill="none" xmlns="http://www.w3.org/2000/svg">
<rect x="65" width="1" height="37" fill="white" fill-opacity="0.5"/>
<path fill-rule="evenodd" clip-rule="evenodd" d="M65 0H6.06557C2.71565 0 0 2.23858 0 5V32C0 34.7614 2.71565 37 6.06557 37H65V0Z" fill="white" fill-opacity="0.1"/>
<path d="M18.678 23V18.226C18.678 16.756 17.936 16.07 16.522 16.07C15.5 16.07 14.576 16.658 14.1 17.218V13.662H13.05V23H14.1V18.058C14.506 17.512 15.29 17.008 16.102 17.008C17.012 17.008 17.628 17.358 17.628 18.548V23H18.678ZM22.4826 23.168C23.0986 23.168 23.4766 22.986 23.7426 22.734L23.4346 21.95C23.2946 22.104 23.0146 22.23 22.7206 22.23C22.2586 22.23 22.0346 21.866 22.0346 21.362V17.162H23.4066V16.238H22.0346V14.39H20.9846V16.238H19.8646V17.162H20.9846V21.586C20.9846 22.594 21.4886 23.168 22.4826 23.168ZM26.5978 23.168C27.2138 23.168 27.5918 22.986 27.8578 22.734L27.5498 21.95C27.4098 22.104 27.1298 22.23 26.8358 22.23C26.3738 22.23 26.1498 21.866 26.1498 21.362V17.162H27.5218V16.238H26.1498V14.39H25.0998V16.238H23.9798V17.162H25.0998V21.586C25.0998 22.594 25.6038 23.168 26.5978 23.168ZM32.3371 23.168C34.1151 23.168 35.3471 21.796 35.3471 19.612C35.3471 17.414 34.1151 16.07 32.3371 16.07C31.3851 16.07 30.5451 16.56 30.0551 17.246V16.238H29.0051V25.576H30.0551V21.978C30.6011 22.734 31.4131 23.168 32.3371 23.168ZM32.0711 22.23C31.2451 22.23 30.4191 21.726 30.0551 21.138V18.086C30.4191 17.498 31.2451 17.008 32.0711 17.008C33.4291 17.008 34.2411 18.114 34.2411 19.612C34.2411 21.11 33.4291 22.23 32.0711 22.23ZM39.1588 23.168C40.9088 23.168 41.8188 22.258 41.8188 21.124C41.8188 18.492 37.6328 19.472 37.6328 17.988C37.6328 17.386 38.2068 16.924 39.1308 16.924C39.9988 16.924 40.7408 17.288 41.1468 17.778L41.6368 17.05C41.0908 16.504 40.2788 16.07 39.1308 16.07C37.5208 16.07 36.6108 16.966 36.6108 18.016C36.6108 20.522 40.7968 19.514 40.7968 21.152C40.7968 21.824 40.2368 22.314 39.2008 22.314C38.2768 22.314 37.4228 21.866 36.9748 21.348L36.4288 22.104C37.1148 22.832 38.0528 23.168 39.1588 23.168ZM44.0846 17.68C44.5046 17.68 44.8546 17.33 44.8546 16.91C44.8546 16.49 44.5046 16.14 44.0846 16.14C43.6646 16.14 43.3146 16.49 43.3146 16.91C43.3146 17.33 43.6646 17.68 44.0846 17.68ZM44.0846 23.14C44.5046 23.14 44.8546 22.79 44.8546 22.37C44.8546 21.95 44.5046 21.6 44.0846 21.6C43.6646 21.6 43.3146 21.95 43.3146 22.37C43.3146 22.79 43.6646 23.14 44.0846 23.14ZM46.5272 23.28L49.8452 13.382H49.0192L45.7012 23.28H46.5272ZM50.6698 23.28L53.9878 13.382H53.1618L49.8438 23.28H50.6698Z" fill="#C5D7FB"/>
</svg>
