<svg width="164" height="45" viewBox="0 0 164 45" fill="none" xmlns="http://www.w3.org/2000/svg">
<path d="M72.24 32H62.13V11.99H71.97C73.75 11.99 75.14 12.48 76.14 13.46C77.16 14.42 77.67 15.63 77.67 17.09C77.67 18.29 77.33 19.31 76.65 20.15C75.99 20.97 75.17 21.48 74.19 21.68C75.27 21.84 76.18 22.4 76.92 23.36C77.68 24.3 78.06 25.38 78.06 26.6C78.06 28.2 77.54 29.5 76.5 30.5C75.48 31.5 74.06 32 72.24 32ZM71.25 20.27C72.13 20.27 72.82 20.03 73.32 19.55C73.82 19.07 74.07 18.45 74.07 17.69C74.07 16.91 73.82 16.28 73.32 15.8C72.82 15.32 72.13 15.08 71.25 15.08H65.64V20.27H71.25ZM71.4 28.91C72.36 28.91 73.11 28.67 73.65 28.19C74.19 27.69 74.46 27 74.46 26.12C74.46 25.34 74.19 24.69 73.65 24.17C73.11 23.63 72.36 23.36 71.4 23.36H65.64V28.91H71.4ZM93.4931 32H90.3431V30.44C89.2231 31.72 87.6631 32.36 85.6631 32.36C84.3431 32.36 83.1731 31.94 82.1531 31.1C81.1331 30.24 80.6231 29.06 80.6231 27.56C80.6231 26.02 81.1231 24.85 82.1231 24.05C83.1431 23.25 84.3231 22.85 85.6631 22.85C87.7231 22.85 89.2831 23.47 90.3431 24.71V22.55C90.3431 21.71 90.0331 21.05 89.4131 20.57C88.7931 20.09 87.9731 19.85 86.9531 19.85C85.3331 19.85 83.9031 20.46 82.6631 21.68L81.3731 19.49C83.0131 17.93 85.0431 17.15 87.4631 17.15C89.2431 17.15 90.6931 17.57 91.8131 18.41C92.9331 19.25 93.4931 20.58 93.4931 22.4V32ZM86.8931 30.2C88.4731 30.2 89.6231 29.7 90.3431 28.7V26.51C89.6231 25.51 88.4731 25.01 86.8931 25.01C85.9931 25.01 85.2531 25.25 84.6731 25.73C84.0931 26.21 83.8031 26.84 83.8031 27.62C83.8031 28.4 84.0931 29.03 84.6731 29.51C85.2531 29.97 85.9931 30.2 86.8931 30.2ZM110.507 32H107.357V22.94C107.357 20.94 106.387 19.94 104.447 19.94C103.687 19.94 102.977 20.13 102.317 20.51C101.657 20.89 101.127 21.35 100.727 21.89V32H97.5771V17.51H100.727V19.49C101.267 18.85 101.987 18.3 102.887 17.84C103.787 17.38 104.767 17.15 105.827 17.15C107.367 17.15 108.527 17.55 109.307 18.35C110.107 19.15 110.507 20.3 110.507 21.8V32ZM126.599 32H123.449V30.44C122.329 31.72 120.769 32.36 118.769 32.36C117.449 32.36 116.279 31.94 115.259 31.1C114.239 30.24 113.729 29.06 113.729 27.56C113.729 26.02 114.229 24.85 115.229 24.05C116.249 23.25 117.429 22.85 118.769 22.85C120.829 22.85 122.389 23.47 123.449 24.71V22.55C123.449 21.71 123.139 21.05 122.519 20.57C121.899 20.09 121.079 19.85 120.059 19.85C118.439 19.85 117.009 20.46 115.769 21.68L114.479 19.49C116.119 17.93 118.149 17.15 120.569 17.15C122.349 17.15 123.799 17.57 124.919 18.41C126.039 19.25 126.599 20.58 126.599 22.4V32ZM119.999 30.2C121.579 30.2 122.729 29.7 123.449 28.7V26.51C122.729 25.51 121.579 25.01 119.999 25.01C119.099 25.01 118.359 25.25 117.779 25.73C117.199 26.21 116.909 26.84 116.909 27.62C116.909 28.4 117.199 29.03 117.779 29.51C118.359 29.97 119.099 30.2 119.999 30.2ZM133.833 27.65C134.173 28.19 134.693 28.65 135.393 29.03C136.113 29.39 136.833 29.57 137.553 29.57C138.793 29.57 139.783 29.13 140.523 28.25C141.283 27.35 141.663 26.19 141.663 24.77C141.663 23.35 141.283 22.19 140.523 21.29C139.783 20.39 138.793 19.94 137.553 19.94C136.833 19.94 136.123 20.13 135.423 20.51C134.723 20.89 134.193 21.36 133.833 21.92V27.65ZM133.833 32H130.683V11.99H133.833V19.52C135.013 17.94 136.563 17.15 138.483 17.15C140.363 17.15 141.903 17.85 143.103 19.25C144.303 20.63 144.903 22.47 144.903 24.77C144.903 27.11 144.303 28.96 143.103 30.32C141.903 31.68 140.363 32.36 138.483 32.36C136.583 32.36 135.033 31.58 133.833 30.02V32ZM154.654 32.36C152.414 32.36 150.614 31.63 149.254 30.17C147.894 28.69 147.214 26.88 147.214 24.74C147.214 22.6 147.894 20.8 149.254 19.34C150.614 17.88 152.414 17.15 154.654 17.15C156.914 17.15 158.724 17.88 160.084 19.34C161.444 20.8 162.124 22.6 162.124 24.74C162.124 26.9 161.444 28.71 160.084 30.17C158.724 31.63 156.914 32.36 154.654 32.36ZM154.654 29.57C155.954 29.57 156.974 29.11 157.714 28.19C158.474 27.25 158.854 26.1 158.854 24.74C158.854 23.4 158.474 22.27 157.714 21.35C156.974 20.41 155.954 19.94 154.654 19.94C153.374 19.94 152.354 20.41 151.594 21.35C150.854 22.27 150.484 23.4 150.484 24.74C150.484 26.1 150.854 27.25 151.594 28.19C152.354 29.11 153.374 29.57 154.654 29.57Z" fill="white"/>
<path d="M32.3691 28.942C32.3535 29.0041 32.3613 29.073 32.3933 29.1293C32.4224 29.1798 32.4807 29.2274 32.538 29.241C32.6632 29.2691 32.8039 29.2031 32.8369 29.0711C32.8641 28.9595 32.9 28.8517 32.9427 28.7449C32.9845 28.6488 33.032 28.5556 33.0864 28.4663C33.1524 28.3576 33.1136 28.1945 32.999 28.1344C32.8816 28.0722 32.737 28.1052 32.6671 28.2217C32.5331 28.444 32.4302 28.6896 32.3691 28.942Z" fill="white"/>
<path d="M37.4184 30.5363C37.4094 30.5324 37.4005 30.5294 37.3955 30.5244C37.3945 30.5244 37.3945 30.5244 37.3936 30.5244C37.4025 30.5353 37.4154 30.5383 37.4184 30.5363Z" fill="white"/>
<path d="M37.5349 30.6327C37.5349 30.6327 37.5339 30.6316 37.5339 30.6306C37.5289 30.6256 37.5218 30.6174 37.5167 30.6104C37.5157 30.6144 37.5228 30.6276 37.5349 30.6327Z" fill="white"/>
<path d="M37.3369 30.5069C37.3349 30.5069 37.3339 30.5059 37.3319 30.5059C37.325 30.5059 37.319 30.5049 37.3131 30.5039C37.3071 30.5059 37.319 30.5109 37.3369 30.5069Z" fill="white"/>
<path d="M37.3115 31.1291C37.3196 31.1281 37.3267 31.1281 37.3328 31.1281C37.3328 31.1281 37.3328 31.1281 37.3338 31.1281C37.3237 31.126 37.3156 31.127 37.3115 31.1291Z" fill="white"/>
<path d="M36.9727 30.7607C36.9717 30.7697 36.9708 30.7796 36.9678 30.7865C36.9678 30.7875 36.9678 30.7875 36.9678 30.7885C36.9757 30.7756 36.9757 30.7607 36.9727 30.7607Z" fill="white"/>
<path d="M15.9145 25.454C15.9082 25.4487 15.9018 25.4444 15.8965 25.4434C15.9039 25.4465 15.9103 25.4497 15.9145 25.454Z" fill="white"/>
<path d="M16.3022 25.1596C16.3012 25.1526 16.3012 25.1457 16.3012 25.1387C16.3012 25.1377 16.3002 25.1358 16.3002 25.1348C16.2992 25.1487 16.3002 25.1576 16.3022 25.1596Z" fill="white"/>
<path d="M16.2105 25.4043C16.1723 25.4234 16.1914 25.4213 16.2105 25.4043V25.4043Z" fill="white"/>
<path d="M15.8043 24.9941C15.7979 25.0016 15.7915 25.0079 15.7852 25.0132C15.7958 25.0058 15.8021 24.9984 15.8043 24.9941Z" fill="white"/>
<path d="M15.7285 25.1519C15.7414 25.1043 15.7305 25.1301 15.7285 25.1519V25.1519Z" fill="white"/>
<path d="M15.7852 25.3564C15.7894 25.3585 15.7925 25.3617 15.7967 25.3659C15.7936 25.3627 15.7894 25.3596 15.7852 25.3564Z" fill="white"/>
<path d="M16.0464 25.4727C16.0523 25.4717 16.0583 25.4717 16.0652 25.4707C16.0672 25.4707 16.0682 25.4697 16.0692 25.4697C16.0464 25.4667 16.0375 25.4717 16.0464 25.4727Z" fill="white"/>
<path d="M8.42867 26.1217L8.42865 26.1217C8.02488 25.8106 7.47106 25.7837 6.98922 25.9178C6.44702 26.0693 5.97449 26.408 5.57296 26.8124C5.16732 27.2218 4.82749 27.6897 4.48524 28.1609C4.45007 28.2093 4.41487 28.2578 4.37957 28.3062C4.00176 28.8247 3.61298 29.3396 3.12551 29.7675L8.42867 26.1217ZM8.42867 26.1217C8.75649 26.3739 8.88747 26.7739 8.9206 27.1923C8.22363 26.9027 7.40181 27.0514 6.82746 27.5784M8.42867 26.1217L7.25719 28.0243M7.25719 28.0243L7.25715 28.0243C7.13734 28.1341 6.94964 28.1501 6.8254 28.0223C6.76836 27.9637 6.73854 27.8816 6.7372 27.8014C6.73587 27.721 6.7632 27.6372 6.82746 27.5784M7.25719 28.0243C7.76353 27.5595 8.50133 27.5622 9.03617 27.9765L7.25719 28.0243ZM6.82746 27.5784L6.86124 27.6152L6.82743 27.5784C6.82744 27.5784 6.82745 27.5784 6.82746 27.5784ZM7.35547 25.2225L7.35551 25.2225C7.9679 25.1743 8.64852 25.3785 9.06038 25.8788C9.48236 26.3905 9.57643 27.0778 9.52896 27.7156L7.35547 25.2225ZM7.35547 25.2225C5.93067 25.336 4.95178 26.4841 4.16515 27.5616L7.35547 25.2225Z" fill="white" stroke="white" stroke-width="0.1"/>
<mask id="path-16-outside-1_2070_504" maskUnits="userSpaceOnUse" x="1" y="15" width="42" height="24" fill="black">
<rect fill="white" x="1" y="15" width="42" height="24"/>
<path d="M41.862 31.1654C40.9505 32.1223 39.7249 32.7848 38.4278 32.9583C37.7669 33.0466 37.0692 32.9836 36.5066 32.5903C36.2713 32.4252 36.0769 32.2022 35.9501 31.9404C35.7997 31.6281 35.7823 31.2653 35.8089 30.9236C35.8662 30.1854 36.1588 29.5019 36.5097 28.8636C37.0406 29.1885 37.7332 29.178 38.2242 28.7542C38.4779 28.5355 38.6549 28.2063 38.7019 27.8698C38.7071 27.8341 38.7091 27.7994 38.7111 27.7636C38.8042 27.3567 39.1275 27.0202 39.5306 26.9655C39.8988 26.915 40.3428 27.0812 40.5525 27.4145C40.5638 27.4366 40.5781 27.4566 40.5945 27.4745C40.6303 27.5176 40.6743 27.5428 40.7193 27.5533C40.7418 27.5607 40.7643 27.5649 40.7868 27.5649C40.8758 27.5649 40.9413 27.5228 40.9853 27.4597C41.0262 27.4124 41.0497 27.3514 41.0446 27.2841C41.1142 26.7047 41.1561 26.0885 40.8584 25.5638C40.662 25.2168 40.2917 24.9402 39.8968 24.8929C39.8917 24.5122 39.6717 24.1473 39.3577 23.9391C39.0047 23.7057 38.5659 23.6699 38.1618 23.7614C38.1096 23.5122 37.9981 23.283 37.7935 23.0979C37.5234 22.8539 37.1654 22.7698 36.8155 22.8445C36.612 22.8886 36.391 22.9696 36.214 23.1C35.6933 22.6773 35.0191 22.5017 34.3583 22.6152C33.7435 22.7204 33.1849 23.1042 32.831 23.6289C32.2755 23.4365 31.6699 23.4239 31.1031 23.5753C30.519 23.7309 29.9911 24.0485 29.5175 24.4271C28.5323 25.2147 27.8367 26.3156 26.8546 27.1043C26.3339 27.5218 25.7334 27.8709 25.0848 28.0171C24.4864 28.0391 23.89 28.1632 23.3273 28.3672C22.5887 28.6354 21.9094 29.0371 21.2844 29.5176C19.6701 29.6932 17.8983 29.6407 16.465 28.7731C15.7172 28.321 15.0717 27.6301 14.7679 26.7846C14.4283 25.8403 14.417 24.7341 14.6901 23.7698C14.8436 23.2293 15.1157 22.7498 15.5157 22.3639C15.9085 21.9843 16.3924 21.7109 16.8988 21.5279C16.9029 21.5269 16.907 21.5237 16.9111 21.5227C17.2435 21.4859 17.5791 21.4417 17.8451 21.2114C17.8502 21.2072 17.8543 21.2019 17.8594 21.1977C18.0804 21.3155 18.2277 21.5679 18.2461 21.8455C18.2727 22.243 18.0988 22.6005 17.8758 22.9139C17.7939 23.0285 17.8573 23.2073 17.9678 23.2735C18.0047 23.2956 18.0415 23.3061 18.0783 23.3082C18.1141 23.3156 18.1509 23.3145 18.1867 23.2998C18.8834 23.0316 19.6322 22.6678 20.1131 22.0621C20.3494 21.7645 20.4793 21.4144 20.4619 21.0263C20.4476 20.7151 20.3586 20.4112 20.2205 20.1336C20.5059 19.8307 20.6563 19.3985 20.4987 18.9821C20.4067 18.7403 20.2389 18.5499 20.0077 18.4406C19.8532 18.3669 19.6865 18.3217 19.5177 18.306C19.5187 18.1903 19.5136 18.0757 19.4931 17.96C19.4573 17.7581 19.3581 17.5678 19.2169 17.4237C18.9765 17.1787 18.6348 17.0788 18.3054 17.1198C18.2 16.8317 18.0231 16.5888 17.7632 16.4111C17.4195 16.1755 16.998 16.063 16.5909 16.0167C16.1878 15.9715 15.7796 16.0146 15.4083 16.1871C15.0922 16.3332 14.7945 16.5499 14.5469 16.8001C14.5377 16.8001 14.5285 16.8001 14.5203 16.8001C13.8513 16.8001 13.1771 16.8674 12.5265 17.0283C11.3623 17.3175 10.2698 17.9379 9.50867 18.9011C9.06878 19.4585 8.72914 20.0831 8.39462 20.7109C8.39462 20.7119 8.39462 20.7119 8.3936 20.713C7.54963 20.979 6.7834 21.5384 6.18086 22.1904C5.22333 23.2262 4.5727 24.5007 3.72873 25.6269C3.27248 26.2357 2.74972 26.8046 2.11853 27.2221C1.84232 27.4051 2.0991 27.8604 2.37633 27.6764C3.51697 26.9213 4.29547 25.7625 5.03612 24.6226C5.77166 23.4912 6.53277 22.3019 7.70103 21.5984C8.32199 21.224 9.02479 21.0148 9.74702 21.0873C9.88513 21.101 10.0028 20.9569 10.0028 20.8244C10.0028 20.6709 9.88513 20.5752 9.74702 20.5615C9.51378 20.5374 9.28258 20.5426 9.05548 20.5689C9.53629 19.694 10.0744 18.8601 10.9122 18.2965C11.882 17.6435 13.036 17.3711 14.1827 17.3301C14.8375 17.307 15.5505 17.308 16.1622 17.5825C16.2891 17.6393 16.4364 17.6203 16.5121 17.4879C16.5755 17.3764 16.5479 17.185 16.42 17.1282C16.0651 16.9684 15.6927 16.8832 15.3132 16.839C15.4042 16.7791 15.4963 16.7223 15.5935 16.6729C15.8748 16.5309 16.1878 16.5067 16.4957 16.5309C16.8159 16.5562 17.1515 16.6466 17.4297 16.8149C17.6885 16.9715 17.8154 17.1987 17.8798 17.4952C17.9034 17.6046 17.974 17.6614 18.0538 17.6782C18.0977 17.694 18.1458 17.6961 18.1939 17.6792C18.2318 17.6656 18.2696 17.654 18.3085 17.6456C18.3249 17.6414 18.3494 17.6319 18.3668 17.634C18.332 17.6382 18.3289 17.6393 18.3576 17.6351C18.3678 17.634 18.377 17.633 18.3873 17.633C18.4272 17.6298 18.467 17.6298 18.5059 17.633C18.5121 17.633 18.5448 17.6382 18.5509 17.6382C18.5612 17.6403 18.5724 17.6424 18.5745 17.6435C18.5888 17.6466 18.688 17.6656 18.6921 17.6803C18.6819 17.6761 18.6727 17.6719 18.6624 17.6677C18.6727 17.6719 18.6829 17.6771 18.6931 17.6824C18.7085 17.6897 18.7238 17.6982 18.7381 17.7076C18.7525 17.7171 18.7678 17.7255 18.7821 17.735C18.7872 17.7381 18.7913 17.7413 18.7965 17.7444C18.819 17.7613 18.8149 17.7581 18.7862 17.735C18.8108 17.7423 18.8445 17.7865 18.8619 17.8054C18.8742 17.818 18.8844 17.8317 18.8967 17.8443C18.8977 17.8454 18.8977 17.8454 18.8977 17.8464C18.9161 17.8759 18.9335 17.9064 18.9499 17.9369C18.952 17.94 18.953 17.9411 18.954 17.9432C18.954 17.9442 18.954 17.9442 18.954 17.9442C18.9601 17.9632 18.9673 17.981 18.9724 18C18.9837 18.0378 18.9908 18.0767 18.998 18.1156C18.998 18.1167 18.998 18.1167 18.998 18.1177C18.998 18.1198 18.998 18.1209 18.998 18.1251C18.999 18.1451 19.0011 18.1651 19.0021 18.185C19.0041 18.225 19.0041 18.266 19.0031 18.306C19.0021 18.3743 18.997 18.4437 18.9918 18.5121C18.9888 18.5299 18.9867 18.5489 18.9878 18.5678C18.9816 18.6404 19.0174 18.7098 19.0706 18.7592C19.1156 18.8076 19.175 18.838 19.2435 18.8307C19.3346 18.8212 19.4246 18.8212 19.5156 18.8307C19.5248 18.8328 19.5473 18.8359 19.5545 18.837C19.578 18.8423 19.6016 18.8475 19.6251 18.8538C19.667 18.8654 19.7079 18.8801 19.7489 18.8948C19.7581 18.899 19.7663 18.9032 19.7755 18.9074C19.7969 18.918 19.8174 18.9295 19.8368 18.9422C19.8532 18.9527 19.8696 18.9632 19.8859 18.9737C19.889 18.9758 19.8911 18.9769 19.8931 18.9779C19.8952 18.98 19.8962 18.9821 19.9003 18.9863C19.9146 19.0021 19.9299 19.0168 19.9443 19.0326C19.9473 19.0357 19.9494 19.0378 19.9514 19.0399C19.9524 19.042 19.9535 19.0442 19.9565 19.0484C19.976 19.0799 19.9944 19.1125 20.0097 19.1462C20.0118 19.1525 20.0179 19.1693 20.021 19.1809C20.0271 19.2019 20.0322 19.2229 20.0374 19.2439C20.0384 19.2482 20.0404 19.265 20.0425 19.2765C20.0435 19.2902 20.0445 19.3112 20.0445 19.3155C20.0455 19.3375 20.0445 19.3596 20.0435 19.3806C20.0435 19.388 20.0425 19.3943 20.0425 19.3985C20.0353 19.4395 20.0251 19.4805 20.0118 19.5205C20.0077 19.5331 19.9944 19.5615 19.9964 19.5584C19.9893 19.5731 19.9821 19.5889 19.9739 19.6036C19.9627 19.6236 19.9514 19.6435 19.9391 19.6625C19.9371 19.6656 19.9218 19.6866 19.9156 19.6951C19.89 19.7266 19.8634 19.7571 19.8338 19.7855C19.8205 19.7992 19.8051 19.8107 19.7918 19.8244C19.7888 19.8276 19.7857 19.8297 19.7847 19.8307C19.7775 19.836 19.7703 19.8412 19.7632 19.8465C19.7386 19.8644 19.7182 19.8854 19.6987 19.9096C19.6404 19.9727 19.6118 20.0621 19.6476 20.1577C19.6537 20.1746 19.6609 20.1903 19.6711 20.2061C19.8195 20.4511 19.932 20.7298 19.9453 21.0211C19.9586 21.3187 19.8594 21.5668 19.6619 21.7845C19.3796 22.0958 19.0256 22.3313 18.6512 22.5206C18.7392 22.2588 18.776 21.9811 18.7371 21.6972C18.6829 21.3071 18.466 20.9548 18.1428 20.7571C18.2093 20.5815 18.2399 20.3891 18.2379 20.2061C18.2297 19.4269 17.7182 18.7034 16.9817 18.4952C16.6349 18.3974 16.2451 18.4153 15.8942 18.5215C15.84 18.4343 15.7674 18.3575 15.6763 18.2923C15.5085 18.1724 15.305 18.1188 15.1045 18.0988C14.7924 18.0694 14.4815 18.1577 14.2185 18.3259C13.9301 18.0914 13.5515 17.9684 13.1843 18.0136C12.7413 18.0694 12.3465 18.3291 12.1163 18.7234C12.0447 18.8454 12.0897 19.0116 12.2084 19.0831C12.3291 19.1556 12.4866 19.1104 12.5582 18.9884C12.6257 18.8717 12.7321 18.7571 12.8375 18.6866C12.8723 18.6635 12.9081 18.6414 12.9459 18.6225C12.9603 18.6151 12.9756 18.6078 12.9899 18.6004C12.994 18.5983 13.0073 18.593 13.0114 18.592C13.0503 18.5783 13.0902 18.5646 13.1301 18.5541C13.1485 18.5499 13.1659 18.5457 13.1843 18.5415C13.1884 18.5405 13.215 18.5362 13.2221 18.5352C13.3868 18.5163 13.4973 18.5341 13.6487 18.5878C13.7766 18.634 13.9024 18.7224 14.0078 18.8359C14.0559 18.8885 14.1234 18.9127 14.1909 18.9117C14.2605 18.9159 14.3301 18.8917 14.3894 18.8391C14.3996 18.8307 14.4098 18.8212 14.4201 18.8128C14.4231 18.8107 14.4303 18.8054 14.4354 18.8023C14.463 18.7834 14.4907 18.7644 14.5193 18.7476C14.551 18.7287 14.5848 18.7119 14.6185 18.6961C14.6196 18.6961 14.6196 18.6961 14.6196 18.695C14.6216 18.694 14.6226 18.694 14.6257 18.6929C14.641 18.6866 14.6564 18.6814 14.6728 18.6761C14.7362 18.654 14.7996 18.6414 14.8651 18.6267C14.8661 18.6267 14.8661 18.6267 14.8681 18.6256C14.8692 18.6256 14.8702 18.6256 14.8712 18.6256C14.8876 18.6246 14.904 18.6225 14.9203 18.6214C14.9571 18.6193 14.995 18.6183 15.0318 18.6193C15.0605 18.6204 15.0891 18.6225 15.1178 18.6256C15.1198 18.6267 15.172 18.6361 15.1843 18.6393C15.217 18.6477 15.2487 18.6572 15.2804 18.6687C15.2866 18.6709 15.2947 18.674 15.2988 18.6751C15.3111 18.6803 15.3234 18.6866 15.3346 18.6929C15.3612 18.7066 15.3858 18.7234 15.4103 18.7403C15.4155 18.7445 15.4247 18.7529 15.4308 18.7581C15.442 18.7686 15.4523 18.7802 15.4625 18.7928C15.4625 18.7928 15.4625 18.7928 15.4635 18.7939C15.4646 18.7949 15.4646 18.7949 15.4656 18.797C15.4738 18.8107 15.4799 18.8254 15.4891 18.838C15.4891 18.838 15.4891 18.838 15.4901 18.8391C15.4901 18.8401 15.4901 18.8402 15.4901 18.8402C15.4922 18.8507 15.5045 18.9043 15.4973 18.8507C15.5004 18.878 15.5075 18.9043 15.5167 18.9306C15.5177 18.9348 15.5198 18.939 15.5208 18.9432C15.5229 18.9495 15.5259 18.9558 15.529 18.9611C15.5321 18.9684 15.5341 18.9758 15.5382 18.9821C15.5392 18.9842 15.5413 18.9863 15.5433 18.9895C15.5863 19.0652 15.6569 19.1188 15.7541 19.1146C15.7807 19.1136 15.8093 19.1062 15.8359 19.0957C15.8533 19.0904 15.8707 19.0841 15.8881 19.0768C16.2072 18.9285 16.6451 18.9127 16.9714 19.0463C17.2701 19.1682 17.5095 19.4227 17.6313 19.7266C17.7499 20.0231 17.7827 20.3922 17.6169 20.6772C17.5597 20.7761 17.4563 20.8718 17.3182 20.918C17.1586 20.9716 16.9929 20.9853 16.8272 21.0032C16.7893 21.0074 16.7535 21.0179 16.7208 21.0337C15.7275 21.4017 14.819 22.08 14.3843 23.0968C13.9515 24.1084 13.883 25.324 14.1214 26.3977C14.3526 27.4398 14.9643 28.3136 15.7929 28.9456C16.5213 29.4998 17.4011 29.8226 18.289 29.9793C19.0491 30.1139 19.8205 30.1412 20.5877 30.0981C20.5049 30.1738 20.422 30.2506 20.3412 30.3284C20.0261 30.6323 19.7284 30.953 19.4399 31.2821C17.8287 31.0908 16.2686 30.4335 15.0032 29.3883C14.6329 29.0823 14.2881 28.7458 13.9679 28.3851C13.7459 28.1348 13.3848 28.5071 13.6058 28.7574C14.7832 30.0855 16.3167 31.0603 18.0047 31.5324C18.3453 31.6281 18.6901 31.6996 19.0389 31.7543C18.82 32.0182 18.6062 32.2853 18.3944 32.5556C18.2369 32.6523 18.0732 32.7396 17.9064 32.8174C17.2599 32.7564 16.6359 32.5556 16.0569 32.2454C15.3766 31.8815 14.727 31.4188 14.148 30.9015C13.5833 30.3967 13.084 29.8152 12.728 29.1349C12.3546 28.4198 12.1552 27.6164 12.0631 26.8141C11.9547 25.8635 11.9731 24.9034 11.9966 23.9486C12.0048 23.61 11.4933 23.61 11.4851 23.9486C11.4421 25.6952 11.4206 27.5207 12.1582 29.137C12.8436 30.6386 14.1909 31.7606 15.5658 32.5671C15.9945 32.8185 16.4456 33.0193 16.9141 33.1571C16.2226 33.3158 15.4983 33.3306 14.7976 33.2002C13.9884 33.0509 13.2385 32.7312 12.5521 32.2937C12.5449 32.2832 12.5388 32.2727 12.5296 32.2622C11.7142 31.3263 11.1536 30.1822 10.8928 28.9561C10.8222 28.6259 10.3291 28.7658 10.3997 29.096C10.5542 29.8236 10.813 30.5219 11.1598 31.1717C10.7076 30.7343 10.2831 30.2684 9.8616 29.8005C9.63756 29.5523 9.27644 29.9246 9.49946 30.1727C10.4263 31.1991 11.3787 32.2422 12.5817 32.931C13.7674 33.6103 15.1515 33.9447 16.5039 33.7628C16.9019 33.7091 17.2916 33.6145 17.6681 33.4799C17.3264 33.9131 16.9817 34.3432 16.6185 34.7586C16.2349 35.1971 15.8318 35.6429 15.3132 35.9132C14.7208 36.2202 14.0272 36.1887 13.4042 36.0026C12.7332 35.8017 12.1429 35.4053 11.5506 35.0362C11.4749 34.9889 11.4002 34.9878 11.3378 35.0152C10.7086 35.2486 9.99766 35.2381 9.35215 35.0772C8.71482 34.9184 8.17877 34.4589 7.72047 33.9983C7.68875 33.9668 7.65499 33.9468 7.62124 33.9352C7.5752 33.9152 7.51996 33.91 7.45653 33.931C7.23045 34.0046 6.98595 33.972 6.77829 33.8542C6.54402 33.7217 6.40898 33.4957 6.34249 33.2338C6.17983 32.5913 6.47548 31.952 6.78238 31.4094C6.88672 31.2243 6.74862 31.0508 6.59108 31.0214C6.52765 30.993 6.45195 30.9888 6.37318 31.0298C6.143 31.1496 5.81462 31.2432 5.55785 31.1612C5.31745 31.0834 5.34916 30.7164 5.38906 30.5177C5.45248 30.2075 5.60388 29.9319 5.76245 29.6627C5.94966 29.3473 6.14096 29.0339 6.33124 28.7195C6.50515 28.4314 6.06321 28.1664 5.8893 28.4545C5.66424 28.8289 5.42793 29.198 5.21617 29.5797C5.01464 29.9425 4.84789 30.3484 4.85403 30.7732C4.85914 31.1812 5.04431 31.5808 5.46067 31.6786C5.65913 31.7248 5.8668 31.7206 6.06935 31.6828C5.81871 32.2548 5.67856 32.8837 5.88521 33.4946C6.00695 33.8532 6.23201 34.1644 6.56857 34.3348C6.75271 34.4284 6.95424 34.4841 7.15884 34.4936C7.13634 34.5356 7.11383 34.5777 7.08825 34.6187C7.07905 34.6334 6.98698 34.7817 6.97368 34.7912C6.98084 34.7828 7.0013 34.7544 6.97163 34.7933C6.9614 34.8059 6.95219 34.8185 6.94197 34.8301C6.92048 34.8574 6.89695 34.8837 6.87445 34.91C6.78647 35.0099 6.69031 35.0993 6.58903 35.1845C6.58801 35.1845 6.58801 35.1855 6.58801 35.1855C6.57266 35.1971 6.55834 35.2086 6.543 35.2192C6.51742 35.2381 6.49185 35.256 6.46525 35.2728C6.40796 35.3117 6.34863 35.3474 6.28827 35.38C6.17063 35.4452 6.12357 35.623 6.1962 35.7397C6.27395 35.8627 6.42024 35.9037 6.54607 35.8343C7.02994 35.5683 7.40845 35.1498 7.65295 34.6513C8.10716 35.0677 8.62786 35.4368 9.21813 35.584C9.76646 35.7207 10.367 35.767 10.9337 35.6682C10.3905 36.6219 9.58641 37.3864 8.79666 38.1309C8.55319 38.3601 8.91635 38.7313 9.1588 38.5032C10.058 37.6567 10.9797 36.7723 11.5332 35.6398C11.9945 35.9269 12.459 36.2097 12.9664 36.4064C13.5618 36.6367 14.2134 36.7344 14.8436 36.623C15.4369 36.5178 15.9495 36.1803 16.3863 35.767C16.8507 35.3285 17.2579 34.8206 17.6599 34.3222C17.932 33.9846 18.2011 33.6387 18.4711 33.2917C18.4793 33.2832 18.4855 33.2738 18.4916 33.2654C19.7489 31.6533 21.0532 30.0203 22.8905 29.117C24.0721 28.5365 25.4644 28.3367 26.7165 28.7868C26.8464 28.8341 26.9958 28.7332 27.0316 28.6028C27.0705 28.4577 26.9835 28.3262 26.8526 28.2789C26.6633 28.2105 26.471 28.158 26.2756 28.117C27.0009 27.7205 27.6311 27.1327 28.1876 26.5218C28.9835 25.6458 29.7732 24.6321 30.8965 24.1936C31.5297 23.9454 32.2059 23.9276 32.8391 24.1884C32.8739 24.2031 32.9097 24.2041 32.9445 24.1978C33.0253 24.202 33.1072 24.1652 33.1604 24.0706C33.4345 23.5763 33.9092 23.2304 34.4534 23.1284C35.0151 23.0222 35.6104 23.2188 36.0196 23.6226C36.0227 23.6258 36.0258 23.6279 36.0288 23.63C36.0309 23.6331 36.0329 23.6352 36.036 23.6384C36.126 23.7309 36.3112 23.7499 36.3981 23.6384C36.4166 23.6142 36.436 23.5921 36.4575 23.5711C36.4667 23.5616 36.4759 23.5532 36.4861 23.5448C36.4718 23.5553 36.4718 23.5553 36.4861 23.5448C36.5342 23.5091 36.5864 23.4817 36.6385 23.4533C36.6651 23.4386 36.705 23.4239 36.7562 23.406C36.8063 23.3892 36.8575 23.3734 36.9086 23.3608C37.1071 23.3114 37.328 23.3639 37.4672 23.508C37.4764 23.5175 37.5142 23.5606 37.5101 23.5543C37.5091 23.5522 37.5439 23.6037 37.5531 23.6184C37.5674 23.6426 37.5807 23.6668 37.593 23.692C37.5951 23.6962 37.6124 23.7362 37.6155 23.7414C37.635 23.7909 37.6503 23.8434 37.6626 23.895C37.6687 23.9223 37.6738 23.9507 37.68 23.978C37.682 23.9917 37.683 24.0001 37.6841 24.0033C37.6851 24.0138 37.6861 24.0243 37.6871 24.0338C37.7127 24.3366 37.6472 24.6321 37.5828 24.9255C37.5521 25.0643 37.6237 25.2105 37.7618 25.2494C37.8907 25.2862 38.0462 25.2052 38.0769 25.0653C38.1301 24.8235 38.1802 24.5574 38.1935 24.2935C38.2467 24.2788 38.2999 24.2651 38.3551 24.2535C38.3643 24.2514 38.3736 24.2504 38.3828 24.2483C38.3664 24.2504 38.3674 24.2493 38.3848 24.2483C38.4083 24.2451 38.4319 24.243 38.4554 24.242C38.5035 24.2388 38.5516 24.2378 38.5996 24.2399C38.6293 24.2409 38.659 24.243 38.6876 24.2462C38.6968 24.2472 38.705 24.2483 38.7142 24.2493C38.7152 24.2493 38.7152 24.2493 38.7163 24.2493C38.7613 24.2567 38.8063 24.2672 38.8503 24.2798C38.8871 24.2904 38.9229 24.303 38.9577 24.3177C38.9669 24.3219 38.9976 24.3366 38.9986 24.3377C39.017 24.3471 39.0354 24.3577 39.0528 24.3682C39.0712 24.3787 39.0886 24.3903 39.106 24.4018C39.1091 24.4039 39.1296 24.4197 39.1398 24.4271C39.149 24.4355 39.1694 24.4523 39.1715 24.4544C39.1899 24.4712 39.2073 24.4891 39.2247 24.508C39.2267 24.5101 39.2421 24.528 39.2513 24.5385C39.2574 24.5469 39.2758 24.5722 39.2779 24.5753C39.2912 24.5964 39.3045 24.6184 39.3157 24.6416C39.3178 24.6447 39.328 24.6679 39.3341 24.6794C39.3382 24.691 39.3485 24.7173 39.3495 24.7204C39.3577 24.7446 39.3638 24.7699 39.37 24.7951C39.372 24.8067 39.374 24.8172 39.3761 24.8287C39.374 24.8245 39.3802 24.8729 39.3802 24.8771C39.3812 24.8982 39.3812 24.9192 39.3802 24.9402C39.3802 24.9497 39.3781 24.9655 39.3781 24.9718C39.37 25.018 39.3577 25.0622 39.3413 25.1053C39.3024 25.2105 39.3628 25.3388 39.4549 25.3987C39.4559 25.3997 39.4569 25.3997 39.4579 25.4008C39.4671 25.4061 39.4763 25.4113 39.4855 25.4155C39.5336 25.4387 39.5909 25.4471 39.6564 25.4281C39.7198 25.4103 39.7935 25.4061 39.86 25.4208C39.9531 25.4408 40.0267 25.4702 40.1055 25.5165C40.262 25.609 40.3786 25.7457 40.4594 25.9213C40.574 26.1695 40.5965 26.4471 40.5843 26.7237C40.2589 26.4976 39.8456 26.3966 39.4579 26.4492C39.0886 26.4997 38.7582 26.7016 38.525 26.9886C38.4892 26.9266 38.4503 26.8667 38.4053 26.8088C38.2334 26.5901 37.992 26.4208 37.728 26.3419C37.7546 26.2021 37.7526 26.0559 37.724 25.9171C37.6708 25.6542 37.503 25.4355 37.2922 25.2841C36.882 24.9896 36.3327 25.037 35.9143 25.2872C35.8171 25.2241 35.7117 25.1747 35.5992 25.1421C35.0191 24.9728 34.4545 25.2368 33.9614 25.5291C33.676 25.6984 33.9337 26.1527 34.2192 25.9834C34.4176 25.8656 34.6181 25.7499 34.8371 25.6795C35.0294 25.6174 35.2186 25.5911 35.4028 25.6342C35.5675 25.6721 35.7066 25.7404 35.8028 25.8877C35.9132 26.0559 35.9388 26.2568 35.9388 26.4555C35.9398 26.7941 36.4513 26.7941 36.4503 26.4555C36.4503 26.1916 36.4063 25.9161 36.2795 25.6837C36.2836 25.6816 36.2877 25.6795 36.2907 25.6784C36.2928 25.6774 36.2948 25.6763 36.2989 25.6753C36.3501 25.6553 36.4012 25.6384 36.4544 25.6258C36.4738 25.6216 36.4933 25.6174 36.5137 25.6143C36.5189 25.6143 36.5506 25.609 36.5588 25.609C36.6089 25.6058 36.658 25.6069 36.7081 25.6101C36.7132 25.6101 36.7163 25.6101 36.7194 25.6101C36.7214 25.6111 36.7235 25.6111 36.7265 25.6111C36.748 25.6153 36.7695 25.6195 36.79 25.6248C36.8278 25.6342 36.8636 25.6469 36.9004 25.6616C36.9107 25.6658 36.927 25.6742 36.9322 25.6774C36.9547 25.6889 36.9761 25.7026 36.9976 25.7163C37.0007 25.7184 37.0181 25.7299 37.0293 25.7373C37.0365 25.7436 37.0621 25.7646 37.0662 25.7678C37.0825 25.7825 37.0979 25.7983 37.1122 25.8141C37.1173 25.8204 37.1398 25.8488 37.1449 25.854C37.1654 25.8856 37.1838 25.9182 37.2012 25.9518C37.2032 25.955 37.2032 25.956 37.2043 25.9581C37.2053 25.9613 37.2063 25.9655 37.2073 25.9718C37.2135 25.9939 37.2206 26.0139 37.2258 26.0359C37.2268 26.0412 37.2319 26.0706 37.2339 26.078C37.235 26.0927 37.237 26.1064 37.237 26.1211C37.238 26.1432 37.237 26.1653 37.236 26.1884C37.235 26.1989 37.2339 26.2105 37.2319 26.2189C37.2247 26.2515 37.2165 26.283 37.2063 26.3146C37.2022 26.322 37.1879 26.3535 37.1838 26.3609C37.1715 26.3829 37.1572 26.404 37.1419 26.425C37.1061 26.4755 37.0989 26.5407 37.1112 26.6027C37.1122 26.6059 37.1122 26.609 37.1132 26.6122C37.1163 26.6238 37.1194 26.6353 37.1235 26.6469C37.1255 26.6521 37.1265 26.6574 37.1286 26.6616C37.1347 26.6753 37.1419 26.6889 37.149 26.7016C37.149 26.7026 37.15 26.7026 37.15 26.7037C37.1674 26.731 37.1889 26.7541 37.2135 26.771C37.2176 26.7741 37.2217 26.7773 37.2258 26.7804C37.2278 26.7815 37.2298 26.7836 37.2319 26.7846C37.2339 26.7857 37.236 26.7857 37.238 26.7867C37.2749 26.8088 37.3168 26.8225 37.3608 26.8204C37.813 26.7994 38.2221 27.2505 38.2017 27.7111C38.1925 27.914 38.0922 28.1432 37.9429 28.2999C37.7833 28.4692 37.5664 28.5649 37.3403 28.5712C37.0723 28.5786 36.8053 28.484 36.6048 28.2947C36.5393 28.2326 36.4513 28.2084 36.3695 28.2253C36.3255 28.2326 36.2836 28.2547 36.2467 28.2915C36.2457 28.2926 36.2447 28.2936 36.2437 28.2947C36.2437 28.2947 36.2437 28.2957 36.2426 28.2957C36.2355 28.3031 36.2294 28.3125 36.2232 28.321C36.2191 28.3273 36.214 28.3325 36.2099 28.3388C36.2079 28.342 36.2058 28.3441 36.2038 28.3483C35.4713 29.6102 34.6775 31.5934 35.9368 32.7974C37.0928 33.9026 38.8963 33.564 40.2078 32.9709C40.9587 32.6323 41.6431 32.1392 42.217 31.5377C42.4543 31.2948 42.0932 30.9225 41.862 31.1654Z"/>
</mask>
<path d="M41.862 31.1654C40.9505 32.1223 39.7249 32.7848 38.4278 32.9583C37.7669 33.0466 37.0692 32.9836 36.5066 32.5903C36.2713 32.4252 36.0769 32.2022 35.9501 31.9404C35.7997 31.6281 35.7823 31.2653 35.8089 30.9236C35.8662 30.1854 36.1588 29.5019 36.5097 28.8636C37.0406 29.1885 37.7332 29.178 38.2242 28.7542C38.4779 28.5355 38.6549 28.2063 38.7019 27.8698C38.7071 27.8341 38.7091 27.7994 38.7111 27.7636C38.8042 27.3567 39.1275 27.0202 39.5306 26.9655C39.8988 26.915 40.3428 27.0812 40.5525 27.4145C40.5638 27.4366 40.5781 27.4566 40.5945 27.4745C40.6303 27.5176 40.6743 27.5428 40.7193 27.5533C40.7418 27.5607 40.7643 27.5649 40.7868 27.5649C40.8758 27.5649 40.9413 27.5228 40.9853 27.4597C41.0262 27.4124 41.0497 27.3514 41.0446 27.2841C41.1142 26.7047 41.1561 26.0885 40.8584 25.5638C40.662 25.2168 40.2917 24.9402 39.8968 24.8929C39.8917 24.5122 39.6717 24.1473 39.3577 23.9391C39.0047 23.7057 38.5659 23.6699 38.1618 23.7614C38.1096 23.5122 37.9981 23.283 37.7935 23.0979C37.5234 22.8539 37.1654 22.7698 36.8155 22.8445C36.612 22.8886 36.391 22.9696 36.214 23.1C35.6933 22.6773 35.0191 22.5017 34.3583 22.6152C33.7435 22.7204 33.1849 23.1042 32.831 23.6289C32.2755 23.4365 31.6699 23.4239 31.1031 23.5753C30.519 23.7309 29.9911 24.0485 29.5175 24.4271C28.5323 25.2147 27.8367 26.3156 26.8546 27.1043C26.3339 27.5218 25.7334 27.8709 25.0848 28.0171C24.4864 28.0391 23.89 28.1632 23.3273 28.3672C22.5887 28.6354 21.9094 29.0371 21.2844 29.5176C19.6701 29.6932 17.8983 29.6407 16.465 28.7731C15.7172 28.321 15.0717 27.6301 14.7679 26.7846C14.4283 25.8403 14.417 24.7341 14.6901 23.7698C14.8436 23.2293 15.1157 22.7498 15.5157 22.3639C15.9085 21.9843 16.3924 21.7109 16.8988 21.5279C16.9029 21.5269 16.907 21.5237 16.9111 21.5227C17.2435 21.4859 17.5791 21.4417 17.8451 21.2114C17.8502 21.2072 17.8543 21.2019 17.8594 21.1977C18.0804 21.3155 18.2277 21.5679 18.2461 21.8455C18.2727 22.243 18.0988 22.6005 17.8758 22.9139C17.7939 23.0285 17.8573 23.2073 17.9678 23.2735C18.0047 23.2956 18.0415 23.3061 18.0783 23.3082C18.1141 23.3156 18.1509 23.3145 18.1867 23.2998C18.8834 23.0316 19.6322 22.6678 20.1131 22.0621C20.3494 21.7645 20.4793 21.4144 20.4619 21.0263C20.4476 20.7151 20.3586 20.4112 20.2205 20.1336C20.5059 19.8307 20.6563 19.3985 20.4987 18.9821C20.4067 18.7403 20.2389 18.5499 20.0077 18.4406C19.8532 18.3669 19.6865 18.3217 19.5177 18.306C19.5187 18.1903 19.5136 18.0757 19.4931 17.96C19.4573 17.7581 19.3581 17.5678 19.2169 17.4237C18.9765 17.1787 18.6348 17.0788 18.3054 17.1198C18.2 16.8317 18.0231 16.5888 17.7632 16.4111C17.4195 16.1755 16.998 16.063 16.5909 16.0167C16.1878 15.9715 15.7796 16.0146 15.4083 16.1871C15.0922 16.3332 14.7945 16.5499 14.5469 16.8001C14.5377 16.8001 14.5285 16.8001 14.5203 16.8001C13.8513 16.8001 13.1771 16.8674 12.5265 17.0283C11.3623 17.3175 10.2698 17.9379 9.50867 18.9011C9.06878 19.4585 8.72914 20.0831 8.39462 20.7109C8.39462 20.7119 8.39462 20.7119 8.3936 20.713C7.54963 20.979 6.7834 21.5384 6.18086 22.1904C5.22333 23.2262 4.5727 24.5007 3.72873 25.6269C3.27248 26.2357 2.74972 26.8046 2.11853 27.2221C1.84232 27.4051 2.0991 27.8604 2.37633 27.6764C3.51697 26.9213 4.29547 25.7625 5.03612 24.6226C5.77166 23.4912 6.53277 22.3019 7.70103 21.5984C8.32199 21.224 9.02479 21.0148 9.74702 21.0873C9.88513 21.101 10.0028 20.9569 10.0028 20.8244C10.0028 20.6709 9.88513 20.5752 9.74702 20.5615C9.51378 20.5374 9.28258 20.5426 9.05548 20.5689C9.53629 19.694 10.0744 18.8601 10.9122 18.2965C11.882 17.6435 13.036 17.3711 14.1827 17.3301C14.8375 17.307 15.5505 17.308 16.1622 17.5825C16.2891 17.6393 16.4364 17.6203 16.5121 17.4879C16.5755 17.3764 16.5479 17.185 16.42 17.1282C16.0651 16.9684 15.6927 16.8832 15.3132 16.839C15.4042 16.7791 15.4963 16.7223 15.5935 16.6729C15.8748 16.5309 16.1878 16.5067 16.4957 16.5309C16.8159 16.5562 17.1515 16.6466 17.4297 16.8149C17.6885 16.9715 17.8154 17.1987 17.8798 17.4952C17.9034 17.6046 17.974 17.6614 18.0538 17.6782C18.0977 17.694 18.1458 17.6961 18.1939 17.6792C18.2318 17.6656 18.2696 17.654 18.3085 17.6456C18.3249 17.6414 18.3494 17.6319 18.3668 17.634C18.332 17.6382 18.3289 17.6393 18.3576 17.6351C18.3678 17.634 18.377 17.633 18.3873 17.633C18.4272 17.6298 18.467 17.6298 18.5059 17.633C18.5121 17.633 18.5448 17.6382 18.5509 17.6382C18.5612 17.6403 18.5724 17.6424 18.5745 17.6435C18.5888 17.6466 18.688 17.6656 18.6921 17.6803C18.6819 17.6761 18.6727 17.6719 18.6624 17.6677C18.6727 17.6719 18.6829 17.6771 18.6931 17.6824C18.7085 17.6897 18.7238 17.6982 18.7381 17.7076C18.7525 17.7171 18.7678 17.7255 18.7821 17.735C18.7872 17.7381 18.7913 17.7413 18.7965 17.7444C18.819 17.7613 18.8149 17.7581 18.7862 17.735C18.8108 17.7423 18.8445 17.7865 18.8619 17.8054C18.8742 17.818 18.8844 17.8317 18.8967 17.8443C18.8977 17.8454 18.8977 17.8454 18.8977 17.8464C18.9161 17.8759 18.9335 17.9064 18.9499 17.9369C18.952 17.94 18.953 17.9411 18.954 17.9432C18.954 17.9442 18.954 17.9442 18.954 17.9442C18.9601 17.9632 18.9673 17.981 18.9724 18C18.9837 18.0378 18.9908 18.0767 18.998 18.1156C18.998 18.1167 18.998 18.1167 18.998 18.1177C18.998 18.1198 18.998 18.1209 18.998 18.1251C18.999 18.1451 19.0011 18.1651 19.0021 18.185C19.0041 18.225 19.0041 18.266 19.0031 18.306C19.0021 18.3743 18.997 18.4437 18.9918 18.5121C18.9888 18.5299 18.9867 18.5489 18.9878 18.5678C18.9816 18.6404 19.0174 18.7098 19.0706 18.7592C19.1156 18.8076 19.175 18.838 19.2435 18.8307C19.3346 18.8212 19.4246 18.8212 19.5156 18.8307C19.5248 18.8328 19.5473 18.8359 19.5545 18.837C19.578 18.8423 19.6016 18.8475 19.6251 18.8538C19.667 18.8654 19.7079 18.8801 19.7489 18.8948C19.7581 18.899 19.7663 18.9032 19.7755 18.9074C19.7969 18.918 19.8174 18.9295 19.8368 18.9422C19.8532 18.9527 19.8696 18.9632 19.8859 18.9737C19.889 18.9758 19.8911 18.9769 19.8931 18.9779C19.8952 18.98 19.8962 18.9821 19.9003 18.9863C19.9146 19.0021 19.9299 19.0168 19.9443 19.0326C19.9473 19.0357 19.9494 19.0378 19.9514 19.0399C19.9524 19.042 19.9535 19.0442 19.9565 19.0484C19.976 19.0799 19.9944 19.1125 20.0097 19.1462C20.0118 19.1525 20.0179 19.1693 20.021 19.1809C20.0271 19.2019 20.0322 19.2229 20.0374 19.2439C20.0384 19.2482 20.0404 19.265 20.0425 19.2765C20.0435 19.2902 20.0445 19.3112 20.0445 19.3155C20.0455 19.3375 20.0445 19.3596 20.0435 19.3806C20.0435 19.388 20.0425 19.3943 20.0425 19.3985C20.0353 19.4395 20.0251 19.4805 20.0118 19.5205C20.0077 19.5331 19.9944 19.5615 19.9964 19.5584C19.9893 19.5731 19.9821 19.5889 19.9739 19.6036C19.9627 19.6236 19.9514 19.6435 19.9391 19.6625C19.9371 19.6656 19.9218 19.6866 19.9156 19.6951C19.89 19.7266 19.8634 19.7571 19.8338 19.7855C19.8205 19.7992 19.8051 19.8107 19.7918 19.8244C19.7888 19.8276 19.7857 19.8297 19.7847 19.8307C19.7775 19.836 19.7703 19.8412 19.7632 19.8465C19.7386 19.8644 19.7182 19.8854 19.6987 19.9096C19.6404 19.9727 19.6118 20.0621 19.6476 20.1577C19.6537 20.1746 19.6609 20.1903 19.6711 20.2061C19.8195 20.4511 19.932 20.7298 19.9453 21.0211C19.9586 21.3187 19.8594 21.5668 19.6619 21.7845C19.3796 22.0958 19.0256 22.3313 18.6512 22.5206C18.7392 22.2588 18.776 21.9811 18.7371 21.6972C18.6829 21.3071 18.466 20.9548 18.1428 20.7571C18.2093 20.5815 18.2399 20.3891 18.2379 20.2061C18.2297 19.4269 17.7182 18.7034 16.9817 18.4952C16.6349 18.3974 16.2451 18.4153 15.8942 18.5215C15.84 18.4343 15.7674 18.3575 15.6763 18.2923C15.5085 18.1724 15.305 18.1188 15.1045 18.0988C14.7924 18.0694 14.4815 18.1577 14.2185 18.3259C13.9301 18.0914 13.5515 17.9684 13.1843 18.0136C12.7413 18.0694 12.3465 18.3291 12.1163 18.7234C12.0447 18.8454 12.0897 19.0116 12.2084 19.0831C12.3291 19.1556 12.4866 19.1104 12.5582 18.9884C12.6257 18.8717 12.7321 18.7571 12.8375 18.6866C12.8723 18.6635 12.9081 18.6414 12.9459 18.6225C12.9603 18.6151 12.9756 18.6078 12.9899 18.6004C12.994 18.5983 13.0073 18.593 13.0114 18.592C13.0503 18.5783 13.0902 18.5646 13.1301 18.5541C13.1485 18.5499 13.1659 18.5457 13.1843 18.5415C13.1884 18.5405 13.215 18.5362 13.2221 18.5352C13.3868 18.5163 13.4973 18.5341 13.6487 18.5878C13.7766 18.634 13.9024 18.7224 14.0078 18.8359C14.0559 18.8885 14.1234 18.9127 14.1909 18.9117C14.2605 18.9159 14.3301 18.8917 14.3894 18.8391C14.3996 18.8307 14.4098 18.8212 14.4201 18.8128C14.4231 18.8107 14.4303 18.8054 14.4354 18.8023C14.463 18.7834 14.4907 18.7644 14.5193 18.7476C14.551 18.7287 14.5848 18.7119 14.6185 18.6961C14.6196 18.6961 14.6196 18.6961 14.6196 18.695C14.6216 18.694 14.6226 18.694 14.6257 18.6929C14.641 18.6866 14.6564 18.6814 14.6728 18.6761C14.7362 18.654 14.7996 18.6414 14.8651 18.6267C14.8661 18.6267 14.8661 18.6267 14.8681 18.6256C14.8692 18.6256 14.8702 18.6256 14.8712 18.6256C14.8876 18.6246 14.904 18.6225 14.9203 18.6214C14.9571 18.6193 14.995 18.6183 15.0318 18.6193C15.0605 18.6204 15.0891 18.6225 15.1178 18.6256C15.1198 18.6267 15.172 18.6361 15.1843 18.6393C15.217 18.6477 15.2487 18.6572 15.2804 18.6687C15.2866 18.6709 15.2947 18.674 15.2988 18.6751C15.3111 18.6803 15.3234 18.6866 15.3346 18.6929C15.3612 18.7066 15.3858 18.7234 15.4103 18.7403C15.4155 18.7445 15.4247 18.7529 15.4308 18.7581C15.442 18.7686 15.4523 18.7802 15.4625 18.7928C15.4625 18.7928 15.4625 18.7928 15.4635 18.7939C15.4646 18.7949 15.4646 18.7949 15.4656 18.797C15.4738 18.8107 15.4799 18.8254 15.4891 18.838C15.4891 18.838 15.4891 18.838 15.4901 18.8391C15.4901 18.8401 15.4901 18.8402 15.4901 18.8402C15.4922 18.8507 15.5045 18.9043 15.4973 18.8507C15.5004 18.878 15.5075 18.9043 15.5167 18.9306C15.5177 18.9348 15.5198 18.939 15.5208 18.9432C15.5229 18.9495 15.5259 18.9558 15.529 18.9611C15.5321 18.9684 15.5341 18.9758 15.5382 18.9821C15.5392 18.9842 15.5413 18.9863 15.5433 18.9895C15.5863 19.0652 15.6569 19.1188 15.7541 19.1146C15.7807 19.1136 15.8093 19.1062 15.8359 19.0957C15.8533 19.0904 15.8707 19.0841 15.8881 19.0768C16.2072 18.9285 16.6451 18.9127 16.9714 19.0463C17.2701 19.1682 17.5095 19.4227 17.6313 19.7266C17.7499 20.0231 17.7827 20.3922 17.6169 20.6772C17.5597 20.7761 17.4563 20.8718 17.3182 20.918C17.1586 20.9716 16.9929 20.9853 16.8272 21.0032C16.7893 21.0074 16.7535 21.0179 16.7208 21.0337C15.7275 21.4017 14.819 22.08 14.3843 23.0968C13.9515 24.1084 13.883 25.324 14.1214 26.3977C14.3526 27.4398 14.9643 28.3136 15.7929 28.9456C16.5213 29.4998 17.4011 29.8226 18.289 29.9793C19.0491 30.1139 19.8205 30.1412 20.5877 30.0981C20.5049 30.1738 20.422 30.2506 20.3412 30.3284C20.0261 30.6323 19.7284 30.953 19.4399 31.2821C17.8287 31.0908 16.2686 30.4335 15.0032 29.3883C14.6329 29.0823 14.2881 28.7458 13.9679 28.3851C13.7459 28.1348 13.3848 28.5071 13.6058 28.7574C14.7832 30.0855 16.3167 31.0603 18.0047 31.5324C18.3453 31.6281 18.6901 31.6996 19.0389 31.7543C18.82 32.0182 18.6062 32.2853 18.3944 32.5556C18.2369 32.6523 18.0732 32.7396 17.9064 32.8174C17.2599 32.7564 16.6359 32.5556 16.0569 32.2454C15.3766 31.8815 14.727 31.4188 14.148 30.9015C13.5833 30.3967 13.084 29.8152 12.728 29.1349C12.3546 28.4198 12.1552 27.6164 12.0631 26.8141C11.9547 25.8635 11.9731 24.9034 11.9966 23.9486C12.0048 23.61 11.4933 23.61 11.4851 23.9486C11.4421 25.6952 11.4206 27.5207 12.1582 29.137C12.8436 30.6386 14.1909 31.7606 15.5658 32.5671C15.9945 32.8185 16.4456 33.0193 16.9141 33.1571C16.2226 33.3158 15.4983 33.3306 14.7976 33.2002C13.9884 33.0509 13.2385 32.7312 12.5521 32.2937C12.5449 32.2832 12.5388 32.2727 12.5296 32.2622C11.7142 31.3263 11.1536 30.1822 10.8928 28.9561C10.8222 28.6259 10.3291 28.7658 10.3997 29.096C10.5542 29.8236 10.813 30.5219 11.1598 31.1717C10.7076 30.7343 10.2831 30.2684 9.8616 29.8005C9.63756 29.5523 9.27644 29.9246 9.49946 30.1727C10.4263 31.1991 11.3787 32.2422 12.5817 32.931C13.7674 33.6103 15.1515 33.9447 16.5039 33.7628C16.9019 33.7091 17.2916 33.6145 17.6681 33.4799C17.3264 33.9131 16.9817 34.3432 16.6185 34.7586C16.2349 35.1971 15.8318 35.6429 15.3132 35.9132C14.7208 36.2202 14.0272 36.1887 13.4042 36.0026C12.7332 35.8017 12.1429 35.4053 11.5506 35.0362C11.4749 34.9889 11.4002 34.9878 11.3378 35.0152C10.7086 35.2486 9.99766 35.2381 9.35215 35.0772C8.71482 34.9184 8.17877 34.4589 7.72047 33.9983C7.68875 33.9668 7.65499 33.9468 7.62124 33.9352C7.5752 33.9152 7.51996 33.91 7.45653 33.931C7.23045 34.0046 6.98595 33.972 6.77829 33.8542C6.54402 33.7217 6.40898 33.4957 6.34249 33.2338C6.17983 32.5913 6.47548 31.952 6.78238 31.4094C6.88672 31.2243 6.74862 31.0508 6.59108 31.0214C6.52765 30.993 6.45195 30.9888 6.37318 31.0298C6.143 31.1496 5.81462 31.2432 5.55785 31.1612C5.31745 31.0834 5.34916 30.7164 5.38906 30.5177C5.45248 30.2075 5.60388 29.9319 5.76245 29.6627C5.94966 29.3473 6.14096 29.0339 6.33124 28.7195C6.50515 28.4314 6.06321 28.1664 5.8893 28.4545C5.66424 28.8289 5.42793 29.198 5.21617 29.5797C5.01464 29.9425 4.84789 30.3484 4.85403 30.7732C4.85914 31.1812 5.04431 31.5808 5.46067 31.6786C5.65913 31.7248 5.8668 31.7206 6.06935 31.6828C5.81871 32.2548 5.67856 32.8837 5.88521 33.4946C6.00695 33.8532 6.23201 34.1644 6.56857 34.3348C6.75271 34.4284 6.95424 34.4841 7.15884 34.4936C7.13634 34.5356 7.11383 34.5777 7.08825 34.6187C7.07905 34.6334 6.98698 34.7817 6.97368 34.7912C6.98084 34.7828 7.0013 34.7544 6.97163 34.7933C6.9614 34.8059 6.95219 34.8185 6.94197 34.8301C6.92048 34.8574 6.89695 34.8837 6.87445 34.91C6.78647 35.0099 6.69031 35.0993 6.58903 35.1845C6.58801 35.1845 6.58801 35.1855 6.58801 35.1855C6.57266 35.1971 6.55834 35.2086 6.543 35.2192C6.51742 35.2381 6.49185 35.256 6.46525 35.2728C6.40796 35.3117 6.34863 35.3474 6.28827 35.38C6.17063 35.4452 6.12357 35.623 6.1962 35.7397C6.27395 35.8627 6.42024 35.9037 6.54607 35.8343C7.02994 35.5683 7.40845 35.1498 7.65295 34.6513C8.10716 35.0677 8.62786 35.4368 9.21813 35.584C9.76646 35.7207 10.367 35.767 10.9337 35.6682C10.3905 36.6219 9.58641 37.3864 8.79666 38.1309C8.55319 38.3601 8.91635 38.7313 9.1588 38.5032C10.058 37.6567 10.9797 36.7723 11.5332 35.6398C11.9945 35.9269 12.459 36.2097 12.9664 36.4064C13.5618 36.6367 14.2134 36.7344 14.8436 36.623C15.4369 36.5178 15.9495 36.1803 16.3863 35.767C16.8507 35.3285 17.2579 34.8206 17.6599 34.3222C17.932 33.9846 18.2011 33.6387 18.4711 33.2917C18.4793 33.2832 18.4855 33.2738 18.4916 33.2654C19.7489 31.6533 21.0532 30.0203 22.8905 29.117C24.0721 28.5365 25.4644 28.3367 26.7165 28.7868C26.8464 28.8341 26.9958 28.7332 27.0316 28.6028C27.0705 28.4577 26.9835 28.3262 26.8526 28.2789C26.6633 28.2105 26.471 28.158 26.2756 28.117C27.0009 27.7205 27.6311 27.1327 28.1876 26.5218C28.9835 25.6458 29.7732 24.6321 30.8965 24.1936C31.5297 23.9454 32.2059 23.9276 32.8391 24.1884C32.8739 24.2031 32.9097 24.2041 32.9445 24.1978C33.0253 24.202 33.1072 24.1652 33.1604 24.0706C33.4345 23.5763 33.9092 23.2304 34.4534 23.1284C35.0151 23.0222 35.6104 23.2188 36.0196 23.6226C36.0227 23.6258 36.0258 23.6279 36.0288 23.63C36.0309 23.6331 36.0329 23.6352 36.036 23.6384C36.126 23.7309 36.3112 23.7499 36.3981 23.6384C36.4166 23.6142 36.436 23.5921 36.4575 23.5711C36.4667 23.5616 36.4759 23.5532 36.4861 23.5448C36.4718 23.5553 36.4718 23.5553 36.4861 23.5448C36.5342 23.5091 36.5864 23.4817 36.6385 23.4533C36.6651 23.4386 36.705 23.4239 36.7562 23.406C36.8063 23.3892 36.8575 23.3734 36.9086 23.3608C37.1071 23.3114 37.328 23.3639 37.4672 23.508C37.4764 23.5175 37.5142 23.5606 37.5101 23.5543C37.5091 23.5522 37.5439 23.6037 37.5531 23.6184C37.5674 23.6426 37.5807 23.6668 37.593 23.692C37.5951 23.6962 37.6124 23.7362 37.6155 23.7414C37.635 23.7909 37.6503 23.8434 37.6626 23.895C37.6687 23.9223 37.6738 23.9507 37.68 23.978C37.682 23.9917 37.683 24.0001 37.6841 24.0033C37.6851 24.0138 37.6861 24.0243 37.6871 24.0338C37.7127 24.3366 37.6472 24.6321 37.5828 24.9255C37.5521 25.0643 37.6237 25.2105 37.7618 25.2494C37.8907 25.2862 38.0462 25.2052 38.0769 25.0653C38.1301 24.8235 38.1802 24.5574 38.1935 24.2935C38.2467 24.2788 38.2999 24.2651 38.3551 24.2535C38.3643 24.2514 38.3736 24.2504 38.3828 24.2483C38.3664 24.2504 38.3674 24.2493 38.3848 24.2483C38.4083 24.2451 38.4319 24.243 38.4554 24.242C38.5035 24.2388 38.5516 24.2378 38.5996 24.2399C38.6293 24.2409 38.659 24.243 38.6876 24.2462C38.6968 24.2472 38.705 24.2483 38.7142 24.2493C38.7152 24.2493 38.7152 24.2493 38.7163 24.2493C38.7613 24.2567 38.8063 24.2672 38.8503 24.2798C38.8871 24.2904 38.9229 24.303 38.9577 24.3177C38.9669 24.3219 38.9976 24.3366 38.9986 24.3377C39.017 24.3471 39.0354 24.3577 39.0528 24.3682C39.0712 24.3787 39.0886 24.3903 39.106 24.4018C39.1091 24.4039 39.1296 24.4197 39.1398 24.4271C39.149 24.4355 39.1694 24.4523 39.1715 24.4544C39.1899 24.4712 39.2073 24.4891 39.2247 24.508C39.2267 24.5101 39.2421 24.528 39.2513 24.5385C39.2574 24.5469 39.2758 24.5722 39.2779 24.5753C39.2912 24.5964 39.3045 24.6184 39.3157 24.6416C39.3178 24.6447 39.328 24.6679 39.3341 24.6794C39.3382 24.691 39.3485 24.7173 39.3495 24.7204C39.3577 24.7446 39.3638 24.7699 39.37 24.7951C39.372 24.8067 39.374 24.8172 39.3761 24.8287C39.374 24.8245 39.3802 24.8729 39.3802 24.8771C39.3812 24.8982 39.3812 24.9192 39.3802 24.9402C39.3802 24.9497 39.3781 24.9655 39.3781 24.9718C39.37 25.018 39.3577 25.0622 39.3413 25.1053C39.3024 25.2105 39.3628 25.3388 39.4549 25.3987C39.4559 25.3997 39.4569 25.3997 39.4579 25.4008C39.4671 25.4061 39.4763 25.4113 39.4855 25.4155C39.5336 25.4387 39.5909 25.4471 39.6564 25.4281C39.7198 25.4103 39.7935 25.4061 39.86 25.4208C39.9531 25.4408 40.0267 25.4702 40.1055 25.5165C40.262 25.609 40.3786 25.7457 40.4594 25.9213C40.574 26.1695 40.5965 26.4471 40.5843 26.7237C40.2589 26.4976 39.8456 26.3966 39.4579 26.4492C39.0886 26.4997 38.7582 26.7016 38.525 26.9886C38.4892 26.9266 38.4503 26.8667 38.4053 26.8088C38.2334 26.5901 37.992 26.4208 37.728 26.3419C37.7546 26.2021 37.7526 26.0559 37.724 25.9171C37.6708 25.6542 37.503 25.4355 37.2922 25.2841C36.882 24.9896 36.3327 25.037 35.9143 25.2872C35.8171 25.2241 35.7117 25.1747 35.5992 25.1421C35.0191 24.9728 34.4545 25.2368 33.9614 25.5291C33.676 25.6984 33.9337 26.1527 34.2192 25.9834C34.4176 25.8656 34.6181 25.7499 34.8371 25.6795C35.0294 25.6174 35.2186 25.5911 35.4028 25.6342C35.5675 25.6721 35.7066 25.7404 35.8028 25.8877C35.9132 26.0559 35.9388 26.2568 35.9388 26.4555C35.9398 26.7941 36.4513 26.7941 36.4503 26.4555C36.4503 26.1916 36.4063 25.9161 36.2795 25.6837C36.2836 25.6816 36.2877 25.6795 36.2907 25.6784C36.2928 25.6774 36.2948 25.6763 36.2989 25.6753C36.3501 25.6553 36.4012 25.6384 36.4544 25.6258C36.4738 25.6216 36.4933 25.6174 36.5137 25.6143C36.5189 25.6143 36.5506 25.609 36.5588 25.609C36.6089 25.6058 36.658 25.6069 36.7081 25.6101C36.7132 25.6101 36.7163 25.6101 36.7194 25.6101C36.7214 25.6111 36.7235 25.6111 36.7265 25.6111C36.748 25.6153 36.7695 25.6195 36.79 25.6248C36.8278 25.6342 36.8636 25.6469 36.9004 25.6616C36.9107 25.6658 36.927 25.6742 36.9322 25.6774C36.9547 25.6889 36.9761 25.7026 36.9976 25.7163C37.0007 25.7184 37.0181 25.7299 37.0293 25.7373C37.0365 25.7436 37.0621 25.7646 37.0662 25.7678C37.0825 25.7825 37.0979 25.7983 37.1122 25.8141C37.1173 25.8204 37.1398 25.8488 37.1449 25.854C37.1654 25.8856 37.1838 25.9182 37.2012 25.9518C37.2032 25.955 37.2032 25.956 37.2043 25.9581C37.2053 25.9613 37.2063 25.9655 37.2073 25.9718C37.2135 25.9939 37.2206 26.0139 37.2258 26.0359C37.2268 26.0412 37.2319 26.0706 37.2339 26.078C37.235 26.0927 37.237 26.1064 37.237 26.1211C37.238 26.1432 37.237 26.1653 37.236 26.1884C37.235 26.1989 37.2339 26.2105 37.2319 26.2189C37.2247 26.2515 37.2165 26.283 37.2063 26.3146C37.2022 26.322 37.1879 26.3535 37.1838 26.3609C37.1715 26.3829 37.1572 26.404 37.1419 26.425C37.1061 26.4755 37.0989 26.5407 37.1112 26.6027C37.1122 26.6059 37.1122 26.609 37.1132 26.6122C37.1163 26.6238 37.1194 26.6353 37.1235 26.6469C37.1255 26.6521 37.1265 26.6574 37.1286 26.6616C37.1347 26.6753 37.1419 26.6889 37.149 26.7016C37.149 26.7026 37.15 26.7026 37.15 26.7037C37.1674 26.731 37.1889 26.7541 37.2135 26.771C37.2176 26.7741 37.2217 26.7773 37.2258 26.7804C37.2278 26.7815 37.2298 26.7836 37.2319 26.7846C37.2339 26.7857 37.236 26.7857 37.238 26.7867C37.2749 26.8088 37.3168 26.8225 37.3608 26.8204C37.813 26.7994 38.2221 27.2505 38.2017 27.7111C38.1925 27.914 38.0922 28.1432 37.9429 28.2999C37.7833 28.4692 37.5664 28.5649 37.3403 28.5712C37.0723 28.5786 36.8053 28.484 36.6048 28.2947C36.5393 28.2326 36.4513 28.2084 36.3695 28.2253C36.3255 28.2326 36.2836 28.2547 36.2467 28.2915C36.2457 28.2926 36.2447 28.2936 36.2437 28.2947C36.2437 28.2947 36.2437 28.2957 36.2426 28.2957C36.2355 28.3031 36.2294 28.3125 36.2232 28.321C36.2191 28.3273 36.214 28.3325 36.2099 28.3388C36.2079 28.342 36.2058 28.3441 36.2038 28.3483C35.4713 29.6102 34.6775 31.5934 35.9368 32.7974C37.0928 33.9026 38.8963 33.564 40.2078 32.9709C40.9587 32.6323 41.6431 32.1392 42.217 31.5377C42.4543 31.2948 42.0932 30.9225 41.862 31.1654Z" fill="white"/>
<path d="M41.862 31.1654C40.9505 32.1223 39.7249 32.7848 38.4278 32.9583C37.7669 33.0466 37.0692 32.9836 36.5066 32.5903C36.2713 32.4252 36.0769 32.2022 35.9501 31.9404C35.7997 31.6281 35.7823 31.2653 35.8089 30.9236C35.8662 30.1854 36.1588 29.5019 36.5097 28.8636C37.0406 29.1885 37.7332 29.178 38.2242 28.7542C38.4779 28.5355 38.6549 28.2063 38.7019 27.8698C38.7071 27.8341 38.7091 27.7994 38.7111 27.7636C38.8042 27.3567 39.1275 27.0202 39.5306 26.9655C39.8988 26.915 40.3428 27.0812 40.5525 27.4145C40.5638 27.4366 40.5781 27.4566 40.5945 27.4745C40.6303 27.5176 40.6743 27.5428 40.7193 27.5533C40.7418 27.5607 40.7643 27.5649 40.7868 27.5649C40.8758 27.5649 40.9413 27.5228 40.9853 27.4597C41.0262 27.4124 41.0497 27.3514 41.0446 27.2841C41.1142 26.7047 41.1561 26.0885 40.8584 25.5638C40.662 25.2168 40.2917 24.9402 39.8968 24.8929C39.8917 24.5122 39.6717 24.1473 39.3577 23.9391C39.0047 23.7057 38.5659 23.6699 38.1618 23.7614C38.1096 23.5122 37.9981 23.283 37.7935 23.0979C37.5234 22.8539 37.1654 22.7698 36.8155 22.8445C36.612 22.8886 36.391 22.9696 36.214 23.1C35.6933 22.6773 35.0191 22.5017 34.3583 22.6152C33.7435 22.7204 33.1849 23.1042 32.831 23.6289C32.2755 23.4365 31.6699 23.4239 31.1031 23.5753C30.519 23.7309 29.9911 24.0485 29.5175 24.4271C28.5323 25.2147 27.8367 26.3156 26.8546 27.1043C26.3339 27.5218 25.7334 27.8709 25.0848 28.0171C24.4864 28.0391 23.89 28.1632 23.3273 28.3672C22.5887 28.6354 21.9094 29.0371 21.2844 29.5176C19.6701 29.6932 17.8983 29.6407 16.465 28.7731C15.7172 28.321 15.0717 27.6301 14.7679 26.7846C14.4283 25.8403 14.417 24.7341 14.6901 23.7698C14.8436 23.2293 15.1157 22.7498 15.5157 22.3639C15.9085 21.9843 16.3924 21.7109 16.8988 21.5279C16.9029 21.5269 16.907 21.5237 16.9111 21.5227C17.2435 21.4859 17.5791 21.4417 17.8451 21.2114C17.8502 21.2072 17.8543 21.2019 17.8594 21.1977C18.0804 21.3155 18.2277 21.5679 18.2461 21.8455C18.2727 22.243 18.0988 22.6005 17.8758 22.9139C17.7939 23.0285 17.8573 23.2073 17.9678 23.2735C18.0047 23.2956 18.0415 23.3061 18.0783 23.3082C18.1141 23.3156 18.1509 23.3145 18.1867 23.2998C18.8834 23.0316 19.6322 22.6678 20.1131 22.0621C20.3494 21.7645 20.4793 21.4144 20.4619 21.0263C20.4476 20.7151 20.3586 20.4112 20.2205 20.1336C20.5059 19.8307 20.6563 19.3985 20.4987 18.9821C20.4067 18.7403 20.2389 18.5499 20.0077 18.4406C19.8532 18.3669 19.6865 18.3217 19.5177 18.306C19.5187 18.1903 19.5136 18.0757 19.4931 17.96C19.4573 17.7581 19.3581 17.5678 19.2169 17.4237C18.9765 17.1787 18.6348 17.0788 18.3054 17.1198C18.2 16.8317 18.0231 16.5888 17.7632 16.4111C17.4195 16.1755 16.998 16.063 16.5909 16.0167C16.1878 15.9715 15.7796 16.0146 15.4083 16.1871C15.0922 16.3332 14.7945 16.5499 14.5469 16.8001C14.5377 16.8001 14.5285 16.8001 14.5203 16.8001C13.8513 16.8001 13.1771 16.8674 12.5265 17.0283C11.3623 17.3175 10.2698 17.9379 9.50867 18.9011C9.06878 19.4585 8.72914 20.0831 8.39462 20.7109C8.39462 20.7119 8.39462 20.7119 8.3936 20.713C7.54963 20.979 6.7834 21.5384 6.18086 22.1904C5.22333 23.2262 4.5727 24.5007 3.72873 25.6269C3.27248 26.2357 2.74972 26.8046 2.11853 27.2221C1.84232 27.4051 2.0991 27.8604 2.37633 27.6764C3.51697 26.9213 4.29547 25.7625 5.03612 24.6226C5.77166 23.4912 6.53277 22.3019 7.70103 21.5984C8.32199 21.224 9.02479 21.0148 9.74702 21.0873C9.88513 21.101 10.0028 20.9569 10.0028 20.8244C10.0028 20.6709 9.88513 20.5752 9.74702 20.5615C9.51378 20.5374 9.28258 20.5426 9.05548 20.5689C9.53629 19.694 10.0744 18.8601 10.9122 18.2965C11.882 17.6435 13.036 17.3711 14.1827 17.3301C14.8375 17.307 15.5505 17.308 16.1622 17.5825C16.2891 17.6393 16.4364 17.6203 16.5121 17.4879C16.5755 17.3764 16.5479 17.185 16.42 17.1282C16.0651 16.9684 15.6927 16.8832 15.3132 16.839C15.4042 16.7791 15.4963 16.7223 15.5935 16.6729C15.8748 16.5309 16.1878 16.5067 16.4957 16.5309C16.8159 16.5562 17.1515 16.6466 17.4297 16.8149C17.6885 16.9715 17.8154 17.1987 17.8798 17.4952C17.9034 17.6046 17.974 17.6614 18.0538 17.6782C18.0977 17.694 18.1458 17.6961 18.1939 17.6792C18.2318 17.6656 18.2696 17.654 18.3085 17.6456C18.3249 17.6414 18.3494 17.6319 18.3668 17.634C18.332 17.6382 18.3289 17.6393 18.3576 17.6351C18.3678 17.634 18.377 17.633 18.3873 17.633C18.4272 17.6298 18.467 17.6298 18.5059 17.633C18.5121 17.633 18.5448 17.6382 18.5509 17.6382C18.5612 17.6403 18.5724 17.6424 18.5745 17.6435C18.5888 17.6466 18.688 17.6656 18.6921 17.6803C18.6819 17.6761 18.6727 17.6719 18.6624 17.6677C18.6727 17.6719 18.6829 17.6771 18.6931 17.6824C18.7085 17.6897 18.7238 17.6982 18.7381 17.7076C18.7525 17.7171 18.7678 17.7255 18.7821 17.735C18.7872 17.7381 18.7913 17.7413 18.7965 17.7444C18.819 17.7613 18.8149 17.7581 18.7862 17.735C18.8108 17.7423 18.8445 17.7865 18.8619 17.8054C18.8742 17.818 18.8844 17.8317 18.8967 17.8443C18.8977 17.8454 18.8977 17.8454 18.8977 17.8464C18.9161 17.8759 18.9335 17.9064 18.9499 17.9369C18.952 17.94 18.953 17.9411 18.954 17.9432C18.954 17.9442 18.954 17.9442 18.954 17.9442C18.9601 17.9632 18.9673 17.981 18.9724 18C18.9837 18.0378 18.9908 18.0767 18.998 18.1156C18.998 18.1167 18.998 18.1167 18.998 18.1177C18.998 18.1198 18.998 18.1209 18.998 18.1251C18.999 18.1451 19.0011 18.1651 19.0021 18.185C19.0041 18.225 19.0041 18.266 19.0031 18.306C19.0021 18.3743 18.997 18.4437 18.9918 18.5121C18.9888 18.5299 18.9867 18.5489 18.9878 18.5678C18.9816 18.6404 19.0174 18.7098 19.0706 18.7592C19.1156 18.8076 19.175 18.838 19.2435 18.8307C19.3346 18.8212 19.4246 18.8212 19.5156 18.8307C19.5248 18.8328 19.5473 18.8359 19.5545 18.837C19.578 18.8423 19.6016 18.8475 19.6251 18.8538C19.667 18.8654 19.7079 18.8801 19.7489 18.8948C19.7581 18.899 19.7663 18.9032 19.7755 18.9074C19.7969 18.918 19.8174 18.9295 19.8368 18.9422C19.8532 18.9527 19.8696 18.9632 19.8859 18.9737C19.889 18.9758 19.8911 18.9769 19.8931 18.9779C19.8952 18.98 19.8962 18.9821 19.9003 18.9863C19.9146 19.0021 19.9299 19.0168 19.9443 19.0326C19.9473 19.0357 19.9494 19.0378 19.9514 19.0399C19.9524 19.042 19.9535 19.0442 19.9565 19.0484C19.976 19.0799 19.9944 19.1125 20.0097 19.1462C20.0118 19.1525 20.0179 19.1693 20.021 19.1809C20.0271 19.2019 20.0322 19.2229 20.0374 19.2439C20.0384 19.2482 20.0404 19.265 20.0425 19.2765C20.0435 19.2902 20.0445 19.3112 20.0445 19.3155C20.0455 19.3375 20.0445 19.3596 20.0435 19.3806C20.0435 19.388 20.0425 19.3943 20.0425 19.3985C20.0353 19.4395 20.0251 19.4805 20.0118 19.5205C20.0077 19.5331 19.9944 19.5615 19.9964 19.5584C19.9893 19.5731 19.9821 19.5889 19.9739 19.6036C19.9627 19.6236 19.9514 19.6435 19.9391 19.6625C19.9371 19.6656 19.9218 19.6866 19.9156 19.6951C19.89 19.7266 19.8634 19.7571 19.8338 19.7855C19.8205 19.7992 19.8051 19.8107 19.7918 19.8244C19.7888 19.8276 19.7857 19.8297 19.7847 19.8307C19.7775 19.836 19.7703 19.8412 19.7632 19.8465C19.7386 19.8644 19.7182 19.8854 19.6987 19.9096C19.6404 19.9727 19.6118 20.0621 19.6476 20.1577C19.6537 20.1746 19.6609 20.1903 19.6711 20.2061C19.8195 20.4511 19.932 20.7298 19.9453 21.0211C19.9586 21.3187 19.8594 21.5668 19.6619 21.7845C19.3796 22.0958 19.0256 22.3313 18.6512 22.5206C18.7392 22.2588 18.776 21.9811 18.7371 21.6972C18.6829 21.3071 18.466 20.9548 18.1428 20.7571C18.2093 20.5815 18.2399 20.3891 18.2379 20.2061C18.2297 19.4269 17.7182 18.7034 16.9817 18.4952C16.6349 18.3974 16.2451 18.4153 15.8942 18.5215C15.84 18.4343 15.7674 18.3575 15.6763 18.2923C15.5085 18.1724 15.305 18.1188 15.1045 18.0988C14.7924 18.0694 14.4815 18.1577 14.2185 18.3259C13.9301 18.0914 13.5515 17.9684 13.1843 18.0136C12.7413 18.0694 12.3465 18.3291 12.1163 18.7234C12.0447 18.8454 12.0897 19.0116 12.2084 19.0831C12.3291 19.1556 12.4866 19.1104 12.5582 18.9884C12.6257 18.8717 12.7321 18.7571 12.8375 18.6866C12.8723 18.6635 12.9081 18.6414 12.9459 18.6225C12.9603 18.6151 12.9756 18.6078 12.9899 18.6004C12.994 18.5983 13.0073 18.593 13.0114 18.592C13.0503 18.5783 13.0902 18.5646 13.1301 18.5541C13.1485 18.5499 13.1659 18.5457 13.1843 18.5415C13.1884 18.5405 13.215 18.5362 13.2221 18.5352C13.3868 18.5163 13.4973 18.5341 13.6487 18.5878C13.7766 18.634 13.9024 18.7224 14.0078 18.8359C14.0559 18.8885 14.1234 18.9127 14.1909 18.9117C14.2605 18.9159 14.3301 18.8917 14.3894 18.8391C14.3996 18.8307 14.4098 18.8212 14.4201 18.8128C14.4231 18.8107 14.4303 18.8054 14.4354 18.8023C14.463 18.7834 14.4907 18.7644 14.5193 18.7476C14.551 18.7287 14.5848 18.7119 14.6185 18.6961C14.6196 18.6961 14.6196 18.6961 14.6196 18.695C14.6216 18.694 14.6226 18.694 14.6257 18.6929C14.641 18.6866 14.6564 18.6814 14.6728 18.6761C14.7362 18.654 14.7996 18.6414 14.8651 18.6267C14.8661 18.6267 14.8661 18.6267 14.8681 18.6256C14.8692 18.6256 14.8702 18.6256 14.8712 18.6256C14.8876 18.6246 14.904 18.6225 14.9203 18.6214C14.9571 18.6193 14.995 18.6183 15.0318 18.6193C15.0605 18.6204 15.0891 18.6225 15.1178 18.6256C15.1198 18.6267 15.172 18.6361 15.1843 18.6393C15.217 18.6477 15.2487 18.6572 15.2804 18.6687C15.2866 18.6709 15.2947 18.674 15.2988 18.6751C15.3111 18.6803 15.3234 18.6866 15.3346 18.6929C15.3612 18.7066 15.3858 18.7234 15.4103 18.7403C15.4155 18.7445 15.4247 18.7529 15.4308 18.7581C15.442 18.7686 15.4523 18.7802 15.4625 18.7928C15.4625 18.7928 15.4625 18.7928 15.4635 18.7939C15.4646 18.7949 15.4646 18.7949 15.4656 18.797C15.4738 18.8107 15.4799 18.8254 15.4891 18.838C15.4891 18.838 15.4891 18.838 15.4901 18.8391C15.4901 18.8401 15.4901 18.8402 15.4901 18.8402C15.4922 18.8507 15.5045 18.9043 15.4973 18.8507C15.5004 18.878 15.5075 18.9043 15.5167 18.9306C15.5177 18.9348 15.5198 18.939 15.5208 18.9432C15.5229 18.9495 15.5259 18.9558 15.529 18.9611C15.5321 18.9684 15.5341 18.9758 15.5382 18.9821C15.5392 18.9842 15.5413 18.9863 15.5433 18.9895C15.5863 19.0652 15.6569 19.1188 15.7541 19.1146C15.7807 19.1136 15.8093 19.1062 15.8359 19.0957C15.8533 19.0904 15.8707 19.0841 15.8881 19.0768C16.2072 18.9285 16.6451 18.9127 16.9714 19.0463C17.2701 19.1682 17.5095 19.4227 17.6313 19.7266C17.7499 20.0231 17.7827 20.3922 17.6169 20.6772C17.5597 20.7761 17.4563 20.8718 17.3182 20.918C17.1586 20.9716 16.9929 20.9853 16.8272 21.0032C16.7893 21.0074 16.7535 21.0179 16.7208 21.0337C15.7275 21.4017 14.819 22.08 14.3843 23.0968C13.9515 24.1084 13.883 25.324 14.1214 26.3977C14.3526 27.4398 14.9643 28.3136 15.7929 28.9456C16.5213 29.4998 17.4011 29.8226 18.289 29.9793C19.0491 30.1139 19.8205 30.1412 20.5877 30.0981C20.5049 30.1738 20.422 30.2506 20.3412 30.3284C20.0261 30.6323 19.7284 30.953 19.4399 31.2821C17.8287 31.0908 16.2686 30.4335 15.0032 29.3883C14.6329 29.0823 14.2881 28.7458 13.9679 28.3851C13.7459 28.1348 13.3848 28.5071 13.6058 28.7574C14.7832 30.0855 16.3167 31.0603 18.0047 31.5324C18.3453 31.6281 18.6901 31.6996 19.0389 31.7543C18.82 32.0182 18.6062 32.2853 18.3944 32.5556C18.2369 32.6523 18.0732 32.7396 17.9064 32.8174C17.2599 32.7564 16.6359 32.5556 16.0569 32.2454C15.3766 31.8815 14.727 31.4188 14.148 30.9015C13.5833 30.3967 13.084 29.8152 12.728 29.1349C12.3546 28.4198 12.1552 27.6164 12.0631 26.8141C11.9547 25.8635 11.9731 24.9034 11.9966 23.9486C12.0048 23.61 11.4933 23.61 11.4851 23.9486C11.4421 25.6952 11.4206 27.5207 12.1582 29.137C12.8436 30.6386 14.1909 31.7606 15.5658 32.5671C15.9945 32.8185 16.4456 33.0193 16.9141 33.1571C16.2226 33.3158 15.4983 33.3306 14.7976 33.2002C13.9884 33.0509 13.2385 32.7312 12.5521 32.2937C12.5449 32.2832 12.5388 32.2727 12.5296 32.2622C11.7142 31.3263 11.1536 30.1822 10.8928 28.9561C10.8222 28.6259 10.3291 28.7658 10.3997 29.096C10.5542 29.8236 10.813 30.5219 11.1598 31.1717C10.7076 30.7343 10.2831 30.2684 9.8616 29.8005C9.63756 29.5523 9.27644 29.9246 9.49946 30.1727C10.4263 31.1991 11.3787 32.2422 12.5817 32.931C13.7674 33.6103 15.1515 33.9447 16.5039 33.7628C16.9019 33.7091 17.2916 33.6145 17.6681 33.4799C17.3264 33.9131 16.9817 34.3432 16.6185 34.7586C16.2349 35.1971 15.8318 35.6429 15.3132 35.9132C14.7208 36.2202 14.0272 36.1887 13.4042 36.0026C12.7332 35.8017 12.1429 35.4053 11.5506 35.0362C11.4749 34.9889 11.4002 34.9878 11.3378 35.0152C10.7086 35.2486 9.99766 35.2381 9.35215 35.0772C8.71482 34.9184 8.17877 34.4589 7.72047 33.9983C7.68875 33.9668 7.65499 33.9468 7.62124 33.9352C7.5752 33.9152 7.51996 33.91 7.45653 33.931C7.23045 34.0046 6.98595 33.972 6.77829 33.8542C6.54402 33.7217 6.40898 33.4957 6.34249 33.2338C6.17983 32.5913 6.47548 31.952 6.78238 31.4094C6.88672 31.2243 6.74862 31.0508 6.59108 31.0214C6.52765 30.993 6.45195 30.9888 6.37318 31.0298C6.143 31.1496 5.81462 31.2432 5.55785 31.1612C5.31745 31.0834 5.34916 30.7164 5.38906 30.5177C5.45248 30.2075 5.60388 29.9319 5.76245 29.6627C5.94966 29.3473 6.14096 29.0339 6.33124 28.7195C6.50515 28.4314 6.06321 28.1664 5.8893 28.4545C5.66424 28.8289 5.42793 29.198 5.21617 29.5797C5.01464 29.9425 4.84789 30.3484 4.85403 30.7732C4.85914 31.1812 5.04431 31.5808 5.46067 31.6786C5.65913 31.7248 5.8668 31.7206 6.06935 31.6828C5.81871 32.2548 5.67856 32.8837 5.88521 33.4946C6.00695 33.8532 6.23201 34.1644 6.56857 34.3348C6.75271 34.4284 6.95424 34.4841 7.15884 34.4936C7.13634 34.5356 7.11383 34.5777 7.08825 34.6187C7.07905 34.6334 6.98698 34.7817 6.97368 34.7912C6.98084 34.7828 7.0013 34.7544 6.97163 34.7933C6.9614 34.8059 6.95219 34.8185 6.94197 34.8301C6.92048 34.8574 6.89695 34.8837 6.87445 34.91C6.78647 35.0099 6.69031 35.0993 6.58903 35.1845C6.58801 35.1845 6.58801 35.1855 6.58801 35.1855C6.57266 35.1971 6.55834 35.2086 6.543 35.2192C6.51742 35.2381 6.49185 35.256 6.46525 35.2728C6.40796 35.3117 6.34863 35.3474 6.28827 35.38C6.17063 35.4452 6.12357 35.623 6.1962 35.7397C6.27395 35.8627 6.42024 35.9037 6.54607 35.8343C7.02994 35.5683 7.40845 35.1498 7.65295 34.6513C8.10716 35.0677 8.62786 35.4368 9.21813 35.584C9.76646 35.7207 10.367 35.767 10.9337 35.6682C10.3905 36.6219 9.58641 37.3864 8.79666 38.1309C8.55319 38.3601 8.91635 38.7313 9.1588 38.5032C10.058 37.6567 10.9797 36.7723 11.5332 35.6398C11.9945 35.9269 12.459 36.2097 12.9664 36.4064C13.5618 36.6367 14.2134 36.7344 14.8436 36.623C15.4369 36.5178 15.9495 36.1803 16.3863 35.767C16.8507 35.3285 17.2579 34.8206 17.6599 34.3222C17.932 33.9846 18.2011 33.6387 18.4711 33.2917C18.4793 33.2832 18.4855 33.2738 18.4916 33.2654C19.7489 31.6533 21.0532 30.0203 22.8905 29.117C24.0721 28.5365 25.4644 28.3367 26.7165 28.7868C26.8464 28.8341 26.9958 28.7332 27.0316 28.6028C27.0705 28.4577 26.9835 28.3262 26.8526 28.2789C26.6633 28.2105 26.471 28.158 26.2756 28.117C27.0009 27.7205 27.6311 27.1327 28.1876 26.5218C28.9835 25.6458 29.7732 24.6321 30.8965 24.1936C31.5297 23.9454 32.2059 23.9276 32.8391 24.1884C32.8739 24.2031 32.9097 24.2041 32.9445 24.1978C33.0253 24.202 33.1072 24.1652 33.1604 24.0706C33.4345 23.5763 33.9092 23.2304 34.4534 23.1284C35.0151 23.0222 35.6104 23.2188 36.0196 23.6226C36.0227 23.6258 36.0258 23.6279 36.0288 23.63C36.0309 23.6331 36.0329 23.6352 36.036 23.6384C36.126 23.7309 36.3112 23.7499 36.3981 23.6384C36.4166 23.6142 36.436 23.5921 36.4575 23.5711C36.4667 23.5616 36.4759 23.5532 36.4861 23.5448C36.4718 23.5553 36.4718 23.5553 36.4861 23.5448C36.5342 23.5091 36.5864 23.4817 36.6385 23.4533C36.6651 23.4386 36.705 23.4239 36.7562 23.406C36.8063 23.3892 36.8575 23.3734 36.9086 23.3608C37.1071 23.3114 37.328 23.3639 37.4672 23.508C37.4764 23.5175 37.5142 23.5606 37.5101 23.5543C37.5091 23.5522 37.5439 23.6037 37.5531 23.6184C37.5674 23.6426 37.5807 23.6668 37.593 23.692C37.5951 23.6962 37.6124 23.7362 37.6155 23.7414C37.635 23.7909 37.6503 23.8434 37.6626 23.895C37.6687 23.9223 37.6738 23.9507 37.68 23.978C37.682 23.9917 37.683 24.0001 37.6841 24.0033C37.6851 24.0138 37.6861 24.0243 37.6871 24.0338C37.7127 24.3366 37.6472 24.6321 37.5828 24.9255C37.5521 25.0643 37.6237 25.2105 37.7618 25.2494C37.8907 25.2862 38.0462 25.2052 38.0769 25.0653C38.1301 24.8235 38.1802 24.5574 38.1935 24.2935C38.2467 24.2788 38.2999 24.2651 38.3551 24.2535C38.3643 24.2514 38.3736 24.2504 38.3828 24.2483C38.3664 24.2504 38.3674 24.2493 38.3848 24.2483C38.4083 24.2451 38.4319 24.243 38.4554 24.242C38.5035 24.2388 38.5516 24.2378 38.5996 24.2399C38.6293 24.2409 38.659 24.243 38.6876 24.2462C38.6968 24.2472 38.705 24.2483 38.7142 24.2493C38.7152 24.2493 38.7152 24.2493 38.7163 24.2493C38.7613 24.2567 38.8063 24.2672 38.8503 24.2798C38.8871 24.2904 38.9229 24.303 38.9577 24.3177C38.9669 24.3219 38.9976 24.3366 38.9986 24.3377C39.017 24.3471 39.0354 24.3577 39.0528 24.3682C39.0712 24.3787 39.0886 24.3903 39.106 24.4018C39.1091 24.4039 39.1296 24.4197 39.1398 24.4271C39.149 24.4355 39.1694 24.4523 39.1715 24.4544C39.1899 24.4712 39.2073 24.4891 39.2247 24.508C39.2267 24.5101 39.2421 24.528 39.2513 24.5385C39.2574 24.5469 39.2758 24.5722 39.2779 24.5753C39.2912 24.5964 39.3045 24.6184 39.3157 24.6416C39.3178 24.6447 39.328 24.6679 39.3341 24.6794C39.3382 24.691 39.3485 24.7173 39.3495 24.7204C39.3577 24.7446 39.3638 24.7699 39.37 24.7951C39.372 24.8067 39.374 24.8172 39.3761 24.8287C39.374 24.8245 39.3802 24.8729 39.3802 24.8771C39.3812 24.8982 39.3812 24.9192 39.3802 24.9402C39.3802 24.9497 39.3781 24.9655 39.3781 24.9718C39.37 25.018 39.3577 25.0622 39.3413 25.1053C39.3024 25.2105 39.3628 25.3388 39.4549 25.3987C39.4559 25.3997 39.4569 25.3997 39.4579 25.4008C39.4671 25.4061 39.4763 25.4113 39.4855 25.4155C39.5336 25.4387 39.5909 25.4471 39.6564 25.4281C39.7198 25.4103 39.7935 25.4061 39.86 25.4208C39.9531 25.4408 40.0267 25.4702 40.1055 25.5165C40.262 25.609 40.3786 25.7457 40.4594 25.9213C40.574 26.1695 40.5965 26.4471 40.5843 26.7237C40.2589 26.4976 39.8456 26.3966 39.4579 26.4492C39.0886 26.4997 38.7582 26.7016 38.525 26.9886C38.4892 26.9266 38.4503 26.8667 38.4053 26.8088C38.2334 26.5901 37.992 26.4208 37.728 26.3419C37.7546 26.2021 37.7526 26.0559 37.724 25.9171C37.6708 25.6542 37.503 25.4355 37.2922 25.2841C36.882 24.9896 36.3327 25.037 35.9143 25.2872C35.8171 25.2241 35.7117 25.1747 35.5992 25.1421C35.0191 24.9728 34.4545 25.2368 33.9614 25.5291C33.676 25.6984 33.9337 26.1527 34.2192 25.9834C34.4176 25.8656 34.6181 25.7499 34.8371 25.6795C35.0294 25.6174 35.2186 25.5911 35.4028 25.6342C35.5675 25.6721 35.7066 25.7404 35.8028 25.8877C35.9132 26.0559 35.9388 26.2568 35.9388 26.4555C35.9398 26.7941 36.4513 26.7941 36.4503 26.4555C36.4503 26.1916 36.4063 25.9161 36.2795 25.6837C36.2836 25.6816 36.2877 25.6795 36.2907 25.6784C36.2928 25.6774 36.2948 25.6763 36.2989 25.6753C36.3501 25.6553 36.4012 25.6384 36.4544 25.6258C36.4738 25.6216 36.4933 25.6174 36.5137 25.6143C36.5189 25.6143 36.5506 25.609 36.5588 25.609C36.6089 25.6058 36.658 25.6069 36.7081 25.6101C36.7132 25.6101 36.7163 25.6101 36.7194 25.6101C36.7214 25.6111 36.7235 25.6111 36.7265 25.6111C36.748 25.6153 36.7695 25.6195 36.79 25.6248C36.8278 25.6342 36.8636 25.6469 36.9004 25.6616C36.9107 25.6658 36.927 25.6742 36.9322 25.6774C36.9547 25.6889 36.9761 25.7026 36.9976 25.7163C37.0007 25.7184 37.0181 25.7299 37.0293 25.7373C37.0365 25.7436 37.0621 25.7646 37.0662 25.7678C37.0825 25.7825 37.0979 25.7983 37.1122 25.8141C37.1173 25.8204 37.1398 25.8488 37.1449 25.854C37.1654 25.8856 37.1838 25.9182 37.2012 25.9518C37.2032 25.955 37.2032 25.956 37.2043 25.9581C37.2053 25.9613 37.2063 25.9655 37.2073 25.9718C37.2135 25.9939 37.2206 26.0139 37.2258 26.0359C37.2268 26.0412 37.2319 26.0706 37.2339 26.078C37.235 26.0927 37.237 26.1064 37.237 26.1211C37.238 26.1432 37.237 26.1653 37.236 26.1884C37.235 26.1989 37.2339 26.2105 37.2319 26.2189C37.2247 26.2515 37.2165 26.283 37.2063 26.3146C37.2022 26.322 37.1879 26.3535 37.1838 26.3609C37.1715 26.3829 37.1572 26.404 37.1419 26.425C37.1061 26.4755 37.0989 26.5407 37.1112 26.6027C37.1122 26.6059 37.1122 26.609 37.1132 26.6122C37.1163 26.6238 37.1194 26.6353 37.1235 26.6469C37.1255 26.6521 37.1265 26.6574 37.1286 26.6616C37.1347 26.6753 37.1419 26.6889 37.149 26.7016C37.149 26.7026 37.15 26.7026 37.15 26.7037C37.1674 26.731 37.1889 26.7541 37.2135 26.771C37.2176 26.7741 37.2217 26.7773 37.2258 26.7804C37.2278 26.7815 37.2298 26.7836 37.2319 26.7846C37.2339 26.7857 37.236 26.7857 37.238 26.7867C37.2749 26.8088 37.3168 26.8225 37.3608 26.8204C37.813 26.7994 38.2221 27.2505 38.2017 27.7111C38.1925 27.914 38.0922 28.1432 37.9429 28.2999C37.7833 28.4692 37.5664 28.5649 37.3403 28.5712C37.0723 28.5786 36.8053 28.484 36.6048 28.2947C36.5393 28.2326 36.4513 28.2084 36.3695 28.2253C36.3255 28.2326 36.2836 28.2547 36.2467 28.2915C36.2457 28.2926 36.2447 28.2936 36.2437 28.2947C36.2437 28.2947 36.2437 28.2957 36.2426 28.2957C36.2355 28.3031 36.2294 28.3125 36.2232 28.321C36.2191 28.3273 36.214 28.3325 36.2099 28.3388C36.2079 28.342 36.2058 28.3441 36.2038 28.3483C35.4713 29.6102 34.6775 31.5934 35.9368 32.7974C37.0928 33.9026 38.8963 33.564 40.2078 32.9709C40.9587 32.6323 41.6431 32.1392 42.217 31.5377C42.4543 31.2948 42.0932 30.9225 41.862 31.1654Z" stroke="white" stroke-width="0.4" mask="url(#path-16-outside-1_2070_504)"/>
<path d="M40.7359 33.2633L40.736 33.2632C40.8282 33.1995 40.9278 33.1857 41.0179 33.215C41.1044 33.2432 41.1715 33.3076 41.2133 33.3814C41.2956 33.5266 41.2973 33.7486 41.1093 33.8783C41.0919 33.8909 41.0684 33.9055 41.0504 33.9167C41.0473 33.9186 41.0444 33.9204 41.0417 33.922C41.0144 33.953 40.9813 33.9779 40.944 33.9984C39.9947 34.6763 38.9299 35.1806 37.8457 35.5711L37.8457 35.5711C36.8511 35.9288 35.8209 36.1851 34.7726 36.3155L34.7724 36.3155C33.7085 36.4466 32.5561 36.4579 31.517 36.094L31.5169 36.094C30.4589 35.7228 29.6335 34.9391 29.0409 33.996C28.404 32.9825 28.0518 31.8182 27.7156 30.6908C27.5319 30.7159 27.3501 30.7727 27.1778 30.8647C27.1215 30.8949 27.0664 30.9289 27.0125 30.9655C27.0363 31.3954 27.0891 31.8222 27.1725 32.2451L40.7359 33.2633ZM40.7359 33.2633C40.6426 33.3279 40.5457 33.3869 40.4475 33.4436M40.7359 33.2633L40.4475 33.4436M40.4475 33.4436C40.3187 33.5089 40.1883 33.5727 40.0577 33.6366C40.0373 33.6466 40.0169 33.6566 39.9964 33.6666C39.0518 34.0636 37.9763 34.1176 36.9545 33.9918C36.3096 33.9124 35.6466 33.7703 35.0775 33.4666L40.4475 33.4436ZM36.9423 34.091C37.9755 34.2183 39.0711 34.1646 40.0379 33.7577L36.9423 34.091ZM36.9423 34.091C36.2927 34.0111 35.6154 33.8671 35.0303 33.5547L36.9423 34.091ZM33.8205 32.0656L33.8205 32.0657C34.0717 32.6785 34.5049 33.1601 35.0774 33.4665L33.8205 32.0656ZM33.8205 32.0656C33.4927 31.2681 33.4896 30.3634 33.6232 29.5048L33.6233 29.5046M33.8205 32.0656L33.6233 29.5046M33.6233 29.5046C33.6494 29.3342 33.5822 29.129 33.3728 29.0694L33.6233 29.5046ZM32.9315 29.3342L32.9316 29.3338C32.9489 29.2252 33.0224 29.1472 33.1032 29.1037C33.1831 29.0606 33.283 29.0438 33.3728 29.0694L32.9315 29.3342ZM32.9315 29.3342C32.7953 30.207 32.7689 31.1243 33.0382 31.9892M32.9315 29.3342L33.0382 31.9892M30.8261 34.9291L30.8262 34.9292C31.2464 35.2345 31.7182 35.4313 32.2233 35.5434C32.2234 35.5434 32.2234 35.5434 32.2234 35.5434L32.2017 35.641C33.1643 35.8545 34.1945 35.7935 35.1602 35.6347L30.8261 34.9291ZM30.8261 34.9291C30.4489 34.656 30.1177 34.3006 29.8444 33.9154L29.8444 33.9153M30.8261 34.9291L29.8444 33.9153M29.8444 33.9153C29.1792 32.9803 28.8152 31.876 28.4795 30.7622C28.7024 30.8306 28.9161 30.9395 29.1088 31.0829L29.1088 31.0829C29.1831 31.1381 29.2695 31.1473 29.3453 31.1345C29.4782 31.1219 29.6371 31.0305 29.6623 30.8596C29.7844 30.037 30.1926 29.2862 30.8209 28.7634C30.6408 29.4028 30.5372 30.063 30.512 30.7296M29.8444 33.9153L30.512 30.7296M30.7072 26.8387C30.7713 26.1794 31.1808 25.5872 31.7884 25.3309C32.4185 25.0649 33.1624 25.233 33.6483 25.7046L33.6485 25.7048C33.7286 25.7829 33.7624 25.8781 33.7565 25.972C33.7508 26.0632 33.7082 26.1459 33.6487 26.207C33.5893 26.2681 33.5076 26.3127 33.4167 26.3209C33.3231 26.3294 33.2271 26.2983 33.1469 26.2205C32.8562 25.9389 32.4001 25.8465 32.0346 26.0087C31.7129 26.1516 31.4727 26.4839 31.4213 26.839C32.0827 26.8815 32.7385 27.0457 33.353 27.3336C33.4522 27.3798 33.5062 27.4728 33.526 27.5622C33.5458 27.6511 33.5359 27.7522 33.4896 27.8332C33.4257 27.946 33.3199 28.0015 33.2099 28.0084C33.1883 28.0127 33.1593 28.0169 33.1275 28.0138M30.7072 26.8387L33.1971 27.9089C33.1776 27.9132 33.1572 27.9163 33.1367 27.9142C32.6426 27.8721 32.1373 27.9573 31.6718 28.1445M30.7072 26.8387C30.0654 26.8832 29.4298 27.0421 28.8322 27.3165L28.8321 27.3165C28.7328 27.3622 28.6789 27.4556 28.6589 27.5448C28.639 27.6337 28.6485 27.7353 28.695 27.8165C28.7467 27.9077 28.8259 27.9632 28.9153 27.9836C29.0025 28.0035 29.0935 27.9889 29.1732 27.9526L29.1735 27.9525C29.8812 27.627 30.673 27.4965 31.4494 27.559C30.5663 27.9196 29.8014 28.6001 29.3647 29.4632L29.3647 29.4633C29.2432 29.7036 29.1453 29.9553 29.0728 30.2149C28.3699 29.8719 27.5335 29.8568 26.8248 30.2351C26.0354 30.6562 25.5219 31.4963 25.4404 32.3899L30.7072 26.8387ZM33.1275 28.0138C33.1272 28.0137 33.1268 28.0137 33.1265 28.0137L33.1367 27.9142L33.1282 28.0138C33.128 28.0138 33.1277 28.0138 33.1275 28.0138ZM33.1275 28.0138C32.6655 27.9746 32.1918 28.0505 31.7517 28.2205M31.7517 28.2205C31.7548 28.2126 31.7579 28.2047 31.761 28.1968C31.7662 28.1847 31.7682 28.1743 31.7692 28.1686L31.7701 28.1628C31.7702 28.1619 31.7701 28.1625 31.7699 28.1636L31.6718 28.1445M31.7517 28.2205C31.4376 29.024 31.2564 29.8726 31.2234 30.7372L31.2234 30.7374C31.2142 30.9706 31.0278 31.0868 30.8578 31.087C30.7729 31.0871 30.6845 31.0592 30.617 30.9976C30.5475 30.9341 30.5077 30.8416 30.512 30.7296M31.7517 28.2205L30.512 30.7296M31.6718 28.1445L31.6789 28.1622L31.1235 30.7334C31.1572 29.848 31.3444 28.9794 31.6687 28.1582C31.6702 28.1552 31.6706 28.1523 31.6711 28.1489C31.6713 28.1475 31.6715 28.1461 31.6718 28.1445ZM33.0382 31.9892C33.2781 32.7615 33.7342 33.4407 34.3986 33.8989M33.0382 31.9892L34.3986 33.8989M34.3986 33.8989C35.0262 34.3319 35.7767 34.5347 36.4992 34.6545M34.3986 33.8989L36.4992 34.6545M36.4992 34.6545C36.6793 34.6846 36.8604 34.7094 37.0421 34.7286M36.4992 34.6545L37.0421 34.7286M37.0421 34.7286C36.9259 34.7526 36.8092 34.7744 36.6919 34.7936C35.4455 34.9964 34.1043 34.9017 33.0114 34.243C32.4838 33.9247 32.0292 33.4908 31.7016 32.9607L37.0421 34.7286ZM31.0896 33.3308C31.7759 34.4406 32.9128 35.1961 34.156 35.4633L31.1746 33.2782L31.0896 33.3308C31.0896 33.3308 31.0896 33.3308 31.0896 33.3308ZM26.3645 31.6959C26.5618 33.2829 27.1232 34.8412 28.002 36.1561L28.0021 36.1562C28.2946 36.5929 28.6227 37.0058 28.9907 37.3809L28.9907 37.3809C29.0692 37.4609 29.1645 37.4942 29.2585 37.4867C29.3495 37.4794 29.4311 37.4346 29.4906 37.3735C29.5501 37.3124 29.5926 37.2295 29.5992 37.1383C29.606 37.0445 29.574 36.9485 29.4956 36.8686L29.4956 36.8686C28.2823 35.6329 27.5123 33.962 27.1725 32.2451L26.3645 31.6959Z" fill="white" stroke="white" stroke-width="0.2"/>
<path d="M31.2365 31.5586L31.2365 31.5586C31.2375 31.6284 31.2432 31.6989 31.252 31.7706C31.2786 31.9508 31.3256 32.1268 31.393 32.2945L31.3931 32.2948C31.4348 32.3994 31.3978 32.5136 31.3638 32.5801C31.317 32.6727 31.2298 32.7245 31.1546 32.7503C31.0597 32.7828 30.9485 32.7595 30.874 32.7155C30.874 32.7155 30.874 32.7155 30.874 32.7155L30.9248 32.6294C30.8624 32.5926 30.8337 32.539 30.8071 32.4727L31.2365 31.5586ZM31.2365 31.5586L31.2365 31.5578C31.2325 31.3772 31.085 31.1878 30.8763 31.1972L30.8762 31.1972C30.6939 31.2057 30.5208 31.3529 30.5251 31.562M31.2365 31.5586L30.7144 32.5101C30.5929 32.2088 30.5314 31.8844 30.5251 31.562M30.5251 31.562L30.6251 31.56L30.5251 31.5621C30.5251 31.562 30.5251 31.562 30.5251 31.562Z" fill="white" stroke="white" stroke-width="0.2"/>
<path d="M37.3821 37.091L37.3826 37.0908C37.4863 37.0468 37.592 37.0747 37.669 37.1238C37.7454 37.1725 37.8096 37.2514 37.8333 37.3399L37.8334 37.3402C37.8901 37.554 37.7531 37.7144 37.5973 37.7815C37.5973 37.7816 37.5973 37.7816 37.5973 37.7816L37.5577 37.6897C37.1434 37.8685 36.7189 38.0231 36.2872 38.1524C34.7762 38.6025 33.1772 38.7455 31.6151 38.5657L37.3821 37.091ZM37.3821 37.091C35.5669 37.8728 33.5825 38.1657 31.6266 37.9406L31.6266 37.9406C31.517 37.9279 31.4234 37.9817 31.3619 38.0492C31.3007 38.1164 31.2594 38.2094 31.2594 38.3028C31.2594 38.5233 31.4305 38.6452 31.6037 38.665L37.3821 37.091ZM37.4216 37.1828L37.4217 37.1829L37.4216 37.1828Z" fill="white" stroke="white" stroke-width="0.2"/>
<path d="M30.7606 38.4559C30.8424 38.4327 30.9316 38.3695 30.9748 38.2842C31.0158 38.204 31.0274 38.1066 31.0083 38.0179C30.989 37.9281 30.9357 37.8382 30.8381 37.7897L30.838 37.7896C30.5814 37.6624 30.3387 37.5084 30.1129 37.3297L30.1125 37.3302C30.0577 37.29 29.9915 37.2545 29.8995 37.2545V37.2545L29.8977 37.2545C29.8133 37.256 29.7108 37.2932 29.6454 37.365L29.6454 37.365L30.5358 38.3335L30.4906 38.4227C30.4908 38.4228 30.4909 38.4229 30.4911 38.4229C30.5675 38.4615 30.6594 38.485 30.7606 38.4559ZM30.7606 38.4559C30.7606 38.456 30.7605 38.456 30.7605 38.456L30.7332 38.3598L30.7608 38.4559C30.7607 38.4559 30.7607 38.4559 30.7606 38.4559Z" fill="white" stroke="white" stroke-width="0.2"/>
<path d="M26.1703 37.4639C26.0649 37.5722 26.0823 37.7258 26.1703 37.8362L33.9308 40.4251C33.8919 40.2768 33.7538 40.219 33.6167 40.2421C31.5492 40.5849 29.3662 40.0097 27.7242 38.669C27.2864 38.3115 26.8874 37.9077 26.5324 37.4639C26.4445 37.3546 26.2614 37.3703 26.1703 37.4639ZM34.0274 40.3995C33.9717 40.1874 33.7727 40.1145 33.6003 40.1435C31.5612 40.4816 29.4071 39.9141 27.7875 38.5915C27.3552 38.2385 26.9612 37.8398 26.6105 37.4014L26.6104 37.4012C26.5423 37.3166 26.4412 37.2852 26.3496 37.2879C26.2589 37.2905 26.1645 37.3265 26.0986 37.3942C25.9484 37.5486 25.9823 37.7607 26.0921 37.8985L26.0921 37.8985L26.0923 37.8987C27.4975 39.6529 29.5686 40.7527 31.77 40.9369C32.439 40.9935 33.1082 40.9571 33.7681 40.8476L33.7685 40.8476C33.8764 40.8292 33.9522 40.7526 33.9939 40.6713C34.0354 40.5904 34.0515 40.4899 34.0274 40.3995Z" fill="white" stroke="white" stroke-width="0.2"/>
<path d="M25.8807 36.089C25.8753 36.078 25.8695 36.0668 25.8643 36.0568L25.864 36.0563C25.8584 36.0456 25.8534 36.0359 25.8488 36.0264C25.8402 36.0089 25.8349 35.9958 25.832 35.9856L25.8307 35.9804L25.8304 35.9805C25.8275 35.9701 25.8242 35.959 25.8216 35.9518L25.8216 35.9518L25.8208 35.9498C25.813 35.9297 25.8055 35.9096 25.7992 35.89L25.7992 35.89L25.5537 36.7453L25.4719 36.8028C25.4719 36.8028 25.4719 36.8028 25.4719 36.8028C25.5175 36.8677 25.5794 36.9345 25.6791 36.9625L25.6797 36.9627C25.7633 36.9856 25.8759 36.9779 25.9586 36.9234L25.9586 36.9234L25.959 36.9232C26.0332 36.8738 26.0906 36.7938 26.117 36.7069C26.1438 36.6189 26.1412 36.5131 26.0773 36.4226L25.9956 36.4803L26.0778 36.4233C26.0261 36.3487 25.9779 36.2729 25.935 36.1945L25.8473 36.2427L25.9352 36.1949C25.9168 36.161 25.8992 36.1259 25.8807 36.089ZM25.8807 36.089C25.8808 36.0892 25.8809 36.0894 25.881 36.0896L25.791 36.1333L25.8805 36.0885C25.8805 36.0887 25.8806 36.0889 25.8807 36.089ZM25.7736 36.0992C25.7949 36.0945 25.8166 36.0848 25.8367 36.0676C25.841 36.0485 25.8411 36.0253 25.8407 36.0216L25.8398 36.0168L25.8393 36.0141L25.839 36.0131L25.8387 36.0118L25.8386 36.0113M25.7736 36.0992L25.8373 36.0064L25.8382 36.0098C25.8385 36.0109 25.8386 36.0113 25.8386 36.0113M25.7736 36.0992C25.7577 36.0686 25.7412 36.0362 25.7337 36.005M25.8386 36.0113L25.8386 36.0112M25.8386 36.0113C25.8386 36.0113 25.8386 36.0112 25.8386 36.0112M25.8386 36.0112C25.8384 36.0105 25.8375 36.0072 25.8365 36.0043L25.8333 35.9961C25.8321 35.9937 25.8262 35.9895 25.817 35.9852M25.8386 36.0112L25.817 35.9852M25.817 35.9852L25.8308 35.982L25.817 35.9852ZM25.817 35.9852L25.7337 36.005M25.7337 36.005L25.7334 36.0051C25.7357 36.0133 25.738 36.022 25.7397 36.0282C25.7384 36.0232 25.7365 36.0157 25.7337 36.005Z" fill="white" stroke="white" stroke-width="0.2"/>
<path d="M29.8683 42.6867C29.9535 42.6991 30.0445 42.6892 30.1233 42.6477C30.2044 42.605 30.2672 42.5314 30.2944 42.4295L30.2945 42.4294C30.318 42.3408 30.3026 42.2399 30.262 42.1585C30.2213 42.0769 30.1456 41.9971 30.0343 41.9809L30.0341 41.9808C28.6216 41.7765 27.2828 41.1501 26.2186 40.1702L26.2186 40.1702C26.1365 40.0947 26.0397 40.0661 25.9464 40.0756C25.8557 40.0849 25.7741 40.1295 25.7145 40.1905C25.655 40.2514 25.6123 40.334 25.6075 40.4251C25.6025 40.5192 25.6386 40.6134 25.7208 40.6894L25.7209 40.6896C26.8758 41.7542 28.3284 42.4639 29.8683 42.6867ZM29.8683 42.6867L29.8828 42.5877M29.8683 42.6867C29.8684 42.6867 29.8684 42.6867 29.8684 42.6867L29.8828 42.5877M29.8828 42.5877C28.3636 42.3679 26.9294 41.6676 25.7887 40.616C25.5432 40.3889 25.9064 40.0188 26.1509 40.2438C27.2301 41.2375 28.5876 41.8727 30.0198 42.0798C30.1569 42.0998 30.2306 42.2807 30.1978 42.4037C30.1579 42.553 30.0198 42.6077 29.8828 42.5877Z" fill="white" stroke="white" stroke-width="0.2"/>
<path d="M23.1628 35.8484L23.1628 35.8484C23.4773 36.7704 23.9505 37.6372 24.553 38.3925L24.553 38.3926C24.6628 38.5304 24.6967 38.7425 24.5464 38.8969C24.4806 38.9646 24.3862 39.0006 24.2954 39.0032C24.2038 39.0059 24.1028 38.9744 24.0347 38.8898L24.0345 38.8896C23.3573 38.0425 22.833 37.088 22.4794 36.0529L23.1628 35.8484ZM23.1628 35.8484L23.1627 35.8481M23.1628 35.8484L23.1627 35.8481M23.1627 35.8481C23.1036 35.6768 22.9289 35.5441 22.7263 35.6003L22.7263 35.6003M23.1627 35.8481L22.7263 35.6003M22.7263 35.6003L22.7259 35.6004M22.7263 35.6003L22.7259 35.6004M22.7259 35.6004C22.6341 35.6263 22.558 35.6925 22.5122 35.7713M22.7259 35.6004L22.5122 35.7713M22.5122 35.7713C22.4661 35.8507 22.4452 35.9529 22.4794 36.0529L22.5122 35.7713ZM24.4748 38.4549C23.8651 37.6904 23.3863 36.8134 23.0681 35.8807L22.574 36.0205C22.9239 37.0448 23.4426 37.9891 24.1126 38.8271C24.2006 38.9365 24.3837 38.9207 24.4748 38.8271C24.5801 38.7188 24.5627 38.5653 24.4748 38.4549Z" fill="white" stroke="white" stroke-width="0.2"/>
<path d="M24.8784 38.8655L24.8784 38.8655L24.8777 38.8653C24.7941 38.8424 24.6814 38.85 24.5987 38.9045L24.5987 38.9046C24.4462 39.0053 24.3713 39.2197 24.4754 39.3981L24.4754 39.3981L24.4757 39.3987C24.6332 39.6641 24.8233 39.9126 25.0403 40.1302L25.0405 40.1304C25.171 40.2603 25.4083 40.2803 25.5474 40.1266L25.5478 40.1262C25.6707 39.9887 25.6892 39.7629 25.5442 39.6169L25.5442 39.6169L25.5438 39.6165C25.4454 39.5184 25.3545 39.4128 25.269 39.3015C25.2051 39.2133 25.1449 39.1238 25.0898 39.0308C25.0451 38.9548 24.9686 38.8909 24.8784 38.8655Z" fill="white" stroke="white" stroke-width="0.2"/>
<path d="M21.6296 38.8285C21.5682 38.7012 21.3933 38.6665 21.2797 38.7338L25.7829 43.2103C24.3958 42.4616 23.1917 41.3638 22.3099 40.0304C22.0562 39.6466 21.8301 39.2449 21.6296 38.8285ZM25.8304 43.1223C24.4578 42.3814 23.266 41.2949 22.3933 39.9753C22.1422 39.5954 21.9183 39.1977 21.7197 38.7851L21.7196 38.785C21.6736 38.6897 21.587 38.633 21.4981 38.6111C21.41 38.5894 21.3105 38.5993 21.2287 38.6478L21.2287 38.6478L21.2281 38.6482C21.0489 38.756 21.0188 38.9734 21.0975 39.1367C21.834 40.6722 22.9465 42.0025 24.2963 43.0025C24.6716 43.281 25.0665 43.5306 25.4767 43.7516L25.8304 43.1223Z" fill="white" stroke="white" stroke-width="0.2"/>
<path d="M21.9789 43.4201L21.979 43.4202C22.173 43.5474 22.1737 43.77 22.0902 43.9168C22.0481 43.9909 21.9805 44.0552 21.894 44.0842C21.8042 44.1143 21.704 44.103 21.6099 44.0419L21.6096 44.0418C21.0214 43.6577 20.5318 43.1378 20.1557 42.5402L20.1556 42.5401C19.8346 42.029 19.5975 41.4578 19.4468 40.8714C19.2979 40.2941 19.202 39.6685 19.2166 39.0648L19.2166 39.0648C19.231 38.4851 19.3707 37.7466 19.8439 37.32C20.0763 37.1101 20.3914 36.9577 20.7229 36.9811M21.9789 43.4201L21.9272 34.1102L21.9348 34.0105C21.9345 34.0105 21.9343 34.0105 21.9341 34.0105C21.5946 33.985 21.267 34.0577 20.9628 34.197L20.9626 34.1971C20.4328 34.4412 20.0431 34.893 19.7415 35.3709C19.369 35.3475 18.9908 35.4144 18.649 35.561L18.649 35.561C18.2496 35.7324 17.8983 35.996 17.6082 36.3213L17.6081 36.3214C17.454 36.4944 17.5077 36.7095 17.6253 36.8306C17.6845 36.8916 17.766 36.9365 17.857 36.942C17.9514 36.9477 18.0448 36.9103 18.1195 36.8268L18.1196 36.8267C18.6026 36.2854 19.3014 35.9522 19.9937 36.1436L19.9937 36.1436C20.4198 36.2613 20.7705 36.5976 20.892 37.0084C20.8374 36.9945 20.781 36.985 20.7229 36.9811M21.9789 43.4201C21.1633 42.8868 20.5749 42.0321 20.2573 41.0932M21.9789 43.4201L19.9541 39.6556M20.7229 36.9811C20.723 36.9811 20.723 36.9811 20.7231 36.9811L20.716 37.0809L20.7227 36.9811C20.7228 36.9811 20.7229 36.9811 20.7229 36.9811ZM20.4531 37.6498C20.228 37.7465 20.093 37.961 19.9989 38.1829C19.8035 38.6456 19.8055 39.1724 19.8546 39.6656C19.9048 40.1598 20.004 40.6551 20.1626 41.1252M20.4531 37.6498L21.9242 43.5038C21.0863 42.9559 20.4858 42.081 20.1626 41.1252M20.4531 37.6498C20.673 37.5551 20.9022 37.6182 21.0239 37.8338M20.4531 37.6498L19.9541 39.6556M20.1626 41.1252L20.2573 41.0932M20.1626 41.1252L20.2573 41.0931C20.2573 41.0931 20.2573 41.0932 20.2573 41.0932M20.2573 41.0932C20.1015 40.6312 20.0036 40.1434 19.9541 39.6556M19.9541 39.6556C19.9054 39.1665 19.9057 38.6607 20.0909 38.222C20.1824 38.0064 20.3042 37.8226 20.4926 37.7416L20.4926 37.7416C20.5835 37.7025 20.6713 37.698 20.7458 37.721C20.8197 37.7438 20.8876 37.7958 20.9368 37.883L21.0239 37.8338M21.0239 37.8338C21.0965 37.9631 21.2234 37.9831 21.3277 37.9411M21.0239 37.8338L20.9367 37.8828C20.9849 37.9686 21.0551 38.0238 21.1356 38.0476C21.2124 38.0703 21.2915 38.0623 21.36 38.0358M21.3277 37.9411L21.3546 38.0374C21.3564 38.0369 21.3582 38.0363 21.36 38.0358M21.3277 37.9411C21.3994 37.9211 21.4607 37.8685 21.4894 37.776L21.3277 37.9411ZM21.36 38.0358C21.4559 38.0074 21.5363 37.9376 21.5772 37.828M21.36 38.0358L21.5772 37.828M21.5772 37.828L21.5783 37.8269L21.5842 37.8087C21.5858 37.8051 21.5889 37.7978 21.5913 37.7885C21.7906 37.0212 21.4622 36.2162 20.8503 35.7619L20.8501 35.7617C20.7351 35.6767 20.6126 35.6061 20.4847 35.5489C20.6983 35.2534 20.9504 35.0012 21.2685 34.8493C21.7297 34.6291 22.2079 34.7682 22.7116 34.932L22.7117 34.932C22.8181 34.9665 22.9174 34.9507 22.996 34.8981C23.0716 34.8475 23.1203 34.7681 23.1423 34.6858C23.1858 34.5232 23.1306 34.3069 22.9096 34.2349L22.9095 34.2349C22.8528 34.2165 22.7959 34.1984 22.7389 34.1808C22.8686 33.9905 23.0638 33.829 23.2672 33.7638L23.2673 33.7638C23.4189 33.715 23.6058 33.6803 23.7855 33.6851C23.9662 33.6899 24.1291 33.7341 24.2456 33.8315L24.2458 33.8317C24.3808 33.944 24.5911 33.9797 24.7433 33.8249L24.7436 33.8245C24.7469 33.8212 24.7494 33.8182 24.7508 33.8164L24.7518 33.8152C24.8165 33.7508 24.8585 33.6623 24.8599 33.5595L24.7599 33.5582M21.5772 37.828L22.639 34.1506C22.779 33.9334 22.9995 33.7446 23.2367 33.6686C23.5569 33.5655 24.0295 33.5203 24.3098 33.7548C24.4172 33.8442 24.5666 33.8621 24.6719 33.7548C24.6729 33.7538 24.674 33.7524 24.675 33.7511C24.676 33.7498 24.677 33.7485 24.6781 33.7475C24.7272 33.7001 24.7589 33.6349 24.7599 33.5582M24.7599 33.5582C24.7609 33.5119 24.765 33.4656 24.7701 33.4194M24.7599 33.5582L24.8599 33.5604C24.8608 33.5191 24.8644 33.4769 24.8693 33.4327M24.7701 33.4194L24.8689 33.4351C24.869 33.4343 24.8691 33.4335 24.8693 33.4327M24.7701 33.4194C24.7783 33.3678 24.7885 33.3174 24.8018 33.2679L25.0861 32.3927M24.7701 33.4194L24.8695 33.4304C24.8694 33.4311 24.8694 33.4319 24.8693 33.4327M24.8693 33.4327C24.8769 33.3848 24.8864 33.3386 24.8984 33.2939L24.8986 33.2931C24.9059 33.2649 24.9152 33.2362 24.9256 33.2042C24.9295 33.1922 24.9342 33.1799 24.9401 33.1647C24.9652 33.1093 24.9918 33.0569 25.0217 33.007L25.0222 33.006C25.036 32.9824 25.0506 32.9599 25.0662 32.9383L25.0662 32.9383L25.0671 32.937C25.0727 32.9289 25.0756 32.9248 25.078 32.9219C25.078 32.9219 25.078 32.9219 25.078 32.9219L25.078 32.9219L25.0833 32.9153L25.0856 32.9124L25.0874 32.9101C25.0884 32.9087 25.0891 32.908 25.0894 32.9076L25.0896 32.9078L25.0949 32.9014C25.1488 32.8359 25.1924 32.7563 25.1924 32.6517C25.1924 32.5659 25.1573 32.4594 25.0861 32.3927M25.0861 32.3927C25.0861 32.3927 25.0862 32.3927 25.0862 32.3927L25.0177 32.4656L25.0861 32.3927ZM24.2341 33.04C23.8555 32.9238 23.4357 32.95 23.07 33.0676L23.07 33.0676C22.6057 33.2171 22.2299 33.5795 22.0194 34.0182L24.2341 33.04ZM24.2341 33.04C24.3064 32.8087 24.4223 32.5924 24.5782 32.4022M24.2341 33.04L24.5782 32.4022M24.5782 32.4022L24.6554 32.4655L24.5782 32.4023C24.5782 32.4023 24.5782 32.4022 24.5782 32.4022ZM21.5894 37.776C21.5894 37.7751 21.5894 37.7755 21.5894 37.7767V37.776ZM21.5621 37.8436L21.5622 37.8435L21.5621 37.8436Z" fill="white" stroke="white" stroke-width="0.2"/>
<path d="M11.9083 40.2096C11.7365 40.2708 11.6132 40.4518 11.6661 40.6531L11.6662 40.6534C11.6908 40.7458 11.754 40.8236 11.8317 40.8712C11.9099 40.9191 12.0112 40.9411 12.111 40.9061L12.1116 40.9059C13.2858 40.4862 14.3994 39.8969 15.408 39.1485L15.4082 39.1484C15.5485 39.0439 15.6336 38.845 15.5275 38.6592C15.4812 38.5771 15.3997 38.5175 15.3128 38.491C15.2251 38.4642 15.119 38.4677 15.0312 38.5324L15.031 38.5326C14.074 39.243 13.0229 39.8114 11.9083 40.2096ZM11.9083 40.2096C11.9083 40.2096 11.9083 40.2096 11.9083 40.2096L11.9418 40.3038M11.9083 40.2096C11.9082 40.2096 11.9082 40.2096 11.9082 40.2096L11.9418 40.3038M11.9418 40.3038C13.0661 39.9021 14.1259 39.329 15.0906 38.6129C15.2032 38.5298 15.376 38.594 15.4405 38.7086C15.5152 38.839 15.4599 38.9851 15.3484 39.0682C14.3479 39.8106 13.2431 40.3953 12.0779 40.8117C11.9459 40.858 11.7976 40.7581 11.7628 40.6277C11.725 40.4836 11.8119 40.3501 11.9418 40.3038Z" fill="white" stroke="white" stroke-width="0.2"/>
<path d="M15.7881 38.0201C15.7055 38.0883 15.6758 38.1926 15.6774 38.2839C15.679 38.3751 15.7121 38.4746 15.783 38.5419L15.7832 38.5421C15.8565 38.6113 15.944 38.6458 16.035 38.6435C16.1244 38.6412 16.2078 38.6039 16.2775 38.5466L16.2777 38.5464C16.681 38.2129 17.0489 37.8378 17.3774 37.4278L17.3774 37.4278L17.3779 37.4272C17.4283 37.3633 17.474 37.2859 17.474 37.1791C17.474 37.0932 17.4389 36.9868 17.3678 36.9201C17.3028 36.8591 17.2122 36.8216 17.1218 36.8174C17.0298 36.8131 16.9289 36.8435 16.8592 36.9304L16.8592 36.9305C16.5391 37.33 16.1797 37.6953 15.7881 38.0201ZM15.7881 38.0201C15.7881 38.0201 15.7881 38.0201 15.7881 38.02L15.8518 38.0971M15.7881 38.0201C15.788 38.0201 15.788 38.0201 15.788 38.0202L15.8518 38.0971M15.8518 38.0971C16.2487 37.768 16.6129 37.3978 16.9372 36.993C17.0283 36.8794 17.2052 36.9047 17.2994 36.993C17.3464 37.0372 17.374 37.115 17.374 37.1791C17.374 37.2538 17.3433 37.3095 17.2994 37.3652C16.9751 37.7701 16.6119 38.1402 16.214 38.4694C16.1014 38.5619 15.9633 38.5745 15.8518 38.4694C15.7577 38.38 15.7475 38.1834 15.8518 38.0971Z" fill="white" stroke="white" stroke-width="0.2"/>
<path d="M7.15552 7.15548L7.1555 7.1555C3.05755 11.2534 0.8 16.7043 0.8 22.5C0.8 28.2957 3.05756 33.7456 7.15548 37.8445L7.29692 37.7031L7.1555 37.8445C11.2534 41.9424 16.7043 44.2 22.5 44.2C28.2957 44.2 33.7456 41.9424 37.8445 37.8445L37.7031 37.7031L37.8445 37.8445C41.9424 33.7466 44.2 28.2957 44.2 22.5C44.2 16.7043 41.9424 11.2534 37.8445 7.1555C33.7466 3.05755 28.2957 0.8 22.5 0.8C16.7043 0.8 11.2544 3.05756 7.15552 7.15548ZM22.5 43.3147C11.0232 43.3147 1.68535 33.9768 1.68535 22.5C1.68535 11.0232 11.0223 1.68438 22.5 1.68438C33.9777 1.68438 43.3147 11.0223 43.3147 22.499C43.3147 33.9758 33.9768 43.3147 22.5 43.3147Z" fill="white" stroke="white" stroke-width="0.4"/>
</svg>
