<svg width="193" height="182" viewBox="0 0 193 182" fill="none" xmlns="http://www.w3.org/2000/svg">
<g filter="url(#filter0_d_2130_515)">
<rect x="18" y="15" width="152.89" height="98.4877" rx="20" fill="#F8F8FA"/>
<rect x="18" y="15" width="152.89" height="98.4877" rx="20" fill="#F8F8FA"/>
<rect x="18" y="15" width="152.89" height="98.4877" rx="20" fill="#F8F8FA"/>
<rect x="18" y="15" width="152.89" height="98.4877" rx="20" fill="#EFEFEF"/>
</g>
<rect x="18" y="65.1816" width="152.89" height="48.3059" fill="#F8F8FA"/>
<rect x="18" y="65.1816" width="152.89" height="48.3059" fill="#F8F8FA"/>
<rect x="18" y="65.1816" width="152.89" height="48.3059" fill="#F8F8FA"/>
<rect x="18" y="65.1816" width="152.89" height="48.3059" fill="#EFEFEF"/>
<g filter="url(#filter1_d_2130_515)">
<rect x="18" y="113.488" width="152.89" height="42.678" rx="20" fill="#F8F8FA"/>
<rect x="18" y="113.488" width="152.89" height="42.678" rx="20" fill="#F8F8FA"/>
<rect x="18" y="113.488" width="152.89" height="42.678" rx="20" fill="#F8F8FA"/>
<rect x="18" y="113.488" width="152.89" height="42.678" rx="20" fill="white"/>
</g>
<rect x="18" y="110.52" width="153" height="24.5138" fill="#F8F8FA"/>
<rect x="18" y="110.52" width="153" height="24.5138" fill="#F8F8FA"/>
<rect x="18" y="110.52" width="153" height="24.5138" fill="#F8F8FA"/>
<rect x="18" y="110.52" width="153" height="24.5138" fill="white"/>
<path d="M94.4643 96.9287C111.842 96.9287 125.929 82.8416 125.929 65.4643C125.929 48.0871 111.842 34 94.4643 34C77.0871 34 63 48.0871 63 65.4643C63 82.8416 77.0871 96.9287 94.4643 96.9287Z" fill="#9E9E9E"/>
<path d="M115.453 65.4642C115.453 62.911 113.388 60.8835 110.872 60.8835C109.634 60.8835 108.507 61.3713 107.681 62.1601C104.527 59.9072 100.209 58.443 95.403 58.2555L97.5054 48.418L104.339 49.8821C104.415 51.6094 105.841 52.9987 107.606 52.9987C109.408 52.9987 110.872 51.5345 110.872 49.7317C110.872 47.9295 109.408 46.4653 107.606 46.4653C106.329 46.4653 105.203 47.2163 104.677 48.3053L97.0554 46.6907C96.8301 46.6529 96.6047 46.6907 96.4542 46.8034C96.2667 46.9161 96.154 47.1036 96.1169 47.329L93.7884 58.2925C88.9075 58.443 84.5143 59.9072 81.3229 62.1979C80.4634 61.3769 79.3201 60.9196 78.1315 60.9213C75.5783 60.9213 73.5508 62.9859 73.5508 65.502C73.5508 67.379 74.6769 68.9559 76.2544 69.6697C76.1788 70.1198 76.1417 70.5705 76.1417 71.059C76.1417 78.1172 84.3646 83.8625 94.5023 83.8625C104.64 83.8625 112.863 78.155 112.863 71.059C112.863 70.6083 112.825 70.1198 112.75 69.6697C114.327 68.9559 115.453 67.3412 115.453 65.4642ZM83.9887 68.7305C83.9887 66.9283 85.4529 65.4642 87.2558 65.4642C89.0579 65.4642 90.5221 66.9283 90.5221 68.7305C90.5221 70.5327 89.0579 71.9975 87.2558 71.9975C85.4529 72.0346 83.9887 70.5327 83.9887 68.7305ZM102.274 77.4041C100.021 79.657 95.7411 79.8074 94.5023 79.8074C93.2257 79.8074 88.9453 79.6192 86.7295 77.4041C86.3921 77.066 86.3921 76.5404 86.7295 76.2024C87.0675 75.865 87.5931 75.865 87.9311 76.2024C89.3582 77.6294 92.3621 78.1172 94.5023 78.1172C96.6425 78.1172 99.6835 77.6294 101.073 76.2024C101.411 75.865 101.936 75.865 102.274 76.2024C102.575 76.5404 102.575 77.066 102.274 77.4041ZM101.673 72.0346C99.871 72.0346 98.4069 70.5705 98.4069 68.7683C98.4069 66.9661 99.871 65.502 101.673 65.502C103.476 65.502 104.94 66.9661 104.94 68.7683C104.94 70.5327 103.476 72.0346 101.673 72.0346Z" fill="white"/>
<path d="M76.12 139L73.12 133.92C74.56 133.58 76.04 132.32 76.04 129.96C76.04 127.48 74.34 125.66 71.56 125.66H65.32V139H68.16V134.26H70.24L72.86 139H76.12ZM71.14 131.76H68.16V128.16H71.14C72.28 128.16 73.14 128.84 73.14 129.96C73.14 131.08 72.28 131.76 71.14 131.76ZM82.0461 139.24C83.5461 139.24 85.0661 138.78 86.0261 137.9L84.9061 136.26C84.2861 136.86 83.1461 137.22 82.3261 137.22C80.6861 137.22 79.7061 136.2 79.5461 134.98H86.7261V134.42C86.7261 131.26 84.7661 129.1 81.8861 129.1C78.9461 129.1 76.8861 131.36 76.8861 134.16C76.8861 137.26 79.1061 139.24 82.0461 139.24ZM84.2661 133.26H79.5061C79.6261 132.3 80.3061 131.12 81.8861 131.12C83.5661 131.12 84.2061 132.34 84.2661 133.26ZM97.7608 139V125.66H95.2008V130.58C94.4408 129.6 93.3608 129.1 92.2208 129.1C89.7608 129.1 87.9408 131.02 87.9408 134.18C87.9408 137.4 89.7808 139.24 92.2208 139.24C93.3808 139.24 94.4408 138.72 95.2008 137.76V139H97.7608ZM93.0008 136.98C91.5608 136.98 90.5608 135.84 90.5608 134.18C90.5608 132.5 91.5608 131.36 93.0008 131.36C93.8608 131.36 94.7808 131.82 95.2008 132.46V135.88C94.7808 136.52 93.8608 136.98 93.0008 136.98ZM109.48 139V125.66H106.92V130.58C106.16 129.6 105.08 129.1 103.94 129.1C101.48 129.1 99.6595 131.02 99.6595 134.18C99.6595 137.4 101.5 139.24 103.94 139.24C105.1 139.24 106.16 138.72 106.92 137.76V139H109.48ZM104.72 136.98C103.28 136.98 102.28 135.84 102.28 134.18C102.28 132.5 103.28 131.36 104.72 131.36C105.58 131.36 106.5 131.82 106.92 132.46V135.88C106.5 136.52 105.58 136.98 104.72 136.98ZM113.258 128.3C114.098 128.3 114.778 127.62 114.778 126.78C114.778 125.94 114.098 125.28 113.258 125.28C112.438 125.28 111.738 125.94 111.738 126.78C111.738 127.62 112.438 128.3 113.258 128.3ZM114.538 139V129.34H111.998V139H114.538ZM120.297 139.24C121.357 139.24 122.037 138.96 122.417 138.62L121.877 136.7C121.737 136.84 121.377 136.98 120.997 136.98C120.437 136.98 120.117 136.52 120.117 135.92V131.56H122.077V129.34H120.117V126.7H117.557V129.34H115.957V131.56H117.557V136.6C117.557 138.32 118.517 139.24 120.297 139.24Z" fill="#6C94BC"/>
<defs>
<filter id="filter0_d_2130_515" x="0" y="0" width="192.891" height="138.488" filterUnits="userSpaceOnUse" color-interpolation-filters="sRGB">
<feFlood flood-opacity="0" result="BackgroundImageFix"/>
<feColorMatrix in="SourceAlpha" type="matrix" values="0 0 0 0 0 0 0 0 0 0 0 0 0 0 0 0 0 0 127 0" result="hardAlpha"/>
<feOffset dx="2" dy="5"/>
<feGaussianBlur stdDeviation="10"/>
<feComposite in2="hardAlpha" operator="out"/>
<feColorMatrix type="matrix" values="0 0 0 0 0.945833 0 0 0 0 0.945833 0 0 0 0 0.945833 0 0 0 1 0"/>
<feBlend mode="normal" in2="BackgroundImageFix" result="effect1_dropShadow_2130_515"/>
<feBlend mode="normal" in="SourceGraphic" in2="effect1_dropShadow_2130_515" result="shape"/>
</filter>
<filter id="filter1_d_2130_515" x="0" y="98.4878" width="192.891" height="82.6782" filterUnits="userSpaceOnUse" color-interpolation-filters="sRGB">
<feFlood flood-opacity="0" result="BackgroundImageFix"/>
<feColorMatrix in="SourceAlpha" type="matrix" values="0 0 0 0 0 0 0 0 0 0 0 0 0 0 0 0 0 0 127 0" result="hardAlpha"/>
<feOffset dx="2" dy="5"/>
<feGaussianBlur stdDeviation="10"/>
<feComposite in2="hardAlpha" operator="out"/>
<feColorMatrix type="matrix" values="0 0 0 0 0.945833 0 0 0 0 0.945833 0 0 0 0 0.945833 0 0 0 1 0"/>
<feBlend mode="normal" in2="BackgroundImageFix" result="effect1_dropShadow_2130_515"/>
<feBlend mode="normal" in="SourceGraphic" in2="effect1_dropShadow_2130_515" result="shape"/>
</filter>
</defs>
</svg>
