<svg width="193" height="182" viewBox="0 0 193 182" fill="none" xmlns="http://www.w3.org/2000/svg">
<g filter="url(#filter0_d_2130_513)">
<rect x="18" y="15" width="152.89" height="98.4877" rx="20" fill="#F8F8FA"/>
<rect x="18" y="15" width="152.89" height="98.4877" rx="20" fill="#F8F8FA"/>
<rect x="18" y="15" width="152.89" height="98.4877" rx="20" fill="#F8F8FA"/>
<rect x="18" y="15" width="152.89" height="98.4877" rx="20" fill="#EFEFEF"/>
</g>
<rect x="18" y="65.1816" width="152.89" height="48.3059" fill="#F8F8FA"/>
<rect x="18" y="65.1816" width="152.89" height="48.3059" fill="#F8F8FA"/>
<rect x="18" y="65.1816" width="152.89" height="48.3059" fill="#F8F8FA"/>
<rect x="18" y="65.1816" width="152.89" height="48.3059" fill="#EFEFEF"/>
<g filter="url(#filter1_d_2130_513)">
<rect x="18" y="113.488" width="152.89" height="42.678" rx="20" fill="#F8F8FA"/>
<rect x="18" y="113.488" width="152.89" height="42.678" rx="20" fill="#F8F8FA"/>
<rect x="18" y="113.488" width="152.89" height="42.678" rx="20" fill="#F8F8FA"/>
<rect x="18" y="113.488" width="152.89" height="42.678" rx="20" fill="white"/>
</g>
<rect x="18" y="110.52" width="153" height="24.5138" fill="#F8F8FA"/>
<rect x="18" y="110.52" width="153" height="24.5138" fill="#F8F8FA"/>
<rect x="18" y="110.52" width="153" height="24.5138" fill="#F8F8FA"/>
<rect x="18" y="110.52" width="153" height="24.5138" fill="white"/>
<path d="M115.066 34C120.306 34 124.556 38.2327 124.556 43.4549V83.8793C124.556 89.0997 120.306 93.3334 115.066 93.3334H74.4903C69.2496 93.3334 65 89.0998 65 83.8793V43.4549C65 38.2327 69.2495 34 74.4903 34H115.066Z" fill="#9E9E9E"/>
<path d="M114.857 73.8378C114.681 73.2591 113.841 72.8511 113.841 72.8511C113.762 72.8095 113.691 72.772 113.632 72.7428C112.232 72.0684 110.991 71.2566 109.947 70.3364C109.107 69.5953 108.388 68.7794 107.811 67.9133C107.105 66.8558 106.775 65.9732 106.633 65.4944C106.553 65.1821 106.566 65.0572 106.633 64.8949C106.687 64.7575 106.85 64.6285 106.925 64.566C107.397 64.2329 108.158 63.7417 108.626 63.4419C109.031 63.1796 109.378 62.9548 109.583 62.8132C110.239 62.3553 110.69 61.8889 110.954 61.3852C111.296 60.7358 111.338 60.0196 111.071 59.316C110.711 58.3668 109.821 57.8006 108.689 57.8006C108.438 57.8006 108.179 57.8297 107.92 57.8838C107.272 58.0253 106.658 58.2543 106.144 58.4542C106.135 58.4581 106.126 58.4597 106.116 58.4587C106.107 58.4578 106.098 58.4544 106.09 58.4489C106.083 58.4434 106.077 58.436 106.073 58.4274C106.069 58.4188 106.067 58.4094 106.068 58.4C106.123 57.1302 106.186 55.4233 106.043 53.8037C105.918 52.3382 105.613 51.1017 105.12 50.0234C104.623 48.9409 103.975 48.1415 103.469 47.5628C102.989 47.0133 102.14 46.2014 100.862 45.4729C99.0646 44.4487 97.0168 43.9282 94.777 43.9282C92.5412 43.9282 90.4977 44.4487 88.6966 45.4729C87.3426 46.2431 86.4776 47.1132 86.0848 47.5628C85.5791 48.1415 84.9314 48.9409 84.4341 50.0234C83.9367 51.1017 83.6359 52.3341 83.5105 53.8037C83.3685 55.4316 83.427 57.0012 83.4854 58.4001C83.4854 58.4417 83.4478 58.4708 83.406 58.4542C82.892 58.2543 82.2777 58.0253 81.63 57.8838C81.3751 57.8297 81.116 57.8006 80.8611 57.8006C79.7327 57.8006 78.8426 58.3668 78.479 59.316C78.2116 60.0196 78.2534 60.7357 78.5961 61.3852C78.8635 61.8889 79.3106 62.3552 79.9667 62.8132C80.1674 62.9548 80.5184 63.1797 80.9238 63.4419C81.3792 63.7375 82.1189 64.2163 82.5953 64.5451C82.6538 64.5868 82.8544 64.7367 82.9171 64.8949C82.9839 65.0614 82.9965 65.1863 82.9088 65.5194C82.7625 66.0024 82.4323 66.8767 81.7386 67.9133C81.1619 68.7835 80.4432 69.5953 79.6032 70.3365C78.5585 71.2565 77.3173 72.0684 75.9173 72.7428C75.8505 72.7762 75.7711 72.8136 75.6875 72.8636C75.6875 72.8636 74.8517 73.2883 74.6929 73.8378C74.4589 74.6496 75.0816 75.4116 75.7126 75.8196C76.749 76.4857 78.011 76.8438 78.7423 77.0394C78.947 77.0936 79.1309 77.1435 79.2981 77.1935C79.4026 77.2268 79.6659 77.3267 79.7787 77.4724C79.9207 77.6556 79.9375 77.8805 79.9877 78.1344C80.067 78.5632 80.2467 79.0919 80.7774 79.4583C81.3625 79.858 82.1022 79.8871 83.0425 79.9246C84.0245 79.9621 85.2448 80.0079 86.6447 80.47C87.2925 80.6824 87.8817 81.0446 88.5588 81.4609C89.9795 82.331 91.7472 83.4135 94.7644 83.4135C97.7858 83.4135 99.566 82.3269 100.995 81.4526C101.672 81.0405 102.253 80.6824 102.888 80.4742C104.288 80.0121 105.508 79.9662 106.491 79.9288C107.431 79.8913 108.17 79.8664 108.756 79.4625C109.324 79.0712 109.487 78.4883 109.562 78.0511C109.604 77.8346 109.629 77.639 109.754 77.4807C109.863 77.3434 110.105 77.2476 110.218 77.2101C110.389 77.156 110.582 77.106 110.795 77.0478C111.526 76.8521 112.446 76.6231 113.561 75.9944C114.907 75.2325 114.999 74.2999 114.857 73.8378Z" fill="#EFEFEF"/>
<path d="M116.019 73.3882C115.722 72.5805 115.154 72.1517 114.51 71.7936C114.389 71.7229 114.276 71.6645 114.185 71.6229C113.992 71.523 113.796 71.4273 113.599 71.3273C111.589 70.2657 110.018 68.9251 108.932 67.3388C108.564 66.8017 108.309 66.3188 108.129 65.9233C108.037 65.6568 108.041 65.5069 108.108 65.3695C108.158 65.2655 108.292 65.1572 108.367 65.1031C108.681 64.8966 108.995 64.6925 109.312 64.4911C109.742 64.2121 110.085 63.9914 110.302 63.8416C111.13 63.2671 111.706 62.655 112.066 61.9723C112.576 61.0105 112.638 59.9114 112.245 58.8789C111.702 57.4467 110.34 56.5557 108.693 56.5557C108.351 56.5557 108.004 56.5931 107.661 56.6681C107.569 56.6889 107.481 56.7098 107.394 56.7306C107.41 55.7563 107.385 54.7155 107.298 53.6996C106.988 50.1191 105.731 48.2415 104.418 46.7468C103.871 46.1223 102.918 45.2105 101.489 44.3945C99.4956 43.2538 97.2389 42.6792 94.7775 42.6792C92.3244 42.6792 90.0678 43.2538 88.0744 44.3904C86.6368 45.2064 85.6841 46.1223 85.1408 46.7427C83.8286 48.2373 82.5708 50.115 82.2615 53.6955C82.1738 54.7114 82.1528 55.7521 82.1654 56.7264C82.0777 56.7056 81.9857 56.6848 81.898 56.664C81.5589 56.5898 81.2129 56.5521 80.8657 56.5515C79.2192 56.5515 77.8569 57.4425 77.3137 58.8747C76.9209 59.9072 76.9835 61.0063 77.4934 61.968C77.8528 62.6509 78.4336 63.2629 79.2569 63.8375C79.4783 63.9915 79.8169 64.2121 80.2473 64.4869C80.4813 64.6368 80.8198 64.8574 81.1541 65.0781C81.2043 65.1114 81.384 65.2446 81.4466 65.3695C81.5177 65.5111 81.5177 65.6651 81.4132 65.9482C81.2377 66.3355 80.9827 66.8101 80.6233 67.3347C79.5577 68.8876 78.0324 70.2032 76.0892 71.2523C75.057 71.7977 73.9872 72.16 73.5359 73.384C73.1932 74.3083 73.4188 75.3616 74.2839 76.2484C74.5681 76.5523 74.9275 76.8229 75.3788 77.0728C76.4403 77.6556 77.3429 77.9429 78.0533 78.1386C78.1787 78.1761 78.4671 78.2676 78.5924 78.3801C78.91 78.6548 78.864 79.0712 79.2861 79.679C79.541 80.0579 79.8336 80.316 80.076 80.4825C80.9577 81.0904 81.9522 81.1278 83.0054 81.1695C83.954 81.207 85.0322 81.2485 86.2608 81.6524C86.7706 81.819 87.3013 82.1437 87.9115 82.5184C89.3824 83.4219 91.4009 84.6542 94.7733 84.6542C98.1499 84.6542 100.177 83.4135 101.66 82.5101C102.27 82.1395 102.797 81.8148 103.29 81.6524C104.519 81.2486 105.597 81.2069 106.545 81.1695C107.598 81.1278 108.589 81.0904 109.475 80.4825C109.844 80.2261 110.152 79.8921 110.377 79.5042C110.678 78.9921 110.674 78.6298 110.958 78.3842C111.075 78.2843 111.33 78.1968 111.468 78.1552C112.183 77.9596 113.098 77.6722 114.18 77.0768C114.661 76.8146 115.033 76.5274 115.33 76.1984L115.342 76.1859C116.149 75.3117 116.353 74.2916 116.019 73.3882ZM113.023 74.9911C111.192 75.9986 109.976 75.8903 109.032 76.494C108.229 77.0103 108.702 78.122 108.121 78.5216C107.402 79.0171 105.283 78.4883 102.546 79.3876C100.289 80.1329 98.8478 82.2687 94.7816 82.2687C90.7072 82.2687 89.3072 80.1411 87.0172 79.3876C84.28 78.4883 82.1571 79.0171 81.4424 78.5216C80.8616 78.122 81.3338 77.0103 80.5315 76.494C79.587 75.8862 78.3709 75.9944 76.5406 74.9911C75.3746 74.3499 76.0349 73.9544 76.4235 73.767C83.0513 70.5738 84.1044 65.636 84.1546 65.2655C84.2131 64.8242 84.2758 64.4744 83.7869 64.0206C83.3146 63.5834 81.2127 62.2886 80.6317 61.8848C79.6664 61.2145 79.2443 60.5442 79.5577 59.7198C79.775 59.1495 80.31 58.9372 80.8741 58.9372C81.0497 58.9372 81.2294 58.958 81.4006 58.9954C82.4579 59.2244 83.4859 59.7532 84.0793 59.8947C84.163 59.9155 84.234 59.9239 84.2966 59.9239C84.6143 59.9239 84.7229 59.7656 84.702 59.4034C84.6352 58.2502 84.468 56.002 84.6519 53.8995C84.9027 51.0101 85.8387 49.5779 86.9503 48.3081C87.4852 47.7003 89.9926 45.0606 94.7858 45.0606C99.5916 45.0606 102.086 47.7003 102.621 48.3081C103.733 49.5738 104.669 51.006 104.92 53.8995C105.104 56.002 104.945 58.2502 104.87 59.4034C104.845 59.7823 104.962 59.9239 105.275 59.9239C105.338 59.9239 105.413 59.9156 105.492 59.8947C106.086 59.7532 107.114 59.2244 108.171 58.9954C108.344 58.9573 108.52 58.9378 108.697 58.9372C109.262 58.9372 109.797 59.1537 110.014 59.7198C110.327 60.5442 109.901 61.2145 108.94 61.8848C108.359 62.2886 106.257 63.5835 105.785 64.0206C105.296 64.4703 105.359 64.82 105.417 65.2655C105.463 65.636 106.52 70.5738 113.148 73.767C113.524 73.9544 114.189 74.3499 113.023 74.9911Z" fill="#5A5A5A"/>
<path d="M58.06 138.24C61.66 138.24 63.4 136.4 63.4 133.96C63.4 128.98 55.74 130.4 55.74 128.28C55.74 127.48 56.42 126.94 57.64 126.94C59 126.94 60.44 127.4 61.52 128.4L63.1 126.32C61.78 125.1 60.02 124.46 57.9 124.46C54.76 124.46 52.84 126.3 52.84 128.52C52.84 133.54 60.52 131.92 60.52 134.28C60.52 135.04 59.76 135.76 58.2 135.76C56.36 135.76 54.9 134.94 53.96 133.96L52.42 136.12C53.66 137.38 55.5 138.24 58.06 138.24ZM74.3122 138V131.18C74.3122 129.3 73.2922 128.1 71.1722 128.1C69.5922 128.1 68.4122 128.86 67.7922 129.6V128.34H65.2522V138H67.7922V131.5C68.2122 130.92 68.9922 130.36 69.9922 130.36C71.0722 130.36 71.7722 130.82 71.7722 132.16V138H74.3122ZM85.1742 138V131.76C85.1742 128.98 83.1542 128.1 80.9542 128.1C79.4342 128.1 77.9142 128.58 76.7342 129.62L77.6942 131.32C78.5142 130.56 79.4742 130.18 80.5142 130.18C81.7942 130.18 82.6342 130.82 82.6342 131.8V133.1C81.9942 132.34 80.8542 131.92 79.5742 131.92C78.0342 131.92 76.2142 132.78 76.2142 135.04C76.2142 137.2 78.0342 138.24 79.5742 138.24C80.8342 138.24 81.9742 137.78 82.6342 137V138H85.1742ZM80.5942 136.52C79.5942 136.52 78.7742 136 78.7742 135.1C78.7742 134.16 79.5942 133.64 80.5942 133.64C81.4142 133.64 82.2142 133.92 82.6342 134.48V135.68C82.2142 136.24 81.4142 136.52 80.5942 136.52ZM93.2136 138.24C95.6936 138.24 97.4936 136.38 97.4936 133.16C97.4936 129.94 95.6936 128.1 93.2136 128.1C92.0336 128.1 90.9736 128.62 90.2336 129.56V128.34H87.6936V141.68H90.2336V136.76C91.0136 137.76 92.0736 138.24 93.2136 138.24ZM92.4136 135.98C91.5936 135.98 90.6536 135.48 90.2336 134.88V131.46C90.6536 130.84 91.5936 130.36 92.4136 130.36C93.8736 130.36 94.8536 131.5 94.8536 133.16C94.8536 134.84 93.8736 135.98 92.4136 135.98ZM103.854 138.24C105.834 138.24 107.034 137.38 107.674 136.48L106.014 134.94C105.554 135.58 104.854 135.98 103.974 135.98C102.434 135.98 101.354 134.84 101.354 133.16C101.354 131.48 102.434 130.36 103.974 130.36C104.854 130.36 105.554 130.72 106.014 131.4L107.674 129.84C107.034 128.96 105.834 128.1 103.854 128.1C100.874 128.1 98.7338 130.2 98.7338 133.16C98.7338 136.14 100.874 138.24 103.854 138.24ZM118.414 138V131.14C118.414 129.26 117.394 128.1 115.274 128.1C113.694 128.1 112.494 128.86 111.874 129.6V124.66H109.334V138H111.874V131.5C112.314 130.92 113.094 130.36 114.074 130.36C115.174 130.36 115.874 130.78 115.874 132.12V138H118.414ZM129.276 138V131.76C129.276 128.98 127.256 128.1 125.056 128.1C123.536 128.1 122.016 128.58 120.836 129.62L121.796 131.32C122.616 130.56 123.576 130.18 124.616 130.18C125.896 130.18 126.736 130.82 126.736 131.8V133.1C126.096 132.34 124.956 131.92 123.676 131.92C122.136 131.92 120.316 132.78 120.316 135.04C120.316 137.2 122.136 138.24 123.676 138.24C124.936 138.24 126.076 137.78 126.736 137V138H129.276ZM124.696 136.52C123.696 136.52 122.876 136 122.876 135.1C122.876 134.16 123.696 133.64 124.696 133.64C125.516 133.64 126.316 133.92 126.736 134.48V135.68C126.316 136.24 125.516 136.52 124.696 136.52ZM135.035 138.24C136.095 138.24 136.775 137.96 137.155 137.62L136.615 135.7C136.475 135.84 136.115 135.98 135.735 135.98C135.175 135.98 134.855 135.52 134.855 134.92V130.56H136.815V128.34H134.855V125.7H132.295V128.34H130.695V130.56H132.295V135.6C132.295 137.32 133.255 138.24 135.035 138.24Z" fill="#6C94BC"/>
<defs>
<filter id="filter0_d_2130_513" x="0" y="0" width="192.891" height="138.488" filterUnits="userSpaceOnUse" color-interpolation-filters="sRGB">
<feFlood flood-opacity="0" result="BackgroundImageFix"/>
<feColorMatrix in="SourceAlpha" type="matrix" values="0 0 0 0 0 0 0 0 0 0 0 0 0 0 0 0 0 0 127 0" result="hardAlpha"/>
<feOffset dx="2" dy="5"/>
<feGaussianBlur stdDeviation="10"/>
<feComposite in2="hardAlpha" operator="out"/>
<feColorMatrix type="matrix" values="0 0 0 0 0.945833 0 0 0 0 0.945833 0 0 0 0 0.945833 0 0 0 1 0"/>
<feBlend mode="normal" in2="BackgroundImageFix" result="effect1_dropShadow_2130_513"/>
<feBlend mode="normal" in="SourceGraphic" in2="effect1_dropShadow_2130_513" result="shape"/>
</filter>
<filter id="filter1_d_2130_513" x="0" y="98.4878" width="192.891" height="82.6782" filterUnits="userSpaceOnUse" color-interpolation-filters="sRGB">
<feFlood flood-opacity="0" result="BackgroundImageFix"/>
<feColorMatrix in="SourceAlpha" type="matrix" values="0 0 0 0 0 0 0 0 0 0 0 0 0 0 0 0 0 0 127 0" result="hardAlpha"/>
<feOffset dx="2" dy="5"/>
<feGaussianBlur stdDeviation="10"/>
<feComposite in2="hardAlpha" operator="out"/>
<feColorMatrix type="matrix" values="0 0 0 0 0.945833 0 0 0 0 0.945833 0 0 0 0 0.945833 0 0 0 1 0"/>
<feBlend mode="normal" in2="BackgroundImageFix" result="effect1_dropShadow_2130_513"/>
<feBlend mode="normal" in="SourceGraphic" in2="effect1_dropShadow_2130_513" result="shape"/>
</filter>
</defs>
</svg>
