<svg width="193" height="182" viewBox="0 0 193 182" fill="none" xmlns="http://www.w3.org/2000/svg">
<g filter="url(#filter0_d_2130_516)">
<rect x="18" y="15" width="152.89" height="98.4877" rx="20" fill="#F8F8FA"/>
<rect x="18" y="15" width="152.89" height="98.4877" rx="20" fill="#F8F8FA"/>
<rect x="18" y="15" width="152.89" height="98.4877" rx="20" fill="#F8F8FA"/>
<rect x="18" y="15" width="152.89" height="98.4877" rx="20" fill="#EFEFEF"/>
</g>
<rect x="18" y="65.1816" width="152.89" height="48.3059" fill="#F8F8FA"/>
<rect x="18" y="65.1816" width="152.89" height="48.3059" fill="#F8F8FA"/>
<rect x="18" y="65.1816" width="152.89" height="48.3059" fill="#F8F8FA"/>
<rect x="18" y="65.1816" width="152.89" height="48.3059" fill="#EFEFEF"/>
<g filter="url(#filter1_d_2130_516)">
<rect x="18" y="113.488" width="152.89" height="42.678" rx="20" fill="#F8F8FA"/>
<rect x="18" y="113.488" width="152.89" height="42.678" rx="20" fill="#F8F8FA"/>
<rect x="18" y="113.488" width="152.89" height="42.678" rx="20" fill="#F8F8FA"/>
<rect x="18" y="113.488" width="152.89" height="42.678" rx="20" fill="white"/>
</g>
<rect x="18" y="110.52" width="153" height="24.5138" fill="#F8F8FA"/>
<rect x="18" y="110.52" width="153" height="24.5138" fill="#F8F8FA"/>
<rect x="18" y="110.52" width="153" height="24.5138" fill="#F8F8FA"/>
<rect x="18" y="110.52" width="153" height="24.5138" fill="white"/>
<path d="M71.26 139V128.16H75.14V125.66H64.5V128.16H68.4V139H71.26ZM78.1606 128.3C79.0006 128.3 79.6806 127.62 79.6806 126.78C79.6806 125.94 79.0006 125.28 78.1606 125.28C77.3406 125.28 76.6406 125.94 76.6406 126.78C76.6406 127.62 77.3406 128.3 78.1606 128.3ZM79.4406 139V129.34H76.9006V139H79.4406ZM91.3992 139L87.4592 133.72L91.2792 129.34H88.1592L84.4992 133.64V125.66H81.9592V139H84.4992V136.52L85.6592 135.28L88.2192 139H91.3992ZM97.7639 139V128.16H101.644V125.66H91.0039V128.16H94.9039V139H97.7639ZM105.931 139.24C109.131 139.24 111.051 136.92 111.051 134.16C111.051 131.42 109.131 129.1 105.931 129.1C102.751 129.1 100.831 131.42 100.831 134.16C100.831 136.92 102.751 139.24 105.931 139.24ZM105.931 136.98C104.351 136.98 103.471 135.68 103.471 134.16C103.471 132.66 104.351 131.36 105.931 131.36C107.511 131.36 108.411 132.66 108.411 134.16C108.411 135.68 107.511 136.98 105.931 136.98ZM122.376 139L118.436 133.72L122.256 129.34H119.136L115.476 133.64V125.66H112.936V139H115.476V136.52L116.636 135.28L119.196 139H122.376Z" fill="#6C94BC"/>
<path d="M69.1982 88.1126L69.4087 88.709C69.3818 88.6407 69.3048 88.432 69.1982 88.1126ZM77.5274 74.5956C77.897 71.3906 79.1521 69.5961 81.5174 67.7566C84.9016 65.2652 89.1291 66.6745 89.1291 66.6745V58.3142C90.1568 58.2867 91.185 58.3505 92.2015 58.5048V69.2638C92.2015 69.2638 87.9753 67.8545 84.5911 70.3471C82.2271 72.1854 80.9694 73.9811 80.601 77.1861C80.5895 78.9265 80.9014 81.2014 82.3375 83.1685C81.9824 82.9778 81.6205 82.7606 81.2517 82.5167C78.0882 80.292 77.512 76.9543 77.5274 74.5956ZM109.657 42.8559C107.329 40.1842 106.448 37.4867 106.13 35.5918H109.059C109.059 35.5918 108.475 40.5603 112.73 45.4464L112.789 45.5121C111.642 44.7566 110.591 43.8647 109.657 42.8559ZM123.765 50.4304V60.973C123.765 60.973 120.028 60.8197 117.262 60.0829C113.4 59.0523 110.918 57.4717 110.918 57.4717C110.918 57.4717 109.204 56.3445 109.065 56.2659V78.0363C109.065 79.2485 108.748 82.2758 107.782 84.8006C106.52 88.1035 104.573 90.2716 104.215 90.7147C104.215 90.7147 101.847 93.6453 97.67 95.6188C93.9045 97.3991 90.5985 97.354 89.6103 97.3991C89.6103 97.3991 83.8955 97.6362 78.753 94.1361C77.641 93.3647 76.6029 92.491 75.6523 91.5263L75.678 91.5456C80.8218 95.0456 86.5354 94.8086 86.5354 94.8086C87.5249 94.7635 90.8308 94.8086 94.595 93.0283C98.7685 91.0548 101.14 88.1242 101.14 88.1242C101.494 87.681 103.45 85.513 104.707 82.2088C105.671 79.6852 105.99 76.6567 105.99 75.4445V53.6767C106.129 53.7566 107.842 54.8837 107.842 54.8837C107.842 54.8837 110.325 56.4656 114.187 57.4949C116.954 58.2317 120.69 58.385 120.69 58.385V50.1239C121.968 50.424 123.058 50.5052 123.765 50.4304Z" fill="#838383"/>
<path d="M120.691 50.1239V58.3824C120.691 58.3824 116.955 58.2291 114.188 57.4923C110.327 56.4618 107.843 54.8811 107.843 54.8811C107.843 54.8811 106.13 53.754 105.991 53.6741V75.4471C105.991 76.6593 105.674 79.6878 104.708 82.2114C103.446 85.5156 101.499 87.6836 101.141 88.1267C101.141 88.1267 98.7723 91.0574 94.5962 93.0309C90.832 94.8111 87.526 94.7661 86.5366 94.8111C86.5366 94.8111 80.823 95.0482 75.6792 91.5482L75.6535 91.5288C75.1105 90.9781 74.5993 90.3966 74.1225 89.7872C72.481 87.6913 71.4749 85.2129 71.222 84.5056C71.2216 84.5026 71.2216 84.4996 71.222 84.4966C70.8152 83.2677 69.9605 80.3164 70.0773 77.458C70.2839 72.4147 71.9779 69.3192 72.4258 68.5437C73.6121 66.4289 75.1549 64.5369 76.9857 62.9516C78.6012 61.5837 80.4324 60.4954 82.4041 59.7312C84.5356 58.8339 86.818 58.353 89.129 58.3142V66.6745C89.129 66.6745 84.9015 65.2704 81.5186 67.7566C79.1533 69.5961 77.8982 71.3906 77.5285 74.5956C77.5131 76.9543 78.0894 80.292 81.2503 82.518C81.6191 82.7627 81.981 82.98 82.3361 83.1698C82.8883 83.9215 83.5604 84.5766 84.3253 85.1085C87.4131 87.1554 90.0004 87.2984 93.3089 85.969C95.5151 85.0802 97.1758 83.077 97.9458 80.8575C98.4296 79.4714 98.4232 78.0763 98.4232 76.6335V35.5918H106.123C106.442 37.4867 107.322 40.1842 109.65 42.8559C110.584 43.8647 111.636 44.7566 112.783 45.5121C113.122 45.8793 114.854 47.6943 117.078 48.8086C118.228 49.3846 119.441 49.8259 120.691 50.1239Z" fill="#151515"/>
<path d="M68.1572 81.938V81.9444L68.3472 82.4869C68.3254 82.4238 68.2548 82.2318 68.1572 81.938Z" fill="#69C9D0"/>
<path d="M82.4041 59.7311C80.4324 60.4953 78.6013 61.5837 76.9857 62.9516C75.1543 64.5404 73.6119 66.4364 72.4271 68.5552C71.9792 69.3281 70.2852 72.4262 70.0786 77.4695C69.9618 80.328 70.8165 83.2792 71.2233 84.5082C71.2229 84.5111 71.2229 84.5142 71.2233 84.5172C71.48 85.2179 72.4823 87.6964 74.1238 89.7987C74.6006 90.4082 75.1118 90.9897 75.6548 91.5404C73.9148 90.3325 72.363 88.8721 71.0501 87.2069C69.4228 85.1291 68.4192 82.6763 68.1573 81.9524C68.157 81.9472 68.157 81.9421 68.1573 81.9369V81.9279C67.7492 80.7003 66.8919 77.7477 67.0113 74.8854C67.2179 69.8421 68.912 66.7466 69.3599 65.9711C70.5443 63.8521 72.0868 61.956 73.9184 60.3675C75.5337 58.9991 77.3649 57.9107 79.3369 57.147C80.5668 56.6348 81.8482 56.2569 83.1588 56.0198C85.1338 55.6738 87.151 55.6438 89.1354 55.931V58.3141C86.8223 58.3521 84.5376 58.833 82.4041 59.7311Z" fill="#DBDBDB"/>
<path d="M106.13 35.5918H98.4301V76.6348C98.4301 78.0776 98.4301 79.4689 97.9527 80.8588C97.175 83.0771 95.5207 85.0802 93.3159 85.9691C90.0061 87.3036 87.4188 87.1555 84.3323 85.1085C83.566 84.579 82.8922 83.9261 82.3379 83.1763C84.9675 84.5843 87.3212 84.5598 90.2371 83.3849C92.4406 82.4961 94.0975 80.493 94.8726 78.2734C95.3577 76.8873 95.3513 75.4922 95.3513 74.0507V33H105.984C105.984 33 105.865 34.0202 106.13 35.5918ZM120.692 47.8399V50.1239C119.443 49.8255 118.233 49.3842 117.085 48.8087C114.861 47.6944 113.129 45.8793 112.79 45.5122C113.183 45.7713 113.591 46.007 114.012 46.2181C116.716 47.5733 119.379 47.9778 120.692 47.8399Z" fill="#DBDBDB"/>
<defs>
<filter id="filter0_d_2130_516" x="0" y="0" width="192.891" height="138.488" filterUnits="userSpaceOnUse" color-interpolation-filters="sRGB">
<feFlood flood-opacity="0" result="BackgroundImageFix"/>
<feColorMatrix in="SourceAlpha" type="matrix" values="0 0 0 0 0 0 0 0 0 0 0 0 0 0 0 0 0 0 127 0" result="hardAlpha"/>
<feOffset dx="2" dy="5"/>
<feGaussianBlur stdDeviation="10"/>
<feComposite in2="hardAlpha" operator="out"/>
<feColorMatrix type="matrix" values="0 0 0 0 0.945833 0 0 0 0 0.945833 0 0 0 0 0.945833 0 0 0 1 0"/>
<feBlend mode="normal" in2="BackgroundImageFix" result="effect1_dropShadow_2130_516"/>
<feBlend mode="normal" in="SourceGraphic" in2="effect1_dropShadow_2130_516" result="shape"/>
</filter>
<filter id="filter1_d_2130_516" x="0" y="98.4878" width="192.891" height="82.6782" filterUnits="userSpaceOnUse" color-interpolation-filters="sRGB">
<feFlood flood-opacity="0" result="BackgroundImageFix"/>
<feColorMatrix in="SourceAlpha" type="matrix" values="0 0 0 0 0 0 0 0 0 0 0 0 0 0 0 0 0 0 127 0" result="hardAlpha"/>
<feOffset dx="2" dy="5"/>
<feGaussianBlur stdDeviation="10"/>
<feComposite in2="hardAlpha" operator="out"/>
<feColorMatrix type="matrix" values="0 0 0 0 0.945833 0 0 0 0 0.945833 0 0 0 0 0.945833 0 0 0 1 0"/>
<feBlend mode="normal" in2="BackgroundImageFix" result="effect1_dropShadow_2130_516"/>
<feBlend mode="normal" in="SourceGraphic" in2="effect1_dropShadow_2130_516" result="shape"/>
</filter>
</defs>
</svg>
